<svg preserveAspectRatio="xMidYMid meet"  overflow="visible" style="display: block;" viewBox="0 0 36.0281 51.1978" fill="none" xmlns="http://www.w3.org/2000/svg">
<g id="236236346 1" clip-path="url(#clip0_1048_316)">
<path id="Vector" d="M15.2752 38.6981C11.4135 39.606 6.71939 41.4955 8.00357 46.1813C9.44501 51.4394 16.5465 49.1277 20.3373 48.7451C23.0933 48.4663 26.1059 48.3284 28.08 50.6235C28.8122 46.8961 29.6383 42.1946 25.2302 40.5747C23.487 39.9335 21.501 39.8415 19.6474 39.8498C18.2787 39.8553 16.8878 40.0936 15.519 40.0282C15.5006 39.7173 15.5052 39.8056 15.7076 39.7431C16.2549 39.572 25.3829 38.3532 26.128 38.286C26.128 38.286 20.8966 37.1959 21.2995 37.311L15.2752 38.6999V38.6981Z" fill="var(--fill-0, white)"/>
<path id="Vector_2" d="M18.4486 4.95599C20.0197 4.47306 21.9073 3.56053 21.2459 1.65913C20.5027 -0.474077 17.6318 0.679454 16.0753 0.94438C14.9439 1.13664 13.702 1.2783 12.8217 0.384174C12.623 1.94613 12.4132 3.91284 14.2806 4.45925C15.0193 4.67543 15.8425 4.65795 16.6088 4.60276C17.1746 4.56228 17.5462 4.54664 18.1303 4.47765L18.1717 4.59724C17.95 4.68278 17.7209 5.93107 17.4146 5.9789C17.4146 5.9789 19.3629 6.17576 19.1928 6.13988L18.4486 4.95507V4.95599Z" fill="var(--fill-0, white)"/>
<path id="Vector_3" d="M18.2265 17.8874C21.6455 17.8874 24.4172 15.1156 24.4172 11.6966C24.4172 8.27749 21.6455 5.50574 18.2265 5.50574C14.8073 5.50574 12.0356 8.27749 12.0356 11.6966C12.0356 15.1156 14.8073 17.8874 18.2265 17.8874Z" fill="var(--fill-0, white)"/>
<path id="Vector_4" d="M25.8585 17.6358C22.787 17.5898 20.0108 18.8906 18.0864 20.9897C19.8066 22.9215 20.836 25.4769 20.7946 28.2669C20.7559 30.8711 19.7891 33.2435 18.2152 35.0759C20.0614 37.0196 22.6564 38.2486 25.5485 38.2918C31.2527 38.3773 35.946 33.823 36.0315 28.1188C36.1171 22.4146 31.5627 17.7213 25.8585 17.6358Z" fill="var(--fill-0, white)"/>
<path id="Vector_5" d="M15.5045 27.802C15.5431 25.1978 16.51 22.8255 18.0839 20.993C16.2377 19.0493 13.6427 17.8204 10.7506 17.7772C5.04636 17.6916 0.35312 22.2459 0.267571 27.9501C0.182022 33.6543 4.73636 38.3476 10.4405 38.4331C13.512 38.4791 16.2882 37.1784 18.2126 35.0792C16.4924 33.1474 15.4631 30.592 15.5045 27.802Z" fill="var(--fill-0, white)"/>
</g>
<defs>
<clipPath id="clip0_1048_316">
<rect width="36.0281" height="51.1978" fill="white"/>
</clipPath>
</defs>
</svg>
