<svg preserveAspectRatio="xMidYMid meet" overflow="visible" style="display: block;" viewBox="0 0 19.989 19.993" fill="none" xmlns="http://www.w3.org/2000/svg">
<g id="Icon">
<path id="Vector" d="M3.94377 0C1.76515 0 0 1.76515 0 3.94377V11.6107L2.61394 14.2246V4.44171C2.61394 3.43191 3.43291 2.61394 4.44171 2.61394H9.94787L7.33493 0H3.94377Z" fill="var(--fill-0, #4545ED)"/>
<path id="Vector_2" d="M13.7038 19.2051C13.7793 19.2051 13.8399 19.1445 13.8399 19.0689V16.7353C13.8399 16.6597 13.7793 16.5991 13.7038 16.5991H4.98831L7.5943 19.2051H13.7038Z" fill="var(--fill-0, #4545ED)"/>
<path id="Vector_3" d="M16.595 9.2602V13.7993C16.595 13.8748 16.6556 13.9355 16.7311 13.9355H19.0688C19.1443 13.9355 19.2049 13.8748 19.2049 13.7993V11.8702L16.594 9.25921L16.595 9.2602Z" fill="var(--fill-0, #4545ED)"/>
<path id="Vector_4" d="M0 15.2613C0 17.4389 1.76515 19.2051 3.94377 19.2051H7.59533L4.98934 16.5991H4.4427C3.43291 16.5991 2.61394 15.7801 2.61394 14.7703V14.2237L0 11.6107V15.2613Z" fill="var(--fill-0, #FC27ED)"/>
<path id="Vector_5" d="M19.205 3.94377C19.205 1.76615 17.4398 0 15.2612 0H7.33393L9.94787 2.61394H14.7663C15.7761 2.61394 16.595 3.43291 16.595 4.4427V9.26109L19.206 11.8721V3.94377H19.205Z" fill="var(--fill-0, #029AFF)"/>
<path id="Vector_6" d="M19.2406 15.8157H16.5601C16.1468 15.8157 15.8117 16.1507 15.8117 16.5641V19.2446C15.8117 19.6579 16.1468 19.993 16.5601 19.993H19.2406C19.6539 19.993 19.989 19.6579 19.989 19.2446V16.5641C19.989 16.1507 19.6539 15.8157 19.2406 15.8157Z" fill="var(--fill-0, #4545ED)"/>
</g>
</svg>
