<svg preserveAspectRatio="xMidYMid meet" overflow="visible" style="display: block;" viewBox="0 0 96.2407 20.0002" fill="none" xmlns="http://www.w3.org/2000/svg">
<g id="Wordmark">
<path id="Vector" d="M96.2407 18.7233C96.2407 19.262 95.8561 19.6466 95.3164 19.6466C94.7767 19.6466 94.3921 19.262 94.3921 18.7233C94.3921 18.1846 94.7767 17.799 95.3164 17.799C95.8561 17.799 96.2407 18.1836 96.2407 18.7233ZM96.041 18.7233C96.041 18.287 95.7328 17.9858 95.3174 17.9858C94.902 17.9858 94.5939 18.287 94.5939 18.7233C94.5939 19.1596 94.902 19.4598 95.3174 19.4598C95.7328 19.4598 96.041 19.1596 96.041 18.7233ZM95.4814 18.8485L95.7299 19.1984H95.5192L95.2757 18.8575H95.1832V19.1984H94.9954V18.2353H95.388C95.6056 18.2353 95.7269 18.3635 95.7269 18.5484C95.7269 18.7084 95.6345 18.8187 95.4804 18.8485H95.4814ZM95.1832 18.3963V18.6974H95.376C95.4814 18.6974 95.54 18.6507 95.54 18.5474C95.54 18.444 95.4814 18.3963 95.376 18.3963H95.1832Z" fill="var(--fill-0, #131829)"/>
<path id="Vector_2" d="M61.6163 10.0642V19.206C61.6163 19.3521 61.4981 19.4704 61.352 19.4704H59.6753C59.5451 19.4704 59.4347 19.376 59.4139 19.2488L59.1485 17.6337H59.0113C58.4627 18.566 56.9272 19.7447 54.7326 19.7447C51.6893 19.7447 49.7691 17.8255 49.7691 15.303C49.7691 12.7805 51.6893 10.8881 55.1988 10.8881H59.0103V10.0105C59.0103 8.25532 57.7491 7.18589 55.8846 7.18589C54.3778 7.18589 53.3879 7.84981 52.9844 8.82879C52.9436 8.92818 52.8532 8.99477 52.7458 8.99477H50.3873C50.2979 8.99477 50.2313 8.90632 50.2561 8.82084C50.9598 6.39773 52.9387 4.85521 55.9124 4.85521C59.4775 4.85521 61.6163 6.85691 61.6163 10.0652V10.0642ZM59.0113 13.8489V13.0538H55.2544C53.3074 13.0538 52.3751 13.9314 52.3751 15.2205C52.3751 16.5096 53.3352 17.4419 55.0348 17.4419C57.4758 17.4419 59.0113 15.8785 59.0113 13.8499V13.8489Z" fill="var(--fill-0, #131829)"/>
<path id="Vector_3" d="M5.13748 5.17123V4.0034C5.13748 3.12878 5.84613 2.41914 6.72175 2.41914H8.59822C8.66083 2.41914 8.7145 2.3754 8.72742 2.31378L9.18263 0.160017C9.19952 0.0775237 9.13691 0 9.05342 0H6.41662C4.02631 0 2.4977 1.5296 2.4977 3.8086V5.17023H0.596385C0.53377 5.17023 0.480101 5.21396 0.46718 5.27459L0.00303237 7.45519C-0.0148577 7.53768 0.0487502 7.61521 0.132237 7.61521H2.4977V19.5727C2.4977 19.6463 2.55734 19.7059 2.63088 19.7059H5.0043C5.07785 19.7059 5.13748 19.6463 5.13748 19.5727V7.61521H7.49997C7.56258 7.61521 7.61625 7.57148 7.62917 7.50986L8.08935 5.32925C8.10624 5.24676 8.04362 5.16924 7.96014 5.16924H5.13649L5.13748 5.17123Z" fill="var(--fill-0, #131829)"/>
<path id="Vector_4" d="M21.9501 5.18514H19.8719C19.7168 5.18514 19.5906 5.31137 19.5906 5.46641V13.9403C19.5906 15.942 18.0898 17.582 16.0335 17.582C14.0874 17.582 12.7258 16.275 12.7258 13.9403V5.46641C12.7258 5.31137 12.5996 5.18514 12.4445 5.18514H9.49264L9.36344 5.2895L8.90923 7.42239C8.89035 7.52973 8.89631 7.62217 9.04937 7.62217C9.20243 7.62217 10.085 7.63012 10.085 7.63012V14.1063C10.085 17.7748 12.3918 19.9981 15.5047 19.9981C17.0333 19.9981 18.6176 19.3869 19.5906 17.8583H19.7297L19.9971 19.4853C20.019 19.6214 20.1372 19.7208 20.2744 19.7208H21.9501C22.1051 19.7208 22.2314 19.5946 22.2314 19.4396V5.46641C22.2314 5.31137 22.1051 5.18514 21.9501 5.18514Z" fill="var(--fill-0, #131829)"/>
<path id="Vector_5" d="M26.2985 9.07728C26.2985 7.99294 27.1881 7.27038 29.0218 7.27038C30.5623 7.27038 31.3912 7.85876 31.763 8.66779C31.8067 8.76321 31.8961 8.82682 32.0015 8.82682H34.4653C34.5518 8.82682 34.6194 8.74134 34.5985 8.65686C34.0082 6.2099 31.8206 4.9079 29.0218 4.9079C25.6038 4.9079 23.6299 6.85295 23.6299 9.07728C23.6299 14.9144 32.1903 12.4953 32.1903 15.6926C32.1903 16.777 31.273 17.6377 29.0218 17.6377C27.6234 17.6377 26.4506 16.9857 26.0501 15.8974C26.0113 15.793 25.9189 15.7195 25.8075 15.7195H23.3298C23.2433 15.7195 23.1757 15.8039 23.1966 15.8884C23.8078 18.3781 25.9238 19.9992 29.0218 19.9992C32.7191 19.9992 34.8868 18.1376 34.8868 15.6916C34.8868 10.0493 26.2985 12.384 26.2985 9.07628V9.07728Z" fill="var(--fill-0, #131829)"/>
<path id="Vector_6" d="M49.0079 11.884C49.0079 8.43721 46.701 4.9079 42.31 4.9079C38.3354 4.9079 35.5555 7.5765 35.5555 12.4406C35.5555 17.3047 38.3354 20.0002 42.3925 20.0002C45.5889 20.0002 47.7287 18.3046 48.6183 15.7195H45.9626C45.8682 15.7195 45.7817 15.7711 45.73 15.8507C44.9866 17.0175 43.9738 17.6377 42.3925 17.6377C40.0022 17.6377 38.5292 16.1091 38.251 13.3301H48.8677C48.9234 13.0528 49.0069 12.4963 49.0069 11.884H49.0079ZM38.2788 11.1058C38.6127 8.82682 39.9187 7.27038 42.309 7.27038C44.8663 7.27038 46.1445 9.18859 46.3671 11.1058H38.2788Z" fill="var(--fill-0, #131829)"/>
<path id="Vector_7" d="M65.7303 17.6396H65.5931L65.3049 19.2467C65.281 19.3809 65.1647 19.4783 65.0286 19.4783H63.4026C63.2475 19.4783 63.1223 19.3531 63.1223 19.198V0.54664C63.1223 0.391593 63.2475 0.266362 63.4026 0.266362H65.449C65.604 0.266362 65.7293 0.391593 65.7293 0.54664V6.82606H65.8664C66.6894 5.75563 68.1166 4.8492 70.2306 4.8492C73.8255 4.8492 76.4335 7.45618 76.4335 12.2875C76.4335 17.1188 73.8255 19.7526 70.2306 19.7526C68.1723 19.7526 66.6347 18.874 65.7293 17.6396H65.7303ZM73.8275 12.2875C73.8275 8.93907 72.126 7.23653 69.7933 7.23653C67.4606 7.23653 65.7313 8.93907 65.7313 12.2875C65.7313 15.6359 67.4328 17.3653 69.7933 17.3653C72.1538 17.3653 73.8275 15.6628 73.8275 12.2875Z" fill="var(--fill-0, #131829)"/>
<path id="Vector_8" d="M77.6061 19.198V0.54664C77.6061 0.391593 77.7313 0.266362 77.8864 0.266362H79.9318C80.0869 0.266362 80.2121 0.391593 80.2121 0.54664V19.197C80.2121 19.3521 80.0869 19.4773 79.9318 19.4773H77.8864C77.7313 19.4773 77.6061 19.3521 77.6061 19.197V19.198Z" fill="var(--fill-0, #131829)"/>
<path id="Vector_9" d="M94.5332 13.1664H84.0486C84.3229 15.9115 85.777 17.4202 88.1385 17.4202C89.7575 17.4202 90.7733 16.7613 91.5147 15.5259H94.0919C94.1853 15.5259 94.2529 15.6233 94.2201 15.7107C93.3047 18.1587 91.2176 19.7529 88.1385 19.7529C84.1311 19.7529 81.387 17.0902 81.387 12.2877C81.387 7.48526 84.1321 4.84945 88.057 4.84945C92.3933 4.84945 94.6713 8.33504 94.6713 11.7381C94.6713 12.3424 94.5888 12.892 94.5342 13.1664H94.5332ZM92.0624 10.9698C91.8427 9.07648 90.5805 7.18212 88.055 7.18212C85.6945 7.18212 84.4044 8.71868 84.0754 10.9698H92.0624Z" fill="var(--fill-0, #131829)"/>
</g>
</svg>
