<svg preserveAspectRatio="xMidYMid meet"  overflow="visible" style="display: block;" viewBox="0 0 108.58 22.5644" fill="none" xmlns="http://www.w3.org/2000/svg">
<g id="Wordmark">
<path id="Vector" d="M108.58 21.1238C108.58 21.7316 108.146 22.1655 107.537 22.1655C106.928 22.1655 106.494 21.7316 106.494 21.1238C106.494 20.5161 106.928 20.081 107.537 20.081C108.146 20.081 108.58 20.5149 108.58 21.1238ZM108.355 21.1238C108.355 20.6316 108.007 20.2918 107.538 20.2918C107.069 20.2918 106.722 20.6316 106.722 21.1238C106.722 21.6161 107.069 21.9547 107.538 21.9547C108.007 21.9547 108.355 21.6161 108.355 21.1238ZM107.723 21.2651L108.004 21.6598H107.766L107.491 21.2752H107.387V21.6598H107.175V20.5733H107.618C107.863 20.5733 108 20.7179 108 20.9265C108 21.107 107.896 21.2315 107.722 21.2651H107.723ZM107.387 20.7549V21.0947H107.604C107.723 21.0947 107.789 21.042 107.789 20.9254C107.789 20.8087 107.723 20.7549 107.604 20.7549H107.387Z" fill="var(--fill-0, white)"/>
<path id="Vector_2" d="M69.5163 11.3546V21.6685C69.5163 21.8333 69.3828 21.9667 69.218 21.9667H67.3263C67.1794 21.9667 67.055 21.8602 67.0314 21.7167L66.732 19.8945H66.5773C65.9583 20.9463 64.2259 22.2762 61.75 22.2762C58.3165 22.2762 56.1501 20.111 56.1501 17.265C56.1501 14.4191 58.3165 12.2841 62.2759 12.2841H66.5762V11.294C66.5762 9.31374 65.1532 8.1072 63.0496 8.1072C61.3497 8.1072 60.2329 8.85625 59.7776 9.96075C59.7316 10.0729 59.6296 10.148 59.5085 10.148H56.8476C56.7467 10.148 56.6715 10.0482 56.6996 9.95178C57.4935 7.21799 59.726 5.4777 63.081 5.4777C67.1032 5.4777 69.5163 7.73605 69.5163 11.3557V11.3546ZM66.5773 15.6245V14.7275H62.3387C60.142 14.7275 59.0902 15.7176 59.0902 17.172C59.0902 18.6263 60.1734 19.6781 62.0909 19.6781C64.8448 19.6781 66.5773 17.9143 66.5773 15.6257V15.6245Z" fill="var(--fill-0, white)"/>
<path id="Vector_3" d="M5.79617 5.83424V4.51668C5.79617 3.52992 6.59567 2.7293 7.58356 2.7293H9.70061C9.77125 2.7293 9.8318 2.67996 9.84638 2.61044L10.3599 0.180533C10.379 0.0874631 10.3084 0 10.2142 0H7.23931C4.54253 0 2.81794 1.72571 2.81794 4.2969V5.83311H0.672849C0.602205 5.83311 0.541655 5.88245 0.527078 5.95085L0.00342116 8.41103C-0.0167626 8.5041 0.0550006 8.59157 0.149192 8.59157H2.81794V22.0822C2.81794 22.1652 2.88522 22.2324 2.96819 22.2324H5.64591C5.72889 22.2324 5.79617 22.1652 5.79617 22.0822V8.59157H8.46155C8.5322 8.59157 8.59275 8.54223 8.60732 8.47271L9.1265 6.01253C9.14556 5.91946 9.07491 5.83199 8.98072 5.83199H5.79505L5.79617 5.83424Z" fill="var(--fill-0, white)"/>
<path id="Vector_4" d="M24.7644 5.84994H22.4197C22.2447 5.84994 22.1023 5.99234 22.1023 6.16727V15.7277C22.1023 17.986 20.4091 19.8362 18.0891 19.8362C15.8936 19.8362 14.3574 18.3616 14.3574 15.7277V6.16727C14.3574 5.99234 14.215 5.84994 14.04 5.84994H10.7097L10.5639 5.96767L10.0515 8.37403C10.0302 8.49513 10.0369 8.59942 10.2096 8.59942C10.3823 8.59942 11.378 8.60839 11.378 8.60839V15.9149C11.378 20.0537 13.9806 22.5621 17.4926 22.5621C19.2172 22.5621 21.0046 21.8725 22.1023 20.1479H22.2593L22.561 21.9835C22.5856 22.1371 22.7191 22.2493 22.8738 22.2493H24.7644C24.9393 22.2493 25.0817 22.1069 25.0817 21.9319V6.16727C25.0817 5.99234 24.9393 5.84994 24.7644 5.84994Z" fill="var(--fill-0, white)"/>
<path id="Vector_5" d="M29.6703 10.2411C29.6703 9.01773 30.6739 8.20253 32.7427 8.20253C34.4808 8.20253 35.416 8.86635 35.8353 9.77911C35.8847 9.88675 35.9856 9.95852 36.1044 9.95852H38.8842C38.9818 9.95852 39.058 9.86208 39.0345 9.76677C38.3684 7.00608 35.9004 5.53715 32.7427 5.53715C28.8865 5.53715 26.6596 7.73157 26.6596 10.2411C26.6596 16.8266 36.3175 14.0973 36.3175 17.7046C36.3175 18.928 35.2825 19.899 32.7427 19.899C31.165 19.899 29.8419 19.1634 29.39 17.9356C29.3462 17.8179 29.242 17.7349 29.1164 17.7349H26.3209C26.2234 17.7349 26.1471 17.8302 26.1707 17.9255C26.8603 20.7344 29.2476 22.5633 32.7427 22.5633C36.914 22.5633 39.3596 20.4631 39.3596 17.7035C39.3596 11.3377 29.6703 13.9717 29.6703 10.24V10.2411Z" fill="var(--fill-0, white)"/>
<path id="Vector_6" d="M55.2912 13.4077C55.2912 9.51896 52.6887 5.53715 47.7347 5.53715C43.2505 5.53715 40.1141 8.5479 40.1141 14.0356C40.1141 19.5234 43.2505 22.5644 47.8277 22.5644C51.4339 22.5644 53.8481 20.6514 54.8517 17.7349H51.8555C51.749 17.7349 51.6514 17.7932 51.5931 17.8829C50.7544 19.1993 49.6117 19.899 47.8277 19.899C45.1309 19.899 43.4691 18.1744 43.1552 15.0392H55.1331C55.1959 14.7264 55.2901 14.0984 55.2901 13.4077H55.2912ZM43.1866 12.5297C43.5633 9.95852 45.0368 8.20253 47.7335 8.20253C50.6187 8.20253 52.0607 10.3667 52.3119 12.5297H43.1866Z" fill="var(--fill-0, white)"/>
<path id="Vector_7" d="M74.1577 19.9012H74.0029L73.6777 21.7144C73.6508 21.8658 73.5196 21.9757 73.366 21.9757H71.5315C71.3566 21.9757 71.2153 21.8344 71.2153 21.6594V0.616725C71.2153 0.441799 71.3566 0.300513 71.5315 0.300513H73.8403C74.0153 0.300513 74.1565 0.441799 74.1565 0.616725V7.70123H74.3113C75.2397 6.49357 76.85 5.47093 79.235 5.47093C83.2908 5.47093 86.2332 8.41215 86.2332 13.8629C86.2332 19.3136 83.2908 22.2851 79.235 22.2851C76.9127 22.2851 75.1781 21.2939 74.1565 19.9012H74.1577ZM83.2931 13.8629C83.2931 10.0852 81.3734 8.16434 78.7416 8.16434C76.1099 8.16434 74.1588 10.0852 74.1588 13.8629C74.1588 17.6406 76.0785 19.5917 78.7416 19.5917C81.4048 19.5917 83.2931 17.6709 83.2931 13.8629Z" fill="var(--fill-0, white)"/>
<path id="Vector_8" d="M87.5561 21.6594V0.616725C87.5561 0.441799 87.6974 0.300513 87.8723 0.300513H90.18C90.3549 0.300513 90.4962 0.441799 90.4962 0.616725V21.6583C90.4962 21.8333 90.3549 21.9745 90.18 21.9745H87.8723C87.6974 21.9745 87.5561 21.8333 87.5561 21.6583V21.6594Z" fill="var(--fill-0, white)"/>
<path id="Vector_9" d="M106.653 14.8544H94.8246C95.1341 17.9515 96.7746 19.6537 99.4389 19.6537C101.265 19.6537 102.411 18.9102 103.248 17.5164H106.156C106.261 17.5164 106.337 17.6263 106.3 17.725C105.267 20.4868 102.913 22.2854 99.4389 22.2854C94.9177 22.2854 91.8217 19.2814 91.8217 13.8632C91.8217 8.44496 94.9188 5.47121 99.3469 5.47121C104.239 5.47121 106.809 9.40369 106.809 13.2431C106.809 13.9249 106.716 14.5449 106.655 14.8544H106.653ZM103.866 12.3763C103.618 10.2402 102.194 8.10295 99.3447 8.10295C96.6815 8.10295 95.226 9.83652 94.8549 12.3763H103.866Z" fill="var(--fill-0, white)"/>
</g>
</svg>
