<svg preserveAspectRatio="xMidYMid meet"  overflow="visible" style="display: block;" viewBox="0 0 22.5518 22.5563" fill="none" xmlns="http://www.w3.org/2000/svg">
<g id="Icon">
<path id="Vector" d="M4.4494 0C1.99147 0 0 1.99147 0 4.4494V13.0993L2.94908 16.0484V5.01119C2.94908 3.87192 3.87304 2.94908 5.01119 2.94908H11.2233L8.27535 0H4.4494Z" fill="var(--fill-0, white)"/>
<path id="Vector_2" d="M15.4607 21.6674C15.546 21.6674 15.6144 21.599 15.6144 21.5138V18.8809C15.6144 18.7957 15.546 18.7273 15.4607 18.7273H5.62787L8.56798 21.6674H15.4607Z" fill="var(--fill-0, white)"/>
<path id="Vector_3" d="M18.7226 10.4475V15.5685C18.7226 15.6538 18.791 15.7222 18.8763 15.7222H21.5136C21.5988 15.7222 21.6672 15.6538 21.6672 15.5685V13.3921L18.7215 10.4463L18.7226 10.4475Z" fill="var(--fill-0, white)"/>
<path id="Vector_4" d="M0 17.218C0 19.6748 1.99147 21.6674 4.4494 21.6674H8.56914L5.62903 18.7273H5.01231C3.87305 18.7273 2.94908 17.8033 2.94908 16.6641V16.0473L0 13.0994V17.218Z" fill="var(--fill-0, white)"/>
<path id="Vector_5" d="M21.6673 4.4494C21.6673 1.99259 19.6758 0 17.2179 0H8.27423L11.2233 2.94908H16.6595C17.7987 2.94908 18.7227 3.87304 18.7227 5.01231V10.4485L21.6684 13.3942V4.4494H21.6673Z" fill="var(--fill-0, white)"/>
<path id="Vector_6" d="M21.7075 17.8434H18.6833C18.217 17.8434 17.8389 18.2214 17.8389 18.6878V21.712C17.8389 22.1783 18.217 22.5563 18.6833 22.5563H21.7075C22.1738 22.5563 22.5518 22.1783 22.5518 21.712V18.6878C22.5518 18.2214 22.1738 17.8434 21.7075 17.8434Z" fill="var(--fill-0, white)"/>
</g>
</svg>
