<svg preserveAspectRatio="xMidYMid meet"  overflow="visible" style="display: block;" viewBox="0 0 118.8 43.8368" fill="none" xmlns="http://www.w3.org/2000/svg">
<g id="g1">
<path id="path1" d="M6.71388e-06 38.7152L1.66699 31.1999C1.99485 29.7882 2.18617 28.5814 2.35025 27.5787H5.73869L5.49288 29.4012H5.54737C6.77722 27.9661 8.38939 27.3284 10.111 27.3284C12.2427 27.3284 13.1716 28.4672 13.2811 29.4469C14.4833 28.0118 16.1505 27.3284 17.8995 27.3284C19.949 27.3284 21.1511 28.4444 21.1511 30.3346C21.1511 30.7897 21.042 31.6782 20.9326 32.2479L19.4842 38.7152H15.6585L16.9975 32.6349C17.1066 32.2022 17.1887 31.7239 17.1887 31.2913C17.1887 30.5165 16.7788 29.9701 15.877 29.9701C14.5654 29.9701 13.2535 31.4275 12.7345 33.6828L11.6141 38.7152H7.81559L9.20935 32.5892C9.29125 32.1566 9.37357 31.7239 9.37357 31.3369C9.37357 30.5622 9.07265 29.9701 8.11606 29.9701C6.77722 29.9701 5.38346 31.5188 4.91877 33.7053L3.79851 38.7152H6.71388e-06Z" fill="var(--fill-0, white)"/>
<path id="path2" d="M26.588 27.5766L27.4079 32.4277C27.5989 33.5886 27.7356 34.3858 27.8451 35.0924H27.8996C28.2 34.409 28.5008 33.6807 29.0749 32.4733L31.5067 27.5766H35.6605L30.8783 35.5707C29.1018 38.5307 27.517 40.5577 25.7409 41.947C24.1832 43.1769 22.3246 43.7233 21.4504 43.8368L20.5759 41.0359C21.2045 40.8766 22.0788 40.6033 22.8441 40.1475C23.7459 39.624 24.5111 38.9634 25.0303 38.2123C25.1397 38.0529 25.1397 37.9159 25.0851 37.6883L22.4618 27.5766H26.588Z" fill="var(--fill-0, white)"/>
<path id="path3" d="M64.5669 38.7152L68.284 22.5461H72.2185L68.5029 38.7152H64.5669Z" fill="var(--fill-0, white)"/>
<path id="path4" d="M76.8104 38.962C73.3941 38.962 71.126 37.1173 71.126 34.3619C71.126 30.513 74.3507 27.3249 79.1064 27.3249C82.712 27.3249 84.7892 29.3745 84.7892 31.9248C84.7892 35.9788 81.4289 38.962 76.8368 38.962H76.8104ZM77.3293 36.4571C79.4609 36.4571 80.6908 33.838 80.6908 31.9479C80.6908 30.9007 80.1446 29.8303 78.5867 29.8303C76.3179 29.8303 75.1704 32.5632 75.1704 34.2938C75.1704 35.5918 75.9626 36.4571 77.3025 36.4571H77.3293Z" fill="var(--fill-0, white)"/>
<path id="path5" d="M86.1783 40.2614C86.9165 40.6262 88.5288 40.8762 89.6762 40.8762C91.6442 40.8762 93.0918 40.1472 93.6659 37.9155L93.8843 36.9589H93.8299C92.7924 38.0974 91.5894 38.6215 90.0039 38.6215C87.3534 38.6215 85.7403 36.8219 85.7142 34.6362C85.6874 30.9698 88.8565 27.3258 94.6773 27.3258C96.5628 27.3258 98.2028 27.6223 99.6235 28.1006L97.6014 37.2777C97.1362 39.3275 96.3716 41.1494 94.7873 42.2198C93.3378 43.1765 91.3978 43.4718 89.6214 43.4718C87.8183 43.4718 86.1783 43.1986 85.2493 42.7663L86.1783 40.2614ZM95.3598 30.0357C95.0597 29.9227 94.4856 29.8313 93.9391 29.8313C91.5626 29.8313 89.8671 32.0403 89.8671 34.1354C89.8671 35.2739 90.4688 36.0936 91.6718 36.0936C92.9553 36.0936 94.24 34.8862 94.6773 33.0193L95.3598 30.0357Z" fill="var(--fill-0, white)"/>
<path id="path6" d="M99.0541 38.7152L101.595 27.5787H105.504L102.989 38.7152H99.0541ZM104.028 26.1213C102.879 26.1213 102.033 25.4386 102.033 24.4134C102.033 23.2297 103.153 22.4322 104.438 22.4322C105.667 22.4322 106.541 23.0926 106.541 24.1407C106.541 25.3928 105.394 26.1213 104.054 26.1213H104.028Z" fill="var(--fill-0, white)"/>
<path id="path7" d="M105 38.7152L106.694 31.1999C107.022 29.7882 107.241 28.5814 107.405 27.5787H110.876L110.63 29.4237H110.684C111.941 27.9889 113.609 27.3284 115.357 27.3284C117.544 27.3284 118.8 28.4444 118.8 30.3803C118.8 30.8811 118.691 31.7007 118.582 32.2479L117.107 38.7152H113.171L114.564 32.5443C114.647 32.1566 114.702 31.7239 114.702 31.3137C114.702 30.5165 114.374 29.9701 113.362 29.9701C112.078 29.9701 110.602 31.3137 110.028 33.7734L108.935 38.7152H105Z" fill="var(--fill-0, white)"/>
<path id="path8" d="M62.2474 33.0895L65.1318 20.5307L40.5349 14.8823L37.6496 27.4439C37.4672 27.9214 37.3127 28.414 37.1954 28.9243C35.7321 35.2961 40.1007 41.7367 46.9539 43.3102C53.8056 44.8835 60.547 40.995 62.0102 34.6232C62.1271 34.1112 62.2034 33.5992 62.2474 33.0895Z" fill="var(--fill-0, white)"/>
<path id="path9" d="M62.5981 9.0108C61.5196 6.16503 59.1063 4.06 56.1445 3.37974C51.27 2.26027 46.3943 5.31552 45.2748 10.1893C44.9242 11.7157 44.9832 13.2424 45.3795 14.6536L42.0126 13.8803C41.8153 12.4542 41.8662 10.9694 42.2069 9.48477C43.715 2.91869 50.2835 -1.19664 56.8493 0.311447C60.8393 1.22779 64.0885 4.06192 65.5429 7.89356C65.8515 8.70616 65.4418 9.61519 64.6297 9.92359C63.8168 10.232 62.9073 9.82341 62.5981 9.0108Z" fill="var(--fill-0, white)"/>
<path id="path10" d="M56.1578 20.8612H52.1701C51.9585 21.3271 51.6926 21.7454 51.3311 22.0679C50.8873 22.4623 50.3581 22.7774 49.7571 23.0053C49.2183 23.2017 48.5595 23.3417 47.7907 23.4249C47.5424 23.4522 47.294 23.4681 47.046 23.4821L46.6042 25.6632C48.118 25.6632 50.2902 25.6632 50.2902 25.6632L47.2622 36.6674L44.0299 37.4174C43.8961 37.9204 43.7306 38.8248 43.5301 39.58H54.0714C54.2047 39.0769 54.5033 37.4548 54.5033 37.4548L51.8416 36.6674C51.8416 36.6674 55.8171 22.1288 56.1578 20.8612Z" fill="var(--fill-0, #05052C)"/>
</g>
</svg>
