<svg preserveAspectRatio="xMidYMid meet" overflow="visible" style="display: block;" viewBox="0 0 87.0892 32.1349" fill="none" xmlns="http://www.w3.org/2000/svg">
<g id="g1">
<path id="path1" d="M0 28.3788L1.22202 22.8695C1.46236 21.8346 1.60261 20.95 1.72289 20.2149H4.20686L4.02666 21.5509H4.06661C4.96818 20.4989 6.15001 20.0314 7.41209 20.0314C8.97475 20.0314 9.65574 20.8662 9.73595 21.5844C10.6173 20.5324 11.8394 20.0314 13.1216 20.0314C14.624 20.0314 15.5053 20.8495 15.5053 22.2352C15.5053 22.5688 15.4253 23.2202 15.3451 23.6378L14.2833 28.3788H11.4788L12.4604 23.9214C12.5404 23.6043 12.6005 23.2537 12.6005 22.9365C12.6005 22.3686 12.3001 21.968 11.6389 21.968C10.6775 21.968 9.71575 23.0363 9.33526 24.6897L8.51394 28.3788H5.72938L6.7511 23.888C6.81114 23.5708 6.87149 23.2537 6.87149 22.9699C6.87149 22.402 6.65089 21.968 5.94964 21.968C4.96818 21.968 3.94645 23.1033 3.6058 24.7061L2.78457 28.3788H0Z" fill="var(--fill-0, #0E2B58)"/>
<path id="path2" d="M19.4917 20.215L20.0927 23.7711C20.2328 24.6222 20.333 25.2066 20.4132 25.7246H20.4531C20.6734 25.2236 20.8939 24.6897 21.3148 23.8046L23.0975 20.215H26.1425L22.6368 26.0752C21.3345 28.2451 20.1727 29.7311 18.8707 30.7495C17.7288 31.6511 16.3663 32.0516 15.7254 32.1348L15.0844 30.0816C15.5452 29.9648 16.1861 29.7644 16.7472 29.4304C17.4083 29.0466 17.9692 28.5623 18.3498 28.0117C18.43 27.8948 18.43 27.7944 18.3899 27.6276L16.4669 20.215H19.4917Z" fill="var(--fill-0, #0E2B58)"/>
<path id="path3" d="M47.3327 28.3788L50.0577 16.5257H52.9419L50.2181 28.3788H47.3327Z" fill="var(--fill-0, #0E2B58)"/>
<path id="path4" d="M56.3076 28.5623C53.8033 28.5623 52.1406 27.21 52.1406 25.1901C52.1406 22.3686 54.5045 20.0315 57.9908 20.0315C60.634 20.0315 62.1567 21.534 62.1567 23.4035C62.1567 26.3754 59.6933 28.5623 56.327 28.5623H56.3076ZM56.688 26.726C58.2507 26.726 59.1522 24.8061 59.1522 23.4205C59.1522 22.6528 58.7519 21.8682 57.6098 21.8682C55.9466 21.8682 55.1055 23.8716 55.1055 25.1402C55.1055 26.0917 55.6862 26.726 56.6684 26.726H56.688Z" fill="var(--fill-0, #0E2B58)"/>
<path id="path5" d="M63.1746 29.514C63.7157 29.7815 64.8976 29.9648 65.7388 29.9648C67.1815 29.9648 68.2426 29.4303 68.6635 27.7943L68.8236 27.0931H68.7837C68.0232 27.9277 67.1413 28.3119 65.979 28.3119C64.036 28.3119 62.8535 26.9927 62.8343 25.3904C62.8147 22.7027 65.1378 20.0314 69.4049 20.0314C70.7871 20.0314 71.9893 20.2487 73.0308 20.5993L71.5485 27.3268C71.2074 28.8295 70.647 30.1651 69.4855 30.9497C68.423 31.651 67.0008 31.8675 65.6986 31.8675C64.3768 31.8675 63.1746 31.6673 62.4936 31.3503L63.1746 29.514ZM69.9052 22.0179C69.6853 21.935 69.2644 21.8681 68.8638 21.8681C67.1216 21.8681 65.8787 23.4874 65.8787 25.0233C65.8787 25.8579 66.3198 26.4587 67.2017 26.4587C68.1426 26.4587 69.0843 25.5736 69.4049 24.2051L69.9052 22.0179Z" fill="var(--fill-0, #0E2B58)"/>
<path id="path6" d="M72.6136 28.3788L74.4765 20.2149H77.3417L75.4984 28.3788H72.6136ZM76.26 19.1465C75.4177 19.1465 74.7971 18.6461 74.7971 17.8946C74.7971 17.0268 75.6186 16.4422 76.5606 16.4422C77.4616 16.4422 78.1022 16.9263 78.1022 17.6946C78.1022 18.6125 77.2613 19.1465 76.2791 19.1465H76.26Z" fill="var(--fill-0, #0E2B58)"/>
<path id="path7" d="M76.9728 28.3788L78.2146 22.8695C78.4548 21.8346 78.6152 20.95 78.7354 20.2149H81.2797L81.0999 21.5674H81.1392C82.0605 20.5156 83.2831 20.0314 84.5651 20.0314C86.1679 20.0314 87.0891 20.8495 87.0891 22.2687C87.0891 22.6358 87.0091 23.2366 86.929 23.6378L85.8474 28.3788H82.9626L83.9838 23.855C84.0442 23.5708 84.0844 23.2537 84.0844 22.953C84.0844 22.3686 83.8439 21.968 83.1022 21.968C82.161 21.968 81.0794 22.953 80.6585 24.756L79.857 28.3788H76.9728Z" fill="var(--fill-0, #0E2B58)"/>
<path id="path8" d="M45.6327 24.2556L47.7472 15.0492L29.7159 10.9085L27.6008 20.117C27.4671 20.4671 27.3538 20.8282 27.2678 21.2023C26.1951 25.8733 29.3976 30.5946 34.4215 31.7482C39.4443 32.9015 44.3862 30.051 45.4588 25.38C45.5445 25.0046 45.6004 24.6293 45.6327 24.2556Z" fill="var(--fill-0, #00ADEF)"/>
<path id="path9" d="M45.8884 6.60556C45.0978 4.5194 43.3287 2.97627 41.1575 2.47759C37.5841 1.65694 34.0099 3.89665 33.1892 7.46947C32.9322 8.58843 32.9754 9.70762 33.2659 10.7421L30.7978 10.1753C30.6531 9.12982 30.6905 8.04137 30.9403 6.95301C32.0458 2.1396 36.861 -0.877219 41.6742 0.228312C44.5991 0.90006 46.981 2.97767 48.0472 5.78654C48.2734 6.38223 47.973 7.04861 47.3777 7.27469C46.7818 7.50077 46.1151 7.20125 45.8884 6.60556Z" fill="var(--fill-0, #00ADEF)"/>
<path id="path10" d="M41.1679 15.2937H38.2446C38.0895 15.6352 37.8946 15.9419 37.6296 16.1783C37.3043 16.4674 36.9163 16.6984 36.4758 16.8655C36.0808 17.0095 35.5978 17.1121 35.0342 17.1731C34.8522 17.1931 34.6701 17.2047 34.4884 17.215L34.1644 18.8139C35.2742 18.8139 36.8666 18.8139 36.8666 18.8139L34.6468 26.8807L32.2773 27.4306C32.1792 27.7993 32.0579 28.4623 31.9109 29.0159H39.6384C39.7362 28.6471 39.955 27.458 39.955 27.458L38.0039 26.8807C38.0039 26.8807 40.9181 16.2229 41.1679 15.2937Z" fill="var(--fill-0, white)"/>
</g>
</svg>
