<svg preserveAspectRatio="none" width="100%" height="100%" overflow="visible" style="display: block;" viewBox="0 0 32 32" fill="none" xmlns="http://www.w3.org/2000/svg">
<g id="Logomark" opacity="0.84">
<path id="Vector" opacity="0.4" d="M30.5333 14.1583C29.1474 15.5441 26.9005 15.5441 25.5147 14.1583C24.1288 12.7724 24.1288 10.5255 25.5147 9.13965C26.9005 7.7538 29.1474 7.7538 30.5333 9.13965C31.9191 10.5255 31.9191 12.7724 30.5333 14.1583Z" fill="var(--fill-0, white)"/>
<path id="Vector_2" opacity="0.6" d="M30.5303 14.157C29.1444 15.5429 26.8975 15.5429 25.5116 14.157L20.5554 9.20085C19.1696 7.81499 16.9226 7.815 15.5368 9.20085C14.1509 10.5867 14.1509 12.8336 15.5368 14.2195L20.493 19.1757C21.8788 20.5615 24.1258 20.5615 25.5116 19.1757L30.5303 14.157Z" fill="var(--fill-0, white)"/>
<path id="Vector_3" d="M25.5114 19.1768C24.1255 20.5626 21.8786 20.5626 20.4928 19.1768L10.8737 9.55773C9.0259 7.70992 6.03 7.70992 4.18219 9.55773L0 13.7399C1.38586 12.3541 3.63278 12.3541 5.01863 13.7399L15.4741 24.1954C16.86 25.5813 19.1069 25.5813 20.4928 24.1954L25.5114 19.1768Z" fill="var(--fill-0, white)"/>
</g>
</svg>
