<svg preserveAspectRatio="xMidYMid meet" overflow="visible" style="display: block;" viewBox="0 0 17.3516 32" fill="none" xmlns="http://www.w3.org/2000/svg">
<g id="Logomark">
<path id="Vector" fill-rule="evenodd" clip-rule="evenodd" d="M7.35417 3.33333H17.3516V7.17419H13.8175C14.3864 8.21826 14.7097 9.41547 14.7097 10.6882C14.7097 14.7501 11.4168 18.043 7.35484 18.043C3.29287 18.043 0 14.7501 0 10.6882C0 6.62643 3.29251 3.3337 7.35417 3.33333ZM7.35484 14.2022C9.29556 14.2022 10.8688 12.6289 10.8688 10.6882C10.8688 8.74746 9.29556 7.17419 7.35484 7.17419H7.35417C5.41376 7.17456 3.84086 8.74768 3.84086 10.6882C3.84086 12.6289 5.41412 14.2022 7.35484 14.2022Z" fill="var(--fill-0, #079455)"/>
<path id="Vector_2" opacity="0.7" d="M7.35447 28.6665C5.9842 28.6665 4.7424 28.4101 3.62906 27.8973C2.51572 27.406 1.62719 26.7116 0.963467 25.8143C0.321156 24.917 0 23.8914 0 22.7377C0 21.8404 0.128462 21.1033 0.385387 20.5265C0.642311 19.9496 1.0277 19.3941 1.54155 18.86L4.72099 20.9111C4.50688 21.1033 4.34631 21.3277 4.23926 21.584C4.1322 21.8404 4.07868 22.1609 4.07868 22.5455C4.07868 23.2505 4.36772 23.806 4.9458 24.2119C5.5391 24.6348 6.34212 24.8484 7.35484 24.8528C8.36756 24.8484 9.17058 24.6348 9.76388 24.2119C10.342 23.806 10.631 23.2505 10.631 22.5455C10.631 22.1609 10.5775 21.8404 10.4704 21.584C10.3634 21.3277 10.2028 21.1033 9.98869 20.9111L13.1681 18.86C13.682 19.3941 14.0674 19.9496 14.3243 20.5265C14.5812 21.1033 14.7097 21.8404 14.7097 22.7377C14.7097 23.8914 14.3885 24.917 13.7462 25.8143C13.0825 26.7116 12.194 27.406 11.0806 27.8973C9.96728 28.4101 8.72473 28.6665 7.35447 28.6665Z" fill="var(--fill-0, #079455)"/>
</g>
</svg>
