<svg preserveAspectRatio="none" width="100%" height="100%" overflow="visible" style="display: block;" viewBox="0 0 26 32" fill="none" xmlns="http://www.w3.org/2000/svg">
<g id="Logomark" opacity="0.84">
<path id="Vector" fill-rule="evenodd" clip-rule="evenodd" d="M17.7864 1.34259C18.0845 1.18708 18.4407 1.19174 18.7346 1.35498L25.4856 5.10499C25.8031 5.28136 26 5.61602 26 5.97923L25.9995 13.4789C25.9995 13.8515 25.7924 14.1931 25.4621 14.3654L8.21309 23.3652C7.91501 23.5207 7.55873 23.516 7.26483 23.3528L0.51563 19.6028C0.198239 19.4265 0.00137172 19.092 0.00130838 18.7289L1.52984e-08 11.2291C-6.49935e-05 10.8565 0.207059 10.5147 0.537424 10.3423L17.7864 1.34259ZM2.00011 11.835L2.00102 17.0792L17.2502 9.12283L17.2493 3.8787L2.00011 11.835ZM19.2493 3.92873L19.2502 9.14052L23.9996 11.7793L24 6.5676L19.2493 3.92873ZM22.8908 13.4512L18.2354 10.8647L3.11008 18.7564L7.76541 21.3429L22.8908 13.4512Z" fill="var(--fill-0, white)"/>
<path id="Vector_2" opacity="0.5" fill-rule="evenodd" clip-rule="evenodd" d="M8.21355 30.8657C7.91551 31.0212 7.55927 31.0166 7.26539 30.8533L0.514415 27.1033C0.1969 26.927 -2.00853e-05 26.5923 2.83462e-06 26.2291L0.000468883 18.7294C0.000491804 18.3569 0.207602 18.0152 0.537891 17.8429L17.7869 8.84313C18.085 8.68761 18.4413 8.69228 18.7352 8.85557L25.4844 12.6055C25.8018 12.7818 25.9986 13.1164 25.9987 13.4795L26 20.9792C26.0001 21.3519 25.7929 21.6936 25.4626 21.866L8.21355 30.8657ZM23.9999 20.3733L23.999 15.1292L8.74978 23.0855L8.75069 28.3296L23.9999 20.3733ZM6.75068 28.2796L6.74977 23.0678L2.00036 20.429L2.00004 25.6407L6.75068 28.2796ZM3.10924 18.7571L7.76457 21.3437L22.8899 13.452L18.2346 10.8654L3.10924 18.7571Z" fill="var(--fill-0, white)"/>
</g>
</svg>
