<svg preserveAspectRatio="none" width="100%" height="100%" overflow="visible" style="display: block;" viewBox="0 0 99.3333 32" fill="none" xmlns="http://www.w3.org/2000/svg">
<g id="Logotext" opacity="0.84">
<g id="Vector">
<path d="M10.71 17.986C10.71 20.452 8.73 22.18 5.49 22.18C2.232 22.18 0.198 20.434 0 17.698H2.772C2.844 19.12 3.762 20.038 5.436 20.038C6.822 20.038 7.812 19.426 7.812 18.382C7.812 17.572 7.182 17.086 6.084 16.87L3.96 16.456C1.998 16.078 0.486 15.016 0.486 12.874C0.486 10.57 2.52 8.91398 5.31 8.91398C8.208 8.91398 10.332 10.606 10.512 13.306H7.74C7.65 11.956 6.714 11.038 5.346 11.038C4.014 11.038 3.258 11.794 3.258 12.694C3.258 13.576 4.068 13.954 5.004 14.134L7.218 14.584C9.486 15.034 10.71 16.078 10.71 17.986Z" fill="var(--fill-0, white)"/>
<path d="M17.8379 19.57V21.748C17.2259 22.054 16.6499 22.18 15.9119 22.18C13.9319 22.18 12.6899 21.046 12.6899 18.886V14.53H10.7459V12.388H12.6899V9.54398H15.1739V12.388H17.9279V14.53H15.1739V18.31C15.1739 19.426 15.6779 19.876 16.5779 19.876C17.0459 19.876 17.4779 19.768 17.8379 19.57Z" fill="var(--fill-0, white)"/>
<path d="M24.4596 22V20.812C23.8296 21.712 22.8756 22.18 21.5616 22.18C19.5636 22.18 18.2316 21.01 18.2316 19.21C18.2316 17.338 19.7436 16.33 22.5516 16.33C23.0916 16.33 23.5596 16.366 24.1536 16.438V15.862C24.1536 14.782 23.5416 14.152 22.4976 14.152C21.4176 14.152 20.7696 14.782 20.6796 15.862H18.4296C18.5736 13.648 20.1756 12.208 22.4976 12.208C25.0176 12.208 26.4936 13.594 26.4936 15.952V22H24.4596ZM20.5896 19.138C20.5896 19.948 21.1656 20.452 22.1016 20.452C23.3796 20.452 24.1536 19.75 24.1536 18.634V17.95C23.5596 17.86 23.1456 17.824 22.7136 17.824C21.2916 17.824 20.5896 18.274 20.5896 19.138Z" fill="var(--fill-0, white)"/>
<path d="M31.9797 22.18C29.2077 22.18 27.2997 20.128 27.2997 17.194C27.2997 14.314 29.2797 12.208 31.9797 12.208C34.4817 12.208 36.3357 13.9 36.6417 16.492H34.0137C33.8877 15.214 33.1137 14.422 31.9797 14.422C30.6837 14.422 29.8557 15.484 29.8557 17.194C29.8557 18.922 30.6657 19.966 31.9797 19.966C33.1317 19.966 33.8697 19.21 34.0137 17.896H36.6417C36.3537 20.542 34.5537 22.18 31.9797 22.18Z" fill="var(--fill-0, white)"/>
<path d="M40.03 22H37.528V9.07598H40.03V16.456L43.54 12.388H46.42L42.442 16.996L46.888 22H43.702L40.03 17.536V22Z" fill="var(--fill-0, white)"/>
<path d="M56.3584 17.194C56.3584 14.35 58.0324 12.208 60.6244 12.208C61.7764 12.208 62.7484 12.712 63.4684 13.63V9.07598H65.9524V22H63.6664V20.614C62.9104 21.622 61.8664 22.18 60.6244 22.18C58.0324 22.18 56.3584 20.002 56.3584 17.194ZM58.9324 17.194C58.9324 18.994 59.9584 19.948 61.1824 19.948C62.4244 19.948 63.4504 18.976 63.4504 17.158C63.4504 15.34 62.4064 14.422 61.1824 14.422C59.9584 14.422 58.9324 15.358 58.9324 17.194Z" fill="var(--fill-0, white)"/>
<path d="M79.0754 22H70.7234V9.07598H73.4594V19.534H79.0754V22Z" fill="var(--fill-0, white)"/>
<path d="M85.7419 22V20.812C85.1119 21.712 84.1579 22.18 82.8439 22.18C80.8459 22.18 79.5139 21.01 79.5139 19.21C79.5139 17.338 81.0259 16.33 83.8339 16.33C84.3739 16.33 84.8419 16.366 85.4359 16.438V15.862C85.4359 14.782 84.8239 14.152 83.7799 14.152C82.6999 14.152 82.0519 14.782 81.9619 15.862H79.7119C79.8559 13.648 81.4579 12.208 83.7799 12.208C86.2999 12.208 87.7759 13.594 87.7759 15.952V22H85.7419ZM81.8719 19.138C81.8719 19.948 82.4479 20.452 83.3839 20.452C84.6619 20.452 85.4359 19.75 85.4359 18.634V17.95C84.8419 17.86 84.4279 17.824 83.9959 17.824C82.5739 17.824 81.8719 18.274 81.8719 19.138Z" fill="var(--fill-0, white)"/>
<path d="M98.8059 17.194C98.8059 20.002 97.1319 22.18 94.5399 22.18C93.2979 22.18 92.2539 21.622 91.5159 20.614V22H89.2119V9.07598H91.7139V13.63C92.4159 12.694 93.3879 12.208 94.5399 12.208C97.1319 12.208 98.8059 14.35 98.8059 17.194ZM96.2319 17.194C96.2319 15.358 95.2059 14.422 93.9819 14.422C92.7759 14.422 91.7319 15.34 91.7319 17.158C91.7319 18.976 92.7399 19.948 93.9819 19.948C95.2059 19.948 96.2319 18.994 96.2319 17.194Z" fill="var(--fill-0, white)"/>
<path d="M51.4598 22.162C54.0878 22.162 55.9418 20.614 55.9598 18.418H53.5298C53.4578 19.516 52.6658 20.182 51.4238 20.182C50.1278 20.182 49.3718 19.534 49.3718 18.454C49.3718 17.392 50.2538 16.762 51.7478 16.762H53.0618V14.782H51.8918C50.6678 14.782 49.9298 14.17 49.9298 13.18C49.9298 12.226 50.5598 11.632 51.6038 11.632C52.6298 11.632 53.2778 12.28 53.2958 13.342H55.7258C55.7078 11.236 53.8718 9.65198 51.4778 9.65198C48.9218 9.65198 47.3558 11.038 47.3558 13C47.3558 14.116 48.0038 14.998 49.1738 15.61C47.6618 16.096 46.7978 17.068 46.7978 18.382C46.7978 20.632 48.6698 22.162 51.4598 22.162Z" fill="var(--fill-0, white)"/>
</g>
</g>
</svg>
