<svg preserveAspectRatio="none" width="100%" height="100%" overflow="visible" style="display: block;" viewBox="0 0 95.5 32" fill="none" xmlns="http://www.w3.org/2000/svg">
<g id="Logotext" opacity="0.84">
<g id="Vector">
<path d="M3.14133 7.61328H0V22.1666H3.14133V7.61328Z" fill="white"/>
<path d="M7.8316 8.27995H4.83427V22.1666H7.8316V18.4468L11.7383 22.1666H15.7899L10.0266 16.7554L15.4919 12.4733H11.2782L7.8316 15.2441V8.27995Z" fill="white"/>
<path d="M55.541 7.61328H52.3997V22.1666H63.461V19.3853H55.541V7.61328Z" fill="white"/>
<path fill-rule="evenodd" clip-rule="evenodd" d="M78.1659 8.27995H75.1686V22.1666H78.3577L78.2457 21.3478C78.9519 22.0885 79.9224 22.4546 81.1492 22.4546C81.9531 22.4546 82.6897 22.2484 83.3333 21.7941C83.973 21.3426 84.4587 20.7237 84.8111 19.9446C85.1639 19.1646 85.3479 18.2768 85.3479 17.2839C85.3479 16.3261 85.1636 15.4564 84.8111 14.6773C84.4579 13.8966 83.9716 13.2963 83.3334 12.8458L83.3306 12.8439C82.6905 12.4109 81.9558 12.1853 81.1492 12.1853C79.8756 12.1853 78.8781 12.5799 78.1659 13.3787V8.27995ZM78.74 15.5177C79.1216 15.0532 79.6139 14.8226 80.2312 14.8226C80.8293 14.8226 81.3242 15.0525 81.7257 15.5036C82.1272 15.9726 82.3326 16.5619 82.3326 17.3019C82.3326 18.0611 82.1266 18.6506 81.7247 19.1195C81.3235 19.5876 80.8292 19.8173 80.2312 19.8173C79.6139 19.8173 79.1216 19.5867 78.74 19.1221L78.7378 19.1195C78.3376 18.6527 78.1479 18.0644 78.1479 17.3019C78.1479 16.5766 78.3371 15.9879 78.7378 15.5204L78.74 15.5177Z" fill="white"/>
<path d="M17.3418 7.97328C16.797 7.97328 16.3596 8.15034 16.0033 8.48678L15.9999 8.4901C15.6439 8.84609 15.4651 9.2848 15.4651 9.79595C15.4651 10.3412 15.6426 10.7805 15.9999 11.1378C16.3603 11.4982 16.8014 11.6546 17.3418 11.6546C17.8699 11.6546 18.309 11.4765 18.6656 11.1198C19.0223 10.7631 19.2004 10.3241 19.2004 9.79595C19.2004 9.2848 19.0217 8.84605 18.6657 8.49005L18.6622 8.48678C18.3066 8.15095 17.8694 7.97328 17.3418 7.97328Z" fill="white"/>
<path d="M44.3565 7.97328C43.8118 7.97328 43.3743 8.15034 43.0181 8.48678L43.0147 8.4901C42.6587 8.84609 42.4799 9.2848 42.4799 9.79595C42.4799 10.3412 42.6574 10.7805 43.0147 11.1378C43.3751 11.4982 43.8162 11.6546 44.3565 11.6546C44.8847 11.6546 45.3237 11.4765 45.6804 11.1198C46.037 10.7631 46.2152 10.3241 46.2152 9.79595C46.2152 9.2848 46.0364 8.84605 45.6804 8.49005L45.677 8.48678C45.3214 8.15095 44.8842 7.97328 44.3565 7.97328Z" fill="white"/>
<path fill-rule="evenodd" clip-rule="evenodd" d="M24.2951 12.1853C23.4709 12.1853 22.7362 12.4106 22.0957 12.8439L22.093 12.8458C21.4569 13.2948 20.951 13.8944 20.6146 14.6788C20.2613 15.4603 20.0964 16.3482 20.0964 17.3379C20.0964 18.3102 20.2615 19.1632 20.6158 19.9099C20.9522 20.6567 21.4409 21.2224 22.082 21.6188C22.7255 22.0347 23.4598 22.2206 24.2951 22.2206C25.5612 22.2206 26.5578 21.8714 27.2604 21.1558V21.3699C27.2604 22.2205 27.0995 22.7983 26.7817 23.1478L26.7793 23.1506C26.4612 23.5165 25.9749 23.7053 25.2851 23.7053C24.7055 23.7053 24.2691 23.617 23.9434 23.4379C23.6283 23.2646 23.448 23.0058 23.4171 22.6515L23.4039 22.4993H20.388L20.403 22.6798C20.4964 23.801 20.9489 24.6604 21.7885 25.2331C22.6023 25.8006 23.7396 26.0546 25.1591 26.0546C26.828 26.0546 28.1132 25.6765 28.9815 24.8862C29.8529 24.0932 30.2758 22.9118 30.2758 21.3699V12.4733H27.0683L27.1792 13.2618C26.4838 12.5479 25.5161 12.1853 24.2951 12.1853ZM23.6836 15.4124C24.0844 14.9449 24.5783 14.7146 25.1951 14.7146C25.7926 14.7146 26.2864 14.9439 26.6875 15.4111C27.0724 15.8805 27.2784 16.4888 27.2784 17.2299C27.2784 17.9893 27.0724 18.5782 26.6894 19.0285C26.2902 19.4769 25.7964 19.6913 25.1951 19.6913C24.5555 19.6913 24.065 19.4755 23.686 19.0141L23.6817 19.0092C23.2836 18.5614 23.0938 17.9747 23.0938 17.2299C23.0938 16.4849 23.2838 15.8789 23.6836 15.4124Z" fill="white"/>
<path fill-rule="evenodd" clip-rule="evenodd" d="M35.6358 12.1853C34.8116 12.1853 34.0769 12.4106 33.4364 12.8439L33.4337 12.8458C32.7977 13.2947 32.292 13.8942 31.9555 14.6602C31.6023 15.4414 31.4371 16.3112 31.4371 17.2839C31.4371 18.2737 31.602 19.1616 31.9553 19.9431C32.291 20.7259 32.7962 21.3441 33.4337 21.7941C34.0776 22.2486 34.8143 22.4546 35.6358 22.4546C36.8544 22.4546 37.8223 22.1058 38.5184 21.3858L38.4081 22.1666H41.6165V12.4733H38.4081L38.5207 13.2704C37.8152 12.5515 36.8479 12.1853 35.6358 12.1853ZM34.4345 17.3019C34.4345 16.5586 34.6236 15.9705 35.0234 15.5035C35.4243 15.053 35.919 14.8226 36.5358 14.8226C37.1333 14.8226 37.6278 15.052 38.0291 15.5023C38.4141 15.9721 38.6191 16.5625 38.6191 17.3019C38.6191 18.0605 38.4134 18.6511 38.0282 19.1208C37.6271 19.588 37.1333 19.8173 36.5358 19.8173C35.919 19.8173 35.4251 19.587 35.0244 19.1195C34.6242 18.6527 34.4345 18.0644 34.4345 17.3019Z" fill="white"/>
<path fill-rule="evenodd" clip-rule="evenodd" d="M67.9465 12.1853C67.1223 12.1853 66.3876 12.4106 65.7471 12.8439L65.7444 12.8458C65.1084 13.2947 64.6027 13.8942 64.2662 14.6602C63.913 15.4414 63.7478 16.3112 63.7478 17.2839C63.7478 18.2737 63.9127 19.1615 64.2659 19.943C64.6017 20.7258 65.1069 21.3441 65.7444 21.7941C66.3883 22.2486 67.125 22.4546 67.9465 22.4546C69.166 22.4546 70.1345 22.1053 70.8307 21.3842L70.7219 22.1666H73.9272V12.4733H70.7219L70.8329 13.2719C70.1273 12.552 69.1595 12.1853 67.9465 12.1853ZM66.7452 17.3019C66.7452 16.5586 66.9343 15.9706 67.334 15.5036C67.735 15.0531 68.2297 14.8226 68.8465 14.8226C69.444 14.8226 69.9385 15.052 70.3398 15.5022C70.7247 15.9721 70.9298 16.5625 70.9298 17.3019C70.9298 18.0606 70.7241 18.6512 70.3388 19.1209C69.9378 19.588 69.4439 19.8173 68.8465 19.8173C68.2297 19.8173 67.7358 19.587 67.335 19.1195C66.9349 18.6527 66.7452 18.0644 66.7452 17.3019Z" fill="white"/>
<path d="M90.9269 12.1853C89.537 12.1853 88.4209 12.4778 87.593 13.0422L87.5909 13.0437C86.754 13.6333 86.3502 14.4405 86.3502 15.4299C86.3502 16.1769 86.5372 16.7801 86.9336 17.2161C87.3154 17.6361 87.7927 17.9221 88.3251 18.0742C88.8395 18.2212 89.4959 18.3485 90.292 18.457C91.0396 18.5639 91.5666 18.6874 91.9123 18.808C92.0711 18.872 92.1766 18.9504 92.2429 19.0381C92.3081 19.1245 92.3442 19.232 92.3442 19.3719C92.3442 19.5888 92.2245 19.7969 91.9609 19.9946C91.7141 20.1797 91.3601 20.2673 90.8909 20.2673C90.3385 20.2673 89.9069 20.1465 89.5825 19.9194C89.263 19.6958 89.0956 19.4028 89.0956 19.0119V18.8453H86.1133L86.1162 19.0149C86.1351 20.0908 86.5728 20.951 87.4274 21.5591C88.2578 22.1628 89.3947 22.4546 90.8189 22.4546C92.1889 22.4546 93.2886 22.1809 94.1003 21.6146C94.9164 21.0452 95.3416 20.2754 95.3416 19.2819C95.3416 18.4977 95.1358 17.877 94.7402 17.4418L94.7374 17.4389C94.3416 17.0242 93.8666 16.7188 93.3307 16.5657L93.3292 16.5653C92.7998 16.4192 92.1265 16.2737 91.3274 16.1647L91.3215 16.1641C90.605 16.0925 90.0857 15.9861 89.7676 15.8522L89.7605 15.8496C89.6129 15.7952 89.5172 15.7225 89.4575 15.6403C89.3984 15.5588 89.3656 15.4552 89.3656 15.3219C89.3656 15.0507 89.4666 14.8304 89.712 14.646C89.9443 14.4758 90.2835 14.3726 90.7649 14.3726C91.2707 14.3726 91.6462 14.506 91.9365 14.7303C92.2023 14.9667 92.3478 15.2827 92.3808 15.6952L92.393 15.8486H95.3568L95.3409 15.6674C95.2473 14.6003 94.8137 13.7462 94.0179 13.1209C93.2258 12.4985 92.1966 12.1853 90.9269 12.1853Z" fill="white"/>
<path d="M18.8404 12.4733H15.8251V22.1666H18.8404V12.4733Z" fill="white"/>
<path d="M45.8552 12.4733H42.8399V22.1666H45.8552V12.4733Z" fill="white"/>
</g>
</g>
</svg>
