<svg preserveAspectRatio="none" width="100%" height="100%" overflow="visible" style="display: block;" viewBox="0 0 94 32" fill="none" xmlns="http://www.w3.org/2000/svg">
<g id="Logotext" opacity="0.84">
<g id="Vector">
<path d="M10.908 21.9999L8.496 12.9639L6.084 21.9999H3.312L0 9.07588H2.664L4.752 17.8419L7.128 9.07588H9.918L12.222 17.8779L14.328 9.07588H17.01L13.68 21.9999H10.908Z" fill="var(--fill-0, white)"/>
<path d="M20.5151 10.1559C20.5151 11.0019 19.8311 11.6319 18.8411 11.6319C17.8691 11.6319 17.1851 11.0019 17.1851 10.1559C17.1851 9.27388 17.8691 8.64388 18.8411 8.64388C19.8311 8.64388 20.5151 9.27388 20.5151 10.1559ZM20.1191 21.9999H17.6171V12.3879H20.1191V21.9999Z" fill="var(--fill-0, white)"/>
<path d="M24.1456 21.9999H21.6256V9.07588H24.1456V21.9999Z" fill="var(--fill-0, white)"/>
<path d="M25.0393 17.1939C25.0393 14.3499 26.7133 12.2079 29.3053 12.2079C30.4573 12.2079 31.4293 12.7119 32.1493 13.6299V9.07588H34.6333V21.9999H32.3473V20.6139C31.5913 21.6219 30.5473 22.1799 29.3053 22.1799C26.7133 22.1799 25.0393 20.0019 25.0393 17.1939ZM27.6133 17.1939C27.6133 18.9939 28.6393 19.9479 29.8633 19.9479C31.1053 19.9479 32.1313 18.9759 32.1313 17.1579C32.1313 15.3399 31.0873 14.4219 29.8633 14.4219C28.6393 14.4219 27.6133 15.3579 27.6133 17.1939Z" fill="var(--fill-0, white)"/>
<path d="M40.1965 22.1799C37.4245 22.1799 35.5165 20.1279 35.5165 17.1939C35.5165 14.3139 37.4965 12.2079 40.1965 12.2079C42.6985 12.2079 44.5525 13.8999 44.8585 16.4919H42.2305C42.1045 15.2139 41.3305 14.4219 40.1965 14.4219C38.9005 14.4219 38.0725 15.4839 38.0725 17.1939C38.0725 18.9219 38.8825 19.9659 40.1965 19.9659C41.3485 19.9659 42.0865 19.2099 42.2305 17.8959H44.8585C44.5705 20.5419 42.7705 22.1799 40.1965 22.1799Z" fill="var(--fill-0, white)"/>
<path d="M48.2469 17.3379V21.9999H45.7449V12.3879H48.0489V14.2419C48.7509 13.0179 50.2449 12.2799 51.7929 12.2799V14.8719C49.6689 14.7099 48.2469 15.2139 48.2469 17.3379Z" fill="var(--fill-0, white)"/>
<path d="M58.0965 21.9999V20.8119C57.4665 21.7119 56.5125 22.1799 55.1985 22.1799C53.2005 22.1799 51.8685 21.0099 51.8685 19.2099C51.8685 17.3379 53.3805 16.3299 56.1885 16.3299C56.7285 16.3299 57.1965 16.3659 57.7905 16.4379V15.8619C57.7905 14.7819 57.1785 14.1519 56.1345 14.1519C55.0545 14.1519 54.4065 14.7819 54.3165 15.8619H52.0665C52.2105 13.6479 53.8125 12.2079 56.1345 12.2079C58.6545 12.2079 60.1305 13.5939 60.1305 15.9519V21.9999H58.0965ZM54.2265 19.1379C54.2265 19.9479 54.8025 20.4519 55.7385 20.4519C57.0165 20.4519 57.7905 19.7499 57.7905 18.6339V17.9499C57.1965 17.8599 56.7825 17.8239 56.3505 17.8239C54.9285 17.8239 54.2265 18.2739 54.2265 19.1379Z" fill="var(--fill-0, white)"/>
<path d="M64.828 21.9999H62.344V14.5299H60.4V12.3879H62.344V11.8659C62.344 9.95788 63.37 8.87788 65.368 8.87788C65.98 8.87788 66.502 8.98588 66.916 9.16588V11.1459C66.646 11.0379 66.286 10.9839 65.962 10.9839C65.278 10.9839 64.828 11.2539 64.828 11.9199V12.3879H67.33V14.5299H64.828V21.9999Z" fill="var(--fill-0, white)"/>
<path d="M74.3812 19.5699V21.7479C73.7692 22.0539 73.1932 22.1799 72.4552 22.1799C70.4752 22.1799 69.2332 21.0459 69.2332 18.8859V14.5299H67.2892V12.3879H69.2332V9.54388H71.7172V12.3879H74.4712V14.5299H71.7172V18.3099C71.7172 19.4259 72.2212 19.8759 73.1212 19.8759C73.5892 19.8759 74.0212 19.7679 74.3812 19.5699Z" fill="var(--fill-0, white)"/>
<path d="M79.244 22.1619C76.364 22.1619 74.438 20.1639 74.438 17.1579C74.438 14.2959 76.436 12.2079 79.208 12.2079C82.25 12.2079 84.266 14.6739 83.816 17.8059H76.994C77.156 19.3719 77.912 20.2359 79.19 20.2359C80.288 20.2359 81.026 19.6959 81.314 18.7419H83.798C83.258 20.9199 81.584 22.1619 79.244 22.1619ZM79.154 14.0439C77.984 14.0439 77.246 14.7999 77.03 16.2219H81.17C81.098 14.8899 80.342 14.0439 79.154 14.0439Z" fill="var(--fill-0, white)"/>
<path d="M83.9661 17.1939C83.9661 14.3499 85.6401 12.2079 88.2321 12.2079C89.3841 12.2079 90.3561 12.7119 91.0761 13.6299V9.07588H93.5601V21.9999H91.2741V20.6139C90.5181 21.6219 89.4741 22.1799 88.2321 22.1799C85.6401 22.1799 83.9661 20.0019 83.9661 17.1939ZM86.5401 17.1939C86.5401 18.9939 87.5661 19.9479 88.7901 19.9479C90.0321 19.9479 91.0581 18.9759 91.0581 17.1579C91.0581 15.3399 90.0141 14.4219 88.7901 14.4219C87.5661 14.4219 86.5401 15.3579 86.5401 17.1939Z" fill="var(--fill-0, white)"/>
</g>
</g>
</svg>
