<svg preserveAspectRatio="xMidYMid meet" overflow="visible" style="display: block;" viewBox="0 0 24 32" fill="none" xmlns="http://www.w3.org/2000/svg">
<g id="Logomark">
<path id="Vector" fill-rule="evenodd" clip-rule="evenodd" d="M5.33333 4C2.38781 4 0 6.38781 0 9.33333V22.6667C0 25.6122 2.38781 28 5.33333 28H18.6667C21.6122 28 24 25.6122 24 22.6667V9.33333C24 6.38781 21.6122 4 18.6667 4H5.33333ZM5.33333 7.33333C4.22876 7.33333 3.33333 8.22876 3.33333 9.33333V22.6667C3.33333 23.7712 4.22876 24.6667 5.33333 24.6667H10C11.1046 24.6667 12 23.7712 12 22.6667V9.33333C12 8.22876 11.1046 7.33333 10 7.33333H5.33333Z" fill="var(--fill-0, #5925DC)"/>
</g>
</svg>
