<svg preserveAspectRatio="none" width="100%" height="100%" overflow="visible" style="display: block;" viewBox="0 0 99.3333 32" fill="none" xmlns="http://www.w3.org/2000/svg">
<g id="Logotext" opacity="0.84">
<g id="Vector">
<path d="M0 22V8H5.18C6.3 8 7.22667 8.18667 7.96 8.56C8.69333 8.93333 9.24 9.44667 9.6 10.1C9.96 10.7533 10.14 11.4867 10.14 12.3C10.14 13.0733 9.96667 13.7867 9.62 14.44C9.27333 15.08 8.73333 15.6 8 16C7.26667 16.3867 6.32667 16.58 5.18 16.58H2.56V22H0ZM2.56 14.5H5.02C5.91333 14.5 6.55333 14.3067 6.94 13.92C7.34 13.52 7.54 12.98 7.54 12.3C7.54 11.6067 7.34 11.0667 6.94 10.68C6.55333 10.28 5.91333 10.08 5.02 10.08H2.56V14.5Z" fill="white"/>
<path d="M15.1406 22.24C14.1806 22.24 13.314 22.02 12.5406 21.58C11.7806 21.14 11.174 20.5333 10.7206 19.76C10.2806 18.9733 10.0606 18.0667 10.0606 17.04C10.0606 16.0133 10.2873 15.1133 10.7406 14.34C11.194 13.5533 11.8006 12.94 12.5606 12.5C13.334 12.06 14.2006 11.84 15.1606 11.84C16.1073 11.84 16.9606 12.06 17.7206 12.5C18.494 12.94 19.1006 13.5533 19.5406 14.34C19.994 15.1133 20.2206 16.0133 20.2206 17.04C20.2206 18.0667 19.994 18.9733 19.5406 19.76C19.1006 20.5333 18.494 21.14 17.7206 21.58C16.9473 22.02 16.0873 22.24 15.1406 22.24ZM15.1406 20.02C15.8073 20.02 16.3873 19.7733 16.8806 19.28C17.374 18.7733 17.6206 18.0267 17.6206 17.04C17.6206 16.0533 17.374 15.3133 16.8806 14.82C16.3873 14.3133 15.814 14.06 15.1606 14.06C14.4806 14.06 13.894 14.3133 13.4006 14.82C12.9206 15.3133 12.6806 16.0533 12.6806 17.04C12.6806 18.0267 12.9206 18.7733 13.4006 19.28C13.894 19.7733 14.474 20.02 15.1406 20.02Z" fill="white"/>
<path d="M22.898 22L19.998 12.08H22.538L24.258 19.22L26.258 12.08H29.098L31.098 19.22L32.838 12.08H35.378L32.458 22H29.798L27.678 14.58L25.558 22H22.898Z" fill="white"/>
<path d="M40.2616 22.24C39.2616 22.24 38.3749 22.0267 37.6016 21.6C36.8282 21.1733 36.2216 20.5733 35.7816 19.8C35.3416 19.0267 35.1216 18.1333 35.1216 17.12C35.1216 16.0933 35.3349 15.18 35.7616 14.38C36.2016 13.58 36.8016 12.96 37.5616 12.52C38.3349 12.0667 39.2416 11.84 40.2816 11.84C41.2549 11.84 42.1149 12.0533 42.8616 12.48C43.6082 12.9067 44.1882 13.4933 44.6016 14.24C45.0282 14.9733 45.2416 15.7933 45.2416 16.7C45.2416 16.8467 45.2349 17 45.2216 17.16C45.2216 17.32 45.2149 17.4867 45.2016 17.66H37.6616C37.7149 18.4333 37.9816 19.04 38.4616 19.48C38.9549 19.92 39.5482 20.14 40.2416 20.14C40.7616 20.14 41.1949 20.0267 41.5416 19.8C41.9016 19.56 42.1682 19.2533 42.3416 18.88H44.9416C44.7549 19.5067 44.4416 20.08 44.0016 20.6C43.5749 21.1067 43.0416 21.5067 42.4016 21.8C41.7749 22.0933 41.0616 22.24 40.2616 22.24ZM40.2816 13.92C39.6549 13.92 39.1016 14.1 38.6216 14.46C38.1416 14.8067 37.8349 15.34 37.7016 16.06H42.6416C42.6016 15.4067 42.3616 14.8867 41.9216 14.5C41.4816 14.1133 40.9349 13.92 40.2816 13.92Z" fill="white"/>
<path d="M46.1947 22V12.08H48.4747L48.7147 13.94C49.0747 13.3 49.5614 12.7933 50.1747 12.42C50.8014 12.0333 51.5347 11.84 52.3747 11.84V14.54H51.6547C51.0947 14.54 50.5947 14.6267 50.1547 14.8C49.7147 14.9733 49.368 15.2733 49.1147 15.7C48.8747 16.1267 48.7547 16.72 48.7547 17.48V22H46.1947Z" fill="white"/>
<path d="M57.0244 22.24C56.1444 22.24 55.371 22.1 54.7044 21.82C54.0377 21.5267 53.5044 21.1267 53.1044 20.62C52.7044 20.1133 52.4644 19.5267 52.3844 18.86H54.9644C55.0444 19.2467 55.2577 19.58 55.6044 19.86C55.9644 20.1267 56.4244 20.26 56.9844 20.26C57.5444 20.26 57.951 20.1467 58.2044 19.92C58.471 19.6933 58.6044 19.4333 58.6044 19.14C58.6044 18.7133 58.4177 18.4267 58.0444 18.28C57.671 18.12 57.151 17.9667 56.4844 17.82C56.0577 17.7267 55.6244 17.6133 55.1844 17.48C54.7444 17.3467 54.3377 17.18 53.9644 16.98C53.6044 16.7667 53.311 16.5 53.0844 16.18C52.8577 15.8467 52.7444 15.44 52.7444 14.96C52.7444 14.08 53.091 13.34 53.7844 12.74C54.491 12.14 55.4777 11.84 56.7444 11.84C57.9177 11.84 58.851 12.1133 59.5444 12.66C60.251 13.2067 60.671 13.96 60.8044 14.92H58.3844C58.2377 14.1867 57.6844 13.82 56.7244 13.82C56.2444 13.82 55.871 13.9133 55.6044 14.1C55.351 14.2867 55.2244 14.52 55.2244 14.8C55.2244 15.0933 55.4177 15.3267 55.8044 15.5C56.191 15.6733 56.7044 15.8333 57.3444 15.98C58.0377 16.14 58.671 16.32 59.2444 16.52C59.831 16.7067 60.2977 16.9933 60.6444 17.38C60.991 17.7533 61.1644 18.2933 61.1644 19C61.1777 19.6133 61.0177 20.1667 60.6844 20.66C60.351 21.1533 59.871 21.54 59.2444 21.82C58.6177 22.1 57.8777 22.24 57.0244 22.24Z" fill="white"/>
<path d="M65.9522 22.24C64.7122 22.24 63.7522 21.8533 63.0722 21.08C62.4055 20.3067 62.0722 19.1733 62.0722 17.68V12.08H64.6122V17.44C64.6122 18.2933 64.7855 18.9467 65.1322 19.4C65.4789 19.8533 66.0255 20.08 66.7722 20.08C67.4789 20.08 68.0589 19.8267 68.5122 19.32C68.9789 18.8133 69.2122 18.1067 69.2122 17.2V12.08H71.7722V22H69.5122L69.3122 20.32C69.0055 20.9067 68.5589 21.3733 67.9722 21.72C67.3989 22.0667 66.7255 22.24 65.9522 22.24Z" fill="white"/>
<path d="M73.2002 22V12.08H75.4802L75.7202 13.94C76.0802 13.3 76.5668 12.7933 77.1802 12.42C77.8068 12.0333 78.5402 11.84 79.3802 11.84V14.54H78.6602C78.1002 14.54 77.6002 14.6267 77.1602 14.8C76.7202 14.9733 76.3735 15.2733 76.1202 15.7C75.8802 16.1267 75.7602 16.72 75.7602 17.48V22H73.2002Z" fill="white"/>
<path d="M83.8955 19.04C83.4155 19.04 82.9688 18.9867 82.5555 18.88L81.8155 19.62C82.0421 19.74 82.3488 19.84 82.7355 19.92C83.1221 20 83.7488 20.08 84.6155 20.16C85.9355 20.28 86.8955 20.5933 87.4955 21.1C88.0955 21.6067 88.3955 22.3067 88.3955 23.2C88.3955 23.7867 88.2355 24.34 87.9155 24.86C87.5955 25.3933 87.1021 25.82 86.4355 26.14C85.7688 26.4733 84.9155 26.64 83.8755 26.64C82.4621 26.64 81.3221 26.3733 80.4555 25.84C79.5888 25.32 79.1555 24.5333 79.1555 23.48C79.1555 22.5867 79.5888 21.8133 80.4555 21.16C80.1888 21.04 79.9555 20.9133 79.7555 20.78C79.5688 20.6467 79.4021 20.5067 79.2555 20.36V19.9L80.9955 18.06C80.2221 17.38 79.8355 16.5067 79.8355 15.44C79.8355 14.7733 79.9955 14.1667 80.3155 13.62C80.6488 13.0733 81.1155 12.64 81.7155 12.32C82.3155 12 83.0421 11.84 83.8955 11.84C84.4555 11.84 84.9755 11.92 85.4555 12.08H89.2155V13.64L87.5155 13.76C87.7821 14.2667 87.9155 14.8267 87.9155 15.44C87.9155 16.1067 87.7555 16.7133 87.4355 17.26C87.1155 17.8067 86.6488 18.24 86.0355 18.56C85.4355 18.88 84.7221 19.04 83.8955 19.04ZM83.8955 17.08C84.4155 17.08 84.8421 16.94 85.1755 16.66C85.5221 16.38 85.6955 15.98 85.6955 15.46C85.6955 14.94 85.5221 14.54 85.1755 14.26C84.8421 13.98 84.4155 13.84 83.8955 13.84C83.3488 13.84 82.9088 13.98 82.5755 14.26C82.2421 14.54 82.0755 14.94 82.0755 15.46C82.0755 15.98 82.2421 16.38 82.5755 16.66C82.9088 16.94 83.3488 17.08 83.8955 17.08ZM81.4955 23.22C81.4955 23.7133 81.7221 24.08 82.1755 24.32C82.6421 24.5733 83.2088 24.7 83.8755 24.7C84.5155 24.7 85.0355 24.5667 85.4355 24.3C85.8355 24.0467 86.0355 23.7 86.0355 23.26C86.0355 22.9 85.9021 22.6 85.6355 22.36C85.3821 22.12 84.8688 21.9733 84.0955 21.92C83.5488 21.88 83.0421 21.82 82.5755 21.74C82.1888 21.9533 81.9088 22.1867 81.7355 22.44C81.5755 22.6933 81.4955 22.9533 81.4955 23.22Z" fill="white"/>
<path d="M94.3116 22.24C93.3116 22.24 92.4249 22.0267 91.6516 21.6C90.8782 21.1733 90.2716 20.5733 89.8316 19.8C89.3916 19.0267 89.1716 18.1333 89.1716 17.12C89.1716 16.0933 89.3849 15.18 89.8116 14.38C90.2516 13.58 90.8516 12.96 91.6116 12.52C92.3849 12.0667 93.2916 11.84 94.3316 11.84C95.3049 11.84 96.1649 12.0533 96.9116 12.48C97.6582 12.9067 98.2382 13.4933 98.6516 14.24C99.0782 14.9733 99.2916 15.7933 99.2916 16.7C99.2916 16.8467 99.2849 17 99.2716 17.16C99.2716 17.32 99.2649 17.4867 99.2516 17.66H91.7116C91.7649 18.4333 92.0316 19.04 92.5116 19.48C93.0049 19.92 93.5982 20.14 94.2916 20.14C94.8116 20.14 95.2449 20.0267 95.5916 19.8C95.9516 19.56 96.2182 19.2533 96.3916 18.88H98.9916C98.8049 19.5067 98.4916 20.08 98.0516 20.6C97.6249 21.1067 97.0916 21.5067 96.4516 21.8C95.8249 22.0933 95.1116 22.24 94.3116 22.24ZM94.3316 13.92C93.7049 13.92 93.1516 14.1 92.6716 14.46C92.1916 14.8067 91.8849 15.34 91.7516 16.06H96.6916C96.6516 15.4067 96.4116 14.8867 95.9716 14.5C95.5316 14.1133 94.9849 13.92 94.3316 13.92Z" fill="white"/>
</g>
</g>
</svg>
