<svg preserveAspectRatio="none" width="100%" height="100%" overflow="visible" style="display: block;" viewBox="0 0 77.3333 32" fill="none" xmlns="http://www.w3.org/2000/svg">
<g id="Logotext" opacity="0.84">
<g id="Vector">
<path fill-rule="evenodd" clip-rule="evenodd" d="M37.0253 21.5706C37.6973 21.9813 38.4627 22.1866 39.3213 22.1866C39.9436 22.1866 40.5098 22.0621 41.02 21.8133C41.2885 21.6757 41.5312 21.5158 41.748 21.3334V21.9999H44.548V8.44792H41.692V13.5169C41.4848 13.3536 41.2545 13.2133 41.0013 13.0959C40.5036 12.8595 39.9436 12.7413 39.3213 12.7413C38.4627 12.7413 37.6973 12.9466 37.0253 13.3573C36.3658 13.7679 35.8431 14.3279 35.4573 15.0373C35.084 15.7466 34.8973 16.5555 34.8973 17.4639C34.8973 18.3724 35.084 19.1813 35.4573 19.8906C35.8431 20.5999 36.3658 21.1599 37.0253 21.5706ZM40.8893 19.3493C40.5907 19.5235 40.236 19.6106 39.8253 19.6106C39.4396 19.6106 39.0911 19.5173 38.78 19.3306C38.4689 19.1439 38.2262 18.8888 38.052 18.5653C37.8778 18.2417 37.7907 17.8746 37.7907 17.4639C37.7907 17.0533 37.8778 16.6861 38.052 16.3626C38.2387 16.039 38.4813 15.7839 38.78 15.5973C39.0911 15.4106 39.4458 15.3173 39.844 15.3173C40.2422 15.3173 40.5907 15.4106 40.8893 15.5973C41.2004 15.7839 41.4369 16.039 41.5987 16.3626C41.7729 16.6737 41.86 17.0408 41.86 17.4639C41.86 17.887 41.7729 18.2604 41.5987 18.5839C41.4244 18.9075 41.188 19.1626 40.8893 19.3493Z" fill="var(--fill-0, white)"/>
<path d="M4.18133 21.6826C5.02756 22.031 5.92978 22.2053 6.888 22.2053C8.19467 22.2053 9.34578 21.9315 10.3413 21.3839C11.3493 20.8364 12.1333 20.0275 12.6933 18.9573C13.2658 17.8746 13.552 16.543 13.552 14.9626V14.5333H6.62667V17.0159L10.4128 17.076C10.3402 17.3503 10.2417 17.604 10.1173 17.8373C9.83111 18.3848 9.41422 18.8079 8.86667 19.1066C8.33156 19.3928 7.67822 19.5359 6.90667 19.5359C6.14756 19.5359 5.47556 19.3617 4.89067 19.0133C4.30578 18.6648 3.84533 18.1795 3.50933 17.5573C3.17333 16.935 3.00533 16.2133 3.00533 15.3919C3.00533 14.5706 3.17333 13.855 3.50933 13.2453C3.85778 12.623 4.33689 12.1439 4.94667 11.8079C5.55644 11.4595 6.24711 11.2853 7.01867 11.2853C7.74045 11.2853 8.38756 11.4221 8.96 11.6959C9.53244 11.9697 10.0302 12.3804 10.4533 12.9279L12.4507 10.9306C11.8409 10.2088 11.0693 9.64258 10.136 9.23192C9.21511 8.82125 8.18845 8.61592 7.056 8.61592C6.07289 8.61592 5.152 8.79014 4.29333 9.13858C3.43467 9.47458 2.68178 9.95369 2.03467 10.5759C1.4 11.1857 0.902222 11.9013 0.541333 12.7226C0.180444 13.5439 0 14.4337 0 15.3919C0 16.3501 0.174222 17.2461 0.522667 18.0799C0.883556 18.9013 1.37511 19.623 1.99733 20.2453C2.61956 20.855 3.34756 21.3341 4.18133 21.6826Z" fill="var(--fill-0, white)"/>
<path fill-rule="evenodd" clip-rule="evenodd" d="M16.5229 21.5893C17.282 21.9999 18.1283 22.2053 19.0616 22.2053C20.0074 22.2053 20.8536 21.9999 21.6003 21.5893C22.3469 21.1661 22.938 20.5937 23.3736 19.8719C23.8091 19.1501 24.0269 18.3413 24.0269 17.4453C24.0269 16.5493 23.8091 15.7466 23.3736 15.0373C22.938 14.3155 22.3469 13.7493 21.6003 13.3386C20.8536 12.9279 20.0074 12.7226 19.0616 12.7226C18.1158 12.7226 17.2696 12.9341 16.5229 13.3573C15.7763 13.7679 15.1851 14.3279 14.7496 15.0373C14.314 15.7466 14.0963 16.5493 14.0963 17.4453C14.0963 18.3413 14.314 19.1501 14.7496 19.8719C15.1851 20.5937 15.7763 21.1661 16.5229 21.5893ZM20.1443 19.3493C19.8331 19.5235 19.4723 19.6106 19.0616 19.6106C18.6634 19.6106 18.3087 19.5235 17.9976 19.3493C17.6865 19.1626 17.4438 18.9075 17.2696 18.5839C17.0954 18.2479 17.0083 17.8746 17.0083 17.4639C17.0083 17.0408 17.0954 16.6675 17.2696 16.3439C17.4438 16.0204 17.6865 15.7715 17.9976 15.5973C18.3087 15.4106 18.6634 15.3173 19.0616 15.3173C19.4723 15.3173 19.8269 15.4106 20.1256 15.5973C20.4367 15.7715 20.6794 16.0204 20.8536 16.3439C21.0278 16.655 21.1149 17.0221 21.1149 17.4453C21.1149 17.8684 21.0278 18.2479 20.8536 18.5839C20.6918 18.9075 20.4554 19.1626 20.1443 19.3493Z" fill="var(--fill-0, white)"/>
<path fill-rule="evenodd" clip-rule="evenodd" d="M29.4435 22.2053C28.5101 22.2053 27.6639 21.9999 26.9048 21.5893C26.1581 21.1661 25.567 20.5937 25.1315 19.8719C24.6959 19.1501 24.4781 18.3413 24.4781 17.4453C24.4781 16.5493 24.6959 15.7466 25.1315 15.0373C25.567 14.3279 26.1581 13.7679 26.9048 13.3573C27.6515 12.9341 28.4977 12.7226 29.4435 12.7226C30.3892 12.7226 31.2355 12.9279 31.9821 13.3386C32.7288 13.7493 33.3199 14.3155 33.7555 15.0373C34.191 15.7466 34.4088 16.5493 34.4088 17.4453C34.4088 18.3413 34.191 19.1501 33.7555 19.8719C33.3199 20.5937 32.7288 21.1661 31.9821 21.5893C31.2355 21.9999 30.3892 22.2053 29.4435 22.2053ZM29.4435 19.6106C29.8541 19.6106 30.215 19.5235 30.5261 19.3493C30.8372 19.1626 31.0737 18.9075 31.2355 18.5839C31.4097 18.2479 31.4968 17.8684 31.4968 17.4453C31.4968 17.0221 31.4097 16.655 31.2355 16.3439C31.0612 16.0204 30.8186 15.7715 30.5075 15.5973C30.2088 15.4106 29.8541 15.3173 29.4435 15.3173C29.0452 15.3173 28.6906 15.4106 28.3795 15.5973C28.0683 15.7715 27.8257 16.0204 27.6515 16.3439C27.4772 16.6675 27.3901 17.0408 27.3901 17.4639C27.3901 17.8746 27.4772 18.2479 27.6515 18.5839C27.8257 18.9075 28.0683 19.1626 28.3795 19.3493C28.6906 19.5235 29.0452 19.6106 29.4435 19.6106Z" fill="var(--fill-0, white)"/>
<path d="M52.5105 16.7732L50.7216 21.9999H48.4069L45.2709 12.9279H48.0709L49.6245 18.2012L51.3376 12.9279H53.6522L55.3743 18.1833L56.9376 12.9279H59.7376L56.6016 21.9999H54.2682L52.5105 16.7732Z" fill="var(--fill-0, white)"/>
<path fill-rule="evenodd" clip-rule="evenodd" d="M62.1902 21.5893C62.9617 21.9999 63.8515 22.2053 64.8595 22.2053C65.6435 22.2053 66.3529 22.0746 66.9875 21.8133C67.6346 21.5395 68.2009 21.135 68.6862 20.5999L67.1182 19.0319C66.832 19.3555 66.5084 19.5981 66.1475 19.7599C65.7991 19.9093 65.4009 19.9839 64.9529 19.9839C64.6576 19.9839 64.3812 19.9464 64.1234 19.8714L68.7982 15.3546C68.4373 14.5084 67.9084 13.8613 67.2115 13.4133C66.5146 12.9528 65.6684 12.7226 64.6729 12.7226C63.7271 12.7226 62.8746 12.9341 62.1155 13.3573C61.3689 13.7679 60.7777 14.3279 60.3422 15.0373C59.9191 15.7466 59.7075 16.5493 59.7075 17.4453C59.7075 18.3413 59.9253 19.1501 60.3609 19.8719C60.8088 20.5937 61.4186 21.1661 62.1902 21.5893ZM65.8884 15.299L62.5657 18.4977C62.4273 18.1565 62.3582 17.7745 62.3582 17.3519C62.3582 16.879 62.4515 16.4684 62.6382 16.1199C62.8249 15.759 63.0924 15.4853 63.4409 15.2986C63.7893 15.0995 64.2062 14.9999 64.6915 14.9999C65.1846 14.9999 65.5836 15.0996 65.8884 15.299Z" fill="var(--fill-0, white)"/>
<path d="M69.7201 21.9999V8.44792H72.5761V21.9999H69.7201Z" fill="var(--fill-0, white)"/>
<path d="M74.214 8.44792V21.9999H77.07V8.44792H74.214Z" fill="var(--fill-0, white)"/>
</g>
</g>
</svg>
