<svg preserveAspectRatio="none" width="100%" height="100%" overflow="visible" style="display: block;" viewBox="0 0 118 32" fill="none" xmlns="http://www.w3.org/2000/svg">
<g id="Logotext" opacity="0.84">
<g id="Vector">
<path d="M5.742 22.3059C2.322 22.3059 0.072 20.7939 0 17.9499H3.204C3.348 19.2459 4.194 19.7859 5.724 19.7859C6.768 19.7859 7.794 19.4079 7.794 18.4359C7.794 17.4099 6.75 17.1939 4.986 16.7619C2.754 16.2399 0.396 15.5559 0.396 12.8559C0.396 10.1019 2.628 8.89592 5.508 8.89592C8.298 8.89592 10.458 10.1559 10.584 12.8559H7.47C7.344 11.8659 6.588 11.3079 5.4 11.3079C4.284 11.3079 3.546 11.7939 3.546 12.5139C3.546 13.4139 4.536 13.6299 6.462 14.0619C8.856 14.6199 11.016 15.3579 11.016 18.1119C11.016 20.8119 8.712 22.3059 5.742 22.3059Z" fill="var(--fill-0, white)"/>
<path d="M16.7269 20.1999C18.0049 20.1999 18.6889 19.0839 18.6889 17.4099C18.6889 15.7359 18.0049 14.6019 16.7269 14.6019C15.4489 14.6019 14.7829 15.7359 14.7829 17.4099C14.7829 19.0839 15.4489 20.1999 16.7269 20.1999ZM16.7449 22.2879C13.7929 22.2879 11.8129 20.1819 11.8129 17.4099C11.8129 14.6379 13.7929 12.5319 16.7449 12.5319C19.7149 12.5319 21.6589 14.6379 21.6589 17.4099C21.6589 20.1819 19.7149 22.2879 16.7449 22.2879Z" fill="var(--fill-0, white)"/>
<path d="M22.6688 21.9999V9.12992H25.6388V21.9999H22.6688Z" fill="var(--fill-0, white)"/>
<path d="M29.7629 22.2339C27.9269 22.2339 26.6309 21.2619 26.6309 19.4439C26.6309 17.4099 28.2509 16.7799 30.1589 16.5279C31.8869 16.3119 32.4989 16.1319 32.4989 15.5019C32.4989 14.9079 32.1029 14.5119 31.2029 14.5119C30.2489 14.5119 29.7989 14.9259 29.7269 15.6999H27.0269C27.0809 13.9899 28.3769 12.5319 31.1849 12.5319C32.5889 12.5319 33.6689 12.8379 34.3529 13.3959C35.0549 13.9899 35.3789 14.7639 35.3789 15.9159V19.5339C35.3789 20.1279 35.5409 20.2719 35.9909 20.1999H36.0449V21.9099C35.8109 22.0179 35.3609 22.1619 34.7669 22.1619C33.5069 22.1619 32.8589 21.7839 32.6429 20.9199H32.6249C32.0849 21.6759 31.2569 22.2339 29.7629 22.2339ZM30.7169 20.3619C31.8149 20.3619 32.5709 19.6959 32.5709 18.7059V17.6079C32.1929 17.8239 31.6529 17.9679 31.0589 18.0939C29.9249 18.3459 29.4569 18.6339 29.4569 19.3359C29.4569 20.0559 29.9969 20.3619 30.7169 20.3619Z" fill="var(--fill-0, white)"/>
<path d="M36.8011 21.9999V12.7839H39.7733L39.6091 14.2239H39.6631C40.3111 13.1259 41.0671 12.6399 42.1831 12.6399C42.4531 12.6399 42.6331 12.6579 42.7591 12.7119V15.2319H42.6871C40.8871 14.9799 39.7351 15.8619 39.7351 17.8599V21.9999H36.8011Z" fill="var(--fill-0, white)"/>
<path d="M43.6918 21.9999V12.7839H46.6258V21.9999H43.6918Z" fill="var(--fill-0, white)"/>
<path d="M51.9576 22.2879C49.2576 22.2879 47.5656 21.0459 47.4756 19.0119H50.2476C50.3556 19.9299 50.9676 20.3799 51.9396 20.3799C52.8216 20.3799 53.3796 20.0559 53.3796 19.4619C53.3796 18.6339 52.2636 18.5439 51.0396 18.3279C49.4376 18.0579 47.7276 17.6259 47.7276 15.4659C47.7276 13.5219 49.5276 12.5139 51.7056 12.5139C54.3156 12.5139 55.7196 13.6479 55.8636 15.4659H53.1636C53.0556 14.6379 52.4976 14.3859 51.6876 14.3859C50.9676 14.3859 50.4096 14.6559 50.4096 15.2319C50.4096 15.8799 51.4536 15.9699 52.6236 16.1859C54.2436 16.4559 56.1516 16.8699 56.1516 19.2279C56.1516 21.2439 54.3696 22.2879 51.9576 22.2879Z" fill="var(--fill-0, white)"/>
<path d="M60.0788 21.9999V9.12992H69.8348V11.7579H63.2648V14.0619H68.8988V16.5459H63.2648V19.2999H69.9428V21.9999H60.0788Z" fill="var(--fill-0, white)"/>
<path d="M71.2015 21.9999V12.7839H74.1933L74.0275 14.0439H74.0815C74.7655 13.0539 75.6475 12.5139 76.9255 12.5139C78.9415 12.5139 80.1295 13.9539 80.1295 16.0059V21.9999H77.1955V16.5999C77.1955 15.6279 76.7095 14.9619 75.7555 14.9619C74.7835 14.9619 74.1355 15.7719 74.1355 16.9059V21.9999H71.2015Z" fill="var(--fill-0, white)"/>
<path d="M85.9672 22.2699C82.9252 22.2699 81.0532 20.1639 81.0532 17.3739C81.0532 14.6199 82.9792 12.5139 85.7872 12.5139C87.1012 12.5139 88.1452 12.9459 88.9372 13.6659C90.0352 14.6739 90.5752 16.2759 90.5572 18.1479H83.9332C84.1132 19.3899 84.7972 20.1639 86.0032 20.1639C86.7772 20.1639 87.2812 19.8219 87.5332 19.2459H90.3952C90.1972 20.0739 89.6572 20.8659 88.8472 21.4239C88.0732 21.9639 87.1372 22.2699 85.9672 22.2699ZM83.9512 16.4019H87.5872C87.4792 15.3039 86.7952 14.6019 85.8412 14.6019C84.7252 14.6019 84.1492 15.3039 83.9512 16.4019Z" fill="var(--fill-0, white)"/>
<path d="M91.5394 21.9999V12.7839H94.5133L94.3474 14.2239H94.4014C95.0494 13.1259 95.8054 12.6399 96.9214 12.6399C97.1914 12.6399 97.3714 12.6579 97.4974 12.7119V15.2319H97.4254C95.6254 14.9799 94.4734 15.8619 94.4734 17.8599V21.9999H91.5394Z" fill="var(--fill-0, white)"/>
<path d="M102.538 25.1859C100 25.1859 98.3263 24.1419 98.0383 22.2159H100.882C101.044 22.7019 101.53 23.1159 102.502 23.1159C103.744 23.1159 104.266 22.4679 104.266 21.3519V20.4339H104.194C103.654 21.0459 102.952 21.4959 101.836 21.4959C99.7663 21.4959 97.8403 19.9479 97.8403 17.1219C97.8403 14.4219 99.4243 12.5139 101.71 12.5139C102.934 12.5139 103.762 12.9999 104.302 13.7739H104.338L104.173 12.7839H107.146V21.0999C107.146 22.4859 106.66 23.4939 105.922 24.1599C105.112 24.8799 103.906 25.1859 102.538 25.1859ZM102.52 19.3179C103.798 19.3179 104.392 18.3099 104.392 17.0139C104.392 15.7719 103.744 14.7279 102.52 14.7279C101.422 14.7279 100.702 15.6279 100.702 17.0319C100.702 18.4179 101.422 19.3179 102.52 19.3179Z" fill="var(--fill-0, white)"/>
<path d="M108.861 25.0419V22.7559H109.869C110.733 22.7559 111.075 22.4139 111.075 21.7839C111.075 21.3879 110.895 20.8479 110.517 19.8759L107.799 12.7839H110.895L112.137 16.7079C112.425 17.6079 112.713 18.8319 112.713 18.8319H112.749C112.749 18.8319 113.001 17.6079 113.289 16.7079L114.495 12.7839H117.429L114.243 22.1259C113.505 24.2859 112.623 25.0419 110.769 25.0419H108.861Z" fill="var(--fill-0, white)"/>
<path d="M45.1584 11.5059C44.2383 11.5059 43.4917 10.76 43.4917 9.83986C43.4917 8.91973 44.2383 8.17383 45.1584 8.17383C46.0785 8.17383 46.8251 8.91973 46.8251 9.83986C46.8251 10.76 46.0785 11.5059 45.1584 11.5059Z" fill="var(--fill-0, white)"/>
</g>
</g>
</svg>
