<svg preserveAspectRatio="none" width="100%" height="100%" overflow="visible" style="display: block;" viewBox="0 0 26.6667 27.5556" fill="none" xmlns="http://www.w3.org/2000/svg">
<path id="Icon" d="M13.3333 11.3333V6.66667M13.3333 16H13.3467M10.5333 22.9333L12.48 25.5289C12.7695 25.9149 12.9142 26.1079 13.0917 26.1769C13.2471 26.2373 13.4196 26.2373 13.575 26.1769C13.7524 26.1079 13.8972 25.9149 14.1867 25.5289L16.1333 22.9333C16.5242 22.4122 16.7196 22.1516 16.958 21.9527C17.2758 21.6874 17.6511 21.4998 18.054 21.4047C18.3562 21.3333 18.6819 21.3333 19.3333 21.3333C21.1971 21.3333 22.129 21.3333 22.8641 21.0289C23.8442 20.6229 24.6229 19.8442 25.0289 18.8641C25.3333 18.129 25.3333 17.1971 25.3333 15.3333V7.73334C25.3333 5.49312 25.3333 4.37302 24.8974 3.51737C24.5139 2.76472 23.9019 2.1528 23.1493 1.76931C22.2936 1.33333 21.1735 1.33333 18.9333 1.33333H7.73334C5.49312 1.33333 4.37302 1.33333 3.51737 1.76931C2.76472 2.1528 2.1528 2.76472 1.76931 3.51737C1.33333 4.37302 1.33333 5.49312 1.33333 7.73333V15.3333C1.33333 17.1971 1.33333 18.129 1.63782 18.8641C2.04379 19.8442 2.82249 20.6229 3.8026 21.0289C4.53769 21.3333 5.46957 21.3333 7.33333 21.3333C7.98477 21.3333 8.31049 21.3333 8.61268 21.4047C9.01559 21.4998 9.39082 21.6874 9.70866 21.9527C9.94704 22.1516 10.1425 22.4122 10.5333 22.9333Z" stroke="var(--stroke-0, black)" stroke-width="2.66667" stroke-linecap="round" stroke-linejoin="round"/>
</svg>
