<svg preserveAspectRatio="none" width="100%" height="100%" overflow="visible" style="display: block;" viewBox="0 0 35 36.1667" fill="none" xmlns="http://www.w3.org/2000/svg">
<path id="Icon" d="M17.5 14.875V8.75M17.5 21H17.5175M13.825 30.1L16.38 33.5067C16.76 34.0133 16.9499 34.2666 17.1828 34.3572C17.3868 34.4365 17.6132 34.4365 17.8172 34.3572C18.0501 34.2666 18.24 34.0133 18.62 33.5067L21.175 30.1C21.688 29.416 21.9445 29.074 22.2574 28.8129C22.6745 28.4647 23.167 28.2185 23.6959 28.0936C24.0925 28 24.52 28 25.375 28C27.8212 28 29.0443 28 30.0091 27.6004C31.2955 27.0675 32.3175 26.0455 32.8504 24.7591C33.25 23.7943 33.25 22.5712 33.25 20.125V10.15C33.25 7.20973 33.25 5.73959 32.6778 4.61655C32.1745 3.6287 31.3713 2.82555 30.3835 2.32222C29.2604 1.75 27.7903 1.75 24.85 1.75H10.15C7.20973 1.75 5.73959 1.75 4.61655 2.32222C3.6287 2.82555 2.82555 3.6287 2.32222 4.61655C1.75 5.73959 1.75 7.20973 1.75 10.15V20.125C1.75 22.5712 1.75 23.7943 2.14963 24.7591C2.68248 26.0455 3.70452 27.0675 4.99091 27.6004C5.95571 28 7.17881 28 9.625 28C10.48 28 10.9075 28 11.3041 28.0936C11.833 28.2185 12.3255 28.4647 12.7426 28.8129C13.0555 29.074 13.312 29.416 13.825 30.1Z" stroke="var(--stroke-0, white)" stroke-width="3.5" stroke-linecap="round" stroke-linejoin="round"/>
</svg>
