<svg preserveAspectRatio="none" width="100%" height="100%" overflow="visible" style="display: block;" viewBox="0 0 36.25 36.25" fill="none" xmlns="http://www.w3.org/2000/svg">
<path id="Icon" d="M19 3.25H26.35C29.2903 3.25 30.7604 3.25 31.8834 3.82222C32.8713 4.32555 33.6744 5.1287 34.1778 6.11655C34.75 7.23959 34.75 8.70972 34.75 11.65V26.35C34.75 29.2903 34.75 30.7604 34.1778 31.8834C33.6744 32.8713 32.8713 33.6744 31.8834 34.1778C30.7604 34.75 29.2903 34.75 26.35 34.75H11.65C8.70972 34.75 7.23959 34.75 6.11655 34.1778C5.1287 33.6744 4.32555 32.8713 3.82222 31.8834C3.25 30.7604 3.25 29.2903 3.25 26.35V19M12 20.75V27.75M26 17.25V27.75M19 10.25V27.75M1.5 6.75L6.75 1.5M6.75 1.5L12 6.75M6.75 1.5L6.75 12" stroke="var(--stroke-0, white)" stroke-width="3" stroke-linecap="round" stroke-linejoin="round"/>
</svg>
