<svg preserveAspectRatio="none" width="100%" height="100%" overflow="visible" style="display: block;" viewBox="0 0 26.5003 29.1668" fill="none" xmlns="http://www.w3.org/2000/svg">
<path id="Icon" d="M9.25015 6.58335V12.5849C9.25015 13.3195 9.25015 13.6868 9.15858 14.0272C9.07745 14.3287 8.94398 14.6137 8.76425 14.8691C8.5614 15.1573 8.27925 15.3924 7.71494 15.8627L2.78536 19.9707C2.22105 20.4409 1.9389 20.6761 1.73605 20.9643C1.55632 21.2197 1.42285 21.5046 1.34172 21.8062C1.25015 22.1466 1.25015 22.5138 1.25015 23.2484V23.65C1.25015 25.1435 1.25015 25.8902 1.5408 26.4607C1.79646 26.9624 2.20441 27.3704 2.70618 27.626C3.27661 27.9167 4.02334 27.9167 5.51682 27.9167H20.9835C22.477 27.9167 23.2237 27.9167 23.7941 27.626C24.2959 27.3704 24.7038 26.9624 24.9595 26.4607C25.2502 25.8902 25.2502 25.1435 25.2502 23.65V23.2484C25.2502 22.5138 25.2502 22.1466 25.1586 21.8062C25.0774 21.5046 24.944 21.2197 24.7642 20.9643C24.5614 20.6761 24.2792 20.4409 23.7149 19.9707L18.7854 15.8627C18.2211 15.3924 17.9389 15.1573 17.7361 14.8691C17.5563 14.6137 17.4229 14.3287 17.3417 14.0272C17.2502 13.6868 17.2502 13.3195 17.2502 12.5849V6.58335M8.31682 6.58335H18.1835C18.5569 6.58335 18.7435 6.58335 18.8861 6.51068C19.0116 6.44677 19.1136 6.34478 19.1775 6.21934C19.2502 6.07673 19.2502 5.89005 19.2502 5.51668V2.31668C19.2502 1.94331 19.2502 1.75663 19.1775 1.61402C19.1136 1.48858 19.0116 1.38659 18.8861 1.32268C18.7435 1.25001 18.5569 1.25001 18.1835 1.25001H8.31682C7.94345 1.25001 7.75676 1.25001 7.61416 1.32268C7.48871 1.38659 7.38673 1.48858 7.32281 1.61402C7.25015 1.75663 7.25015 1.94331 7.25015 2.31668V5.51668C7.25015 5.89005 7.25015 6.07673 7.32281 6.21934C7.38673 6.34478 7.48871 6.44677 7.61416 6.51068C7.75676 6.58335 7.94345 6.58335 8.31682 6.58335ZM4.58348 21.25H21.9168C22.5364 21.25 22.8461 21.25 23.1037 21.3013C24.1616 21.5117 24.9885 22.3386 25.1989 23.3964C25.2502 23.654 25.2502 23.9638 25.2502 24.5833C25.2502 25.2029 25.2502 25.5127 25.1989 25.7703C24.9885 26.8281 24.1616 27.655 23.1037 27.8654C22.8461 27.9167 22.5364 27.9167 21.9168 27.9167H4.58348C3.96394 27.9167 3.65417 27.9167 3.39658 27.8654C2.33873 27.655 1.51181 26.8281 1.30139 25.7703C1.25015 25.5127 1.25015 25.2029 1.25015 24.5833C1.25015 23.9638 1.25015 23.654 1.30139 23.3964C1.51181 22.3386 2.33873 21.5117 3.39658 21.3013C3.65417 21.25 3.96394 21.25 4.58348 21.25Z" stroke="var(--stroke-0, white)" stroke-width="2.5" stroke-linecap="round" stroke-linejoin="round"/>
</svg>
