<svg preserveAspectRatio="none" width="100%" height="100%" overflow="visible" style="display: block;" viewBox="0 0 29.3333 26.6667" fill="none" xmlns="http://www.w3.org/2000/svg">
<path id="Icon" d="M13.3333 12H6.93333C5.43986 12 4.69312 12 4.12269 12.2907C3.62093 12.5463 3.21298 12.9543 2.95732 13.456C2.66667 14.0265 2.66667 14.7732 2.66667 16.2667V25.3333M26.6667 25.3333V5.6C26.6667 4.10653 26.6667 3.35979 26.376 2.78936C26.1204 2.2876 25.7124 1.87965 25.2106 1.62398C24.6402 1.33334 23.8935 1.33334 22.4 1.33334H17.6C16.1065 1.33334 15.3598 1.33334 14.7894 1.62398C14.2876 1.87965 13.8796 2.2876 13.624 2.78936C13.3333 3.35979 13.3333 4.10653 13.3333 5.6V25.3333M28 25.3333H1.33333M18 6.66667H22M18 12H22M18 17.3333H22" stroke="var(--stroke-0, black)" stroke-width="2.66667" stroke-linecap="round" stroke-linejoin="round"/>
</svg>
