<svg preserveAspectRatio="none" width="100%" height="100%" overflow="visible" style="display: block;" viewBox="0 0 38.5 35" fill="none" xmlns="http://www.w3.org/2000/svg">
<path id="Icon" d="M21 15.75H29.4C31.3602 15.75 32.3403 15.75 33.089 16.1315C33.7475 16.467 34.283 17.0025 34.6185 17.661C35 18.4097 35 19.3898 35 21.35V33.25M21 33.25V7.35C21 5.38982 21 4.40973 20.6185 3.66104C20.283 3.00247 19.7475 2.46704 19.089 2.13148C18.3403 1.75 17.3602 1.75 15.4 1.75H9.1C7.13982 1.75 6.15972 1.75 5.41103 2.13148C4.75247 2.46704 4.21703 3.00247 3.88148 3.66104C3.5 4.40973 3.5 5.38982 3.5 7.35V33.25M36.75 33.25H1.75M9.625 8.75H14.875M9.625 15.75H14.875M9.625 22.75H14.875" stroke="var(--stroke-0, white)" stroke-width="3.5" stroke-linecap="round" stroke-linejoin="round"/>
</svg>
