<svg preserveAspectRatio="none" width="100%" height="100%" overflow="visible" style="display: block;" viewBox="0 0 48.5843 54" fill="none" xmlns="http://www.w3.org/2000/svg">
<g id="Group 379">
<path id="Vector" d="M9.91041 20.6873C9.91041 23.0882 6.31078 23.0882 6.31078 20.6873C6.31078 18.2863 9.91041 18.2863 9.91041 20.6873Z" fill="url(#paint0_linear_1052_3389)"/>
<path id="Vector_2" d="M0.0112432 1.75408C0.0112432 2.78753 0.795143 3.58908 1.78298 3.58908H1.89899C9.79072 3.58908 16.2057 10.015 16.2057 17.9066C16.2057 18.7784 16.4658 19.6361 16.9509 20.3638L23.1061 29.5879C23.9076 30.783 23.0429 32.386 21.6121 32.386H18.0125C17.0211 32.386 16.2127 33.1945 16.2127 34.1858V42.285C16.2127 43.2763 15.4041 44.0848 14.4128 44.0848H6.15197C4.61232 44.0848 3.24482 45.0655 2.74924 46.5244L1.07595 51.4211C0.742004 52.3913 1.18492 53.5092 2.02859 53.8607C2.98123 54.2474 4.08857 53.7271 4.41191 52.7815L6.14846 47.6985H14.4093C17.3868 47.6985 19.8088 45.2765 19.8088 42.299V35.9997H21.6086C24.0658 35.9997 26.2171 34.3334 26.8358 31.9396C27.2225 30.4737 26.9061 28.8251 25.9816 27.4295L19.8088 18.1776V17.6573C19.6119 7.93021 11.5374 0.0110233 1.79982 0.0110233C0.808481 0.0110233 3.96027e-06 0.80196 3.96027e-06 1.77565L0.0112432 1.75408Z" fill="url(#paint1_linear_1052_3389)"/>
<g id="Group 380">
<path id="Vector_3" d="M32.4079 20.6873C32.4079 23.0883 28.8083 23.0883 28.8083 20.6873C28.8083 18.2864 32.4079 18.2864 32.4079 20.6873Z" fill="url(#paint2_linear_1052_3389)"/>
<path id="Vector_4" d="M47.5798 27.4185L41.407 18.1666V17.6463C41.2101 7.91922 33.1356 3.8147e-05 23.398 3.8147e-05C22.4067 3.8147e-05 21.5982 0.790975 21.5982 1.76467C21.5982 2.79812 22.3821 3.59967 23.37 3.59967H23.486C31.3777 3.59967 37.7927 10.0255 37.7927 17.9172C37.7927 18.789 38.0528 19.6467 38.5379 20.3744L44.6931 29.5984C45.4946 30.7936 44.6298 32.3966 43.1991 32.3966H39.5995C38.6081 32.3966 37.7996 33.2051 37.7996 34.1964V42.2956C37.7996 43.2869 36.9911 44.0954 35.9998 44.0954H27.7389C26.1993 44.0954 24.8318 45.0761 24.3362 46.535L22.6629 51.4317C22.329 52.4019 22.7719 53.5198 23.6156 53.8713C24.5682 54.258 25.6755 53.7377 25.9989 52.7921L27.7354 47.7091H35.9963C38.9737 47.7091 41.3958 45.2871 41.3958 42.3096V36.0103H43.1956C45.6528 36.0103 47.8041 34.344 48.4228 31.9502C48.8095 30.4843 48.4931 28.8357 47.5686 27.4401L47.5798 27.4185Z" fill="url(#paint3_linear_1052_3389)"/>
</g>
</g>
<defs>
<linearGradient id="paint0_linear_1052_3389" x1="10.6109" y1="17.8664" x2="6.59292" y2="23.5592" gradientUnits="userSpaceOnUse">
<stop stop-color="#A970FF"/>
<stop offset="1" stop-color="#874DF2"/>
</linearGradient>
<linearGradient id="paint1_linear_1052_3389" x1="32.251" y1="-15.2785" x2="-28.0605" y2="27.4809" gradientUnits="userSpaceOnUse">
<stop stop-color="#A970FF"/>
<stop offset="1" stop-color="#874DF2"/>
</linearGradient>
<linearGradient id="paint2_linear_1052_3389" x1="33.1084" y1="17.8665" x2="29.0904" y2="23.5592" gradientUnits="userSpaceOnUse">
<stop stop-color="#A970FF"/>
<stop offset="1" stop-color="#874DF2"/>
</linearGradient>
<linearGradient id="paint3_linear_1052_3389" x1="53.8358" y1="-15.2956" x2="-6.48351" y2="27.4344" gradientUnits="userSpaceOnUse">
<stop stop-color="#A970FF"/>
<stop offset="1" stop-color="#874DF2"/>
</linearGradient>
</defs>
</svg>
