<svg preserveAspectRatio="none" width="100%" height="100%" overflow="visible" style="display: block;" viewBox="0 0 390 390" fill="none" xmlns="http://www.w3.org/2000/svg">
<g id="Group 405">
<path id="path162" d="M367.049 272.054C341.365 279.214 315.635 281.675 291.067 282.192C241.914 283.226 191.694 279.787 149.877 253.609C135.363 244.528 122.262 232.815 110.857 218.646C70.8003 228.051 30.0993 242.787 0 271.279V274.468V346.178V356.898V371.59V380.083V383.252V390H389.999V307.375C383.747 294.75 375.752 282.805 367.049 272.054Z" fill="var(--fill-0, #010F9A)"/>
<path id="path163" d="M305.362 0H64.6902C64.2503 2.75372 63.8263 5.509 63.4493 8.26743C57.5428 50.6132 61.6584 94.1135 70.0782 130.581C78.2624 166.007 92.306 195.586 110.858 218.647C114.974 217.681 119.089 216.766 123.173 215.902C166.953 206.669 212.87 199.869 257.372 207.863C297.932 215.148 334.706 234.734 361.897 265.916C363.641 267.914 365.353 269.962 367.05 272.054C374.715 269.917 382.381 267.358 390 264.309V152.512V144.292V0H314.991H305.362Z" fill="var(--fill-0, #005A5C)"/>
<path id="path164" d="M257.372 207.862C212.869 199.867 166.953 206.668 123.173 215.901C119.089 216.765 114.973 217.679 110.857 218.646C122.262 232.815 135.363 244.527 149.877 253.608C191.694 279.787 241.914 283.225 291.067 282.192C315.635 281.675 341.366 279.213 367.049 272.053C365.353 269.961 363.64 267.912 361.897 265.914C334.705 234.733 297.931 215.147 257.372 207.862Z" fill="var(--fill-0, #000039)"/>
</g>
</svg>
