<svg preserveAspectRatio="none" width="100%" height="100%" overflow="visible" style="display: block;" viewBox="0 0 37.5 37.5" fill="none" xmlns="http://www.w3.org/2000/svg">
<g id="Icon">
<path d="M34.85 36.25C35.3401 36.25 35.5851 36.25 35.7723 36.1546C35.9369 36.0708 36.0708 35.9369 36.1546 35.7723C36.25 35.5851 36.25 35.3401 36.25 34.85V16.65C36.25 16.16 36.25 15.9149 36.1546 15.7278C36.0708 15.5631 35.9369 15.4293 35.7723 15.3454C35.5851 15.25 35.3401 15.25 34.85 15.25L30.65 15.25C30.16 15.25 29.9149 15.25 29.7278 15.3454C29.5631 15.4293 29.4293 15.5631 29.3454 15.7278C29.25 15.9149 29.25 16.16 29.25 16.65V20.85C29.25 21.3401 29.25 21.5851 29.1546 21.7723C29.0708 21.9369 28.9369 22.0708 28.7723 22.1546C28.5851 22.25 28.3401 22.25 27.85 22.25H23.65C23.16 22.25 22.9149 22.25 22.7278 22.3454C22.5631 22.4293 22.4293 22.5631 22.3454 22.7278C22.25 22.9149 22.25 23.16 22.25 23.65V27.85C22.25 28.3401 22.25 28.5851 22.1546 28.7723C22.0708 28.9369 21.9369 29.0708 21.7723 29.1546C21.5851 29.25 21.3401 29.25 20.85 29.25H16.65C16.16 29.25 15.9149 29.25 15.7278 29.3454C15.5631 29.4293 15.4293 29.5631 15.3454 29.7278C15.25 29.9149 15.25 30.16 15.25 30.65V34.85C15.25 35.3401 15.25 35.5851 15.3454 35.7722C15.4293 35.9369 15.5631 36.0707 15.7278 36.1546C15.9149 36.25 16.16 36.25 16.65 36.25L34.85 36.25Z" stroke="var(--stroke-0, white)" stroke-width="2.5" stroke-linecap="round" stroke-linejoin="round"/>
<path d="M15.25 9.65001C15.25 9.15996 15.25 8.91494 15.3454 8.72777C15.4293 8.56313 15.5631 8.42927 15.7278 8.34538C15.9149 8.25001 16.16 8.25001 16.65 8.25001H20.85C21.3401 8.25001 21.5851 8.25001 21.7723 8.34538C21.9369 8.42927 22.0708 8.56313 22.1546 8.72777C22.25 8.91494 22.25 9.15996 22.25 9.65001V13.85C22.25 14.3401 22.25 14.5851 22.1546 14.7723C22.0708 14.9369 21.9369 15.0708 21.7723 15.1546C21.5851 15.25 21.3401 15.25 20.85 15.25H16.65C16.16 15.25 15.9149 15.25 15.7278 15.1546C15.5631 15.0708 15.4293 14.9369 15.3454 14.7723C15.25 14.5851 15.25 14.3401 15.25 13.85V9.65001Z" stroke="var(--stroke-0, white)" stroke-width="2.5" stroke-linecap="round" stroke-linejoin="round"/>
<path d="M3.00001 20.15C3.00001 19.66 3.00001 19.4149 3.09538 19.2278C3.17927 19.0631 3.31313 18.9293 3.47777 18.8454C3.66494 18.75 3.90996 18.75 4.40001 18.75H8.60001C9.09006 18.75 9.33508 18.75 9.52225 18.8454C9.68689 18.9293 9.82075 19.0631 9.90464 19.2278C10 19.4149 10 19.66 10 20.15V24.35C10 24.8401 10 25.0851 9.90464 25.2723C9.82075 25.4369 9.68689 25.5708 9.52225 25.6546C9.33508 25.75 9.09006 25.75 8.60001 25.75H4.40001C3.90996 25.75 3.66494 25.75 3.47777 25.6546C3.31313 25.5708 3.17927 25.4369 3.09538 25.2723C3.00001 25.0851 3.00001 24.8401 3.00001 24.35V20.15Z" stroke="var(--stroke-0, white)" stroke-width="2.5" stroke-linecap="round" stroke-linejoin="round"/>
<path d="M1.25001 2.65001C1.25001 2.15996 1.25001 1.91494 1.34538 1.72777C1.42927 1.56313 1.56313 1.42927 1.72777 1.34538C1.91494 1.25001 2.15996 1.25001 2.65001 1.25001H6.85001C7.34006 1.25001 7.58508 1.25001 7.77225 1.34538C7.93689 1.42927 8.07075 1.56313 8.15464 1.72777C8.25001 1.91494 8.25001 2.15996 8.25001 2.65001V6.85001C8.25001 7.34006 8.25001 7.58508 8.15464 7.77225C8.07075 7.93689 7.93689 8.07075 7.77225 8.15464C7.58508 8.25001 7.34006 8.25001 6.85001 8.25001H2.65001C2.15996 8.25001 1.91494 8.25001 1.72777 8.15464C1.56313 8.07075 1.42927 7.93689 1.34538 7.77225C1.25001 7.58508 1.25001 7.34006 1.25001 6.85001V2.65001Z" stroke="var(--stroke-0, white)" stroke-width="2.5" stroke-linecap="round" stroke-linejoin="round"/>
</g>
</svg>
