<svg preserveAspectRatio="none" width="100%" height="100%" overflow="visible" style="display: block;" viewBox="0 0 100 100" fill="none" xmlns="http://www.w3.org/2000/svg">
<g id="Frame 528">
<rect width="100" height="100" rx="8" fill="var(--fill-0, #060632)"/>
<path id="Vector" d="M50 22.75C65.0181 22.75 77.25 34.9819 77.25 50C77.25 65.0181 65.0181 77.25 50 77.25H33.2002C27.4221 77.25 22.75 72.5779 22.75 66.7998V50C22.75 34.9819 34.9819 22.75 50 22.75ZM34.7002 56.25C29.7383 56.25 25.6505 60.338 25.6504 65.2998C25.6504 70.2617 29.7383 74.3496 34.7002 74.3496C39.662 74.3495 43.75 70.2617 43.75 65.2998C43.7499 60.338 39.662 56.2501 34.7002 56.25ZM42.2002 41.25C33.1942 41.25 25.8081 48.5419 25.6533 57.5127C27.8607 54.955 31.093 53.3496 34.7002 53.3496C41.3181 53.3497 46.6503 58.6819 46.6504 65.2998C46.6504 68.9071 45.044 72.1383 42.4863 74.3457C51.4576 74.1915 58.75 66.8061 58.75 57.7998C58.7499 48.698 51.302 41.2501 42.2002 41.25ZM50 25.6504C37.4788 25.6504 27.1425 35.1818 25.8037 47.3818C29.2631 41.9465 35.2949 38.3496 42.2002 38.3496C52.8981 38.3497 61.6503 47.1019 61.6504 57.7998C61.6504 64.7052 58.0526 70.736 52.6172 74.1953C64.8177 72.8569 74.3496 62.5215 74.3496 50C74.3496 36.5781 63.4219 25.6504 50 25.6504Z" fill="url(#paint0_linear_1052_3383)" stroke="url(#paint1_linear_1052_3383)" stroke-width="0.5"/>
</g>
<defs>
<linearGradient id="paint0_linear_1052_3383" x1="77" y1="15.8564" x2="23" y2="84.1436" gradientUnits="userSpaceOnUse">
<stop stop-color="#FFC15E"/>
<stop offset="1" stop-color="#FF8A00"/>
</linearGradient>
<linearGradient id="paint1_linear_1052_3383" x1="77" y1="15.8564" x2="23" y2="84.1436" gradientUnits="userSpaceOnUse">
<stop stop-color="#FFC15E"/>
<stop offset="1" stop-color="#FF8A00"/>
</linearGradient>
</defs>
</svg>
