<svg preserveAspectRatio="none" width="100%" height="100%" overflow="visible" style="display: block;" viewBox="0 0 64 64" fill="none" xmlns="http://www.w3.org/2000/svg">
<g id="Frame 473">
<path id="Ellipse 9" d="M32 0C27.7977 0 23.6365 0.827705 19.7541 2.43586C15.8717 4.04401 12.3441 6.40111 9.37258 9.37259C6.40111 12.3441 4.04401 15.8717 2.43585 19.7541C0.827704 23.6366 -1.83688e-07 27.7977 0 32C1.83688e-07 36.2023 0.827705 40.3635 2.43586 44.2459C4.04401 48.1283 6.40111 51.6559 9.37258 54.6274C12.3441 57.5989 15.8717 59.956 19.7541 61.5641C23.6366 63.1723 27.7977 64 32 64L32 32L32 0Z" fill="var(--fill-0, #1E9199)"/>
<path id="Ellipse 10" d="M32 64C36.2023 64 40.3635 63.1723 44.2459 61.5641C48.1283 59.956 51.656 57.5989 54.6274 54.6274C57.5989 51.6559 59.956 48.1283 61.5642 44.2459C63.1723 40.3634 64 36.2023 64 32C64 27.7977 63.1723 23.6365 61.5642 19.7541C59.956 15.8717 57.5989 12.3441 54.6274 9.37258C51.6559 6.40111 48.1283 4.044 44.2459 2.43585C40.3635 0.827704 36.2023 -3.67377e-07 32 0L32 32V64Z" fill="var(--fill-0, #366468)"/>
</g>
</svg>
