<svg preserveAspectRatio="none" width="100%" height="100%" overflow="visible" style="display: block;" viewBox="0 0 38.5 38.5" fill="none" xmlns="http://www.w3.org/2000/svg">
<path id="Icon" d="M26.25 26.25C26.25 26.25 23.625 22.75 19.25 22.75C14.875 22.75 12.25 26.25 12.25 26.25M24.5 14H24.5175M14 14H14.0175M36.75 19.25C36.75 28.915 28.915 36.75 19.25 36.75C9.58502 36.75 1.75 28.915 1.75 19.25C1.75 9.58502 9.58502 1.75 19.25 1.75C28.915 1.75 36.75 9.58502 36.75 19.25ZM25.375 14C25.375 14.4832 24.9832 14.875 24.5 14.875C24.0168 14.875 23.625 14.4832 23.625 14C23.625 13.5168 24.0168 13.125 24.5 13.125C24.9832 13.125 25.375 13.5168 25.375 14ZM14.875 14C14.875 14.4832 14.4832 14.875 14 14.875C13.5168 14.875 13.125 14.4832 13.125 14C13.125 13.5168 13.5168 13.125 14 13.125C14.4832 13.125 14.875 13.5168 14.875 14Z" stroke="var(--stroke-0, white)" stroke-width="3.5" stroke-linecap="round" stroke-linejoin="round"/>
</svg>
