<svg preserveAspectRatio="xMidYMid meet" width="100%" height="100%" overflow="visible" style="display: block;" viewBox="0 0 130.878 160.012" fill="none" xmlns="http://www.w3.org/2000/svg">
<path id="Vector 68" d="M2.50028 157.512C6.69374 154.767 81.9517 104.417 75.6785 96.9676C70.8026 91.1775 44.5501 101.96 37.9409 103.613C32.5659 104.956 19.1106 110.34 27.2759 100.577C39.828 85.5693 58.832 77.0859 74.53 66.0391C74.7325 65.8966 91.7902 53.4526 87.492 51.5184C78.2645 47.3661 62.4882 54.664 52.8718 55.5382C40.4278 56.6695 49.855 49.1997 55.9073 45.2835C75.7299 32.4571 97.1444 22.9875 116.862 9.84291C130.391 0.823723 115.932 6.73764 109.56 3.19779C106.099 1.27469 122.018 3.93613 125.804 3.93613C130.489 3.93613 127.803 4.99318 125.394 8.36622C121.333 14.051 119.159 20.6164 119.159 27.5631" stroke="#8C0846" stroke-width="5" stroke-linecap="round"/>
</svg>
