<svg preserveAspectRatio="xMidYMid meet" width="100%" height="100%" overflow="visible" style="display: block;" viewBox="0 0 184.047 77.2638" fill="none" xmlns="http://www.w3.org/2000/svg">
<path id="Vector 72" d="M2.50054 74.7633C12.8323 72.4673 40.5408 49.0908 40.5408 39.4934C40.5408 33.1133 30.9409 34.5462 30.9409 41.0934C30.9409 49.6369 34.3505 57.9675 41.3409 63.4045C57.6657 76.1017 84.7577 61.6763 96.5409 49.8934C101.223 45.2118 102.499 32.0618 93.3409 37.4489C86.8729 41.2536 90.7924 52.3752 94.9409 56.2934C113.734 74.0428 136.378 54.8561 149.963 41.2712C154.528 36.7065 163.532 26.226 165.252 20.2045C166.646 15.3238 177.203 31.4312 171.03 23.4934C167.457 18.8998 160.287 12.2164 154.141 11.4934C151.177 11.1446 167.652 7.4441 170.141 6.33777C174.318 4.48155 183.966 -0.537555 180.985 5.09334C178.517 9.75555 174.941 17.676 174.941 22.6933" stroke="#8C0846" stroke-width="5" stroke-linecap="round"/>
</svg>
