<svg preserveAspectRatio="xMidYMid meet" width="100%" height="100%" overflow="visible" style="display: block;" viewBox="0 0 224.463 42.8174" fill="none" xmlns="http://www.w3.org/2000/svg">
<path id="Vector 61" d="M221.963 12.7927C176.575 9.99102 131.578 4.76701 86.1071 3.60443C59.9699 2.93616 -18.1936 0.979947 7.67843 4.75295C50.2037 10.9546 94.1543 10.7553 136.971 14.9257C153.56 16.5416 170.017 18.7075 186.522 20.9966C192.874 21.8775 197.834 23.366 187.671 22.8014C142.307 20.2812 97.1792 14.6807 51.815 11.9723C46.974 11.6833 32.6313 11.5425 37.2943 12.8747C54.3865 17.7582 72.7232 19.6821 90.209 22.3912C111.265 25.6534 132.662 27.6908 153.543 31.9897C161.043 33.5339 171.089 34.0157 178.072 37.1581C190.429 42.7189 151.012 39.2988 137.463 39.045C114.915 38.6225 92.3925 37.3209 69.8635 36.4198" stroke="#8C0846" stroke-width="5" stroke-linecap="round"/>
</svg>
