<svg preserveAspectRatio="none" width="100%" height="100%" overflow="visible" style="display: block;" viewBox="0 0 20.5861 22.0003" fill="none" xmlns="http://www.w3.org/2000/svg">
<path id="Icon" d="M5.42808 10.1893L1.62334 3.38087C1.18585 2.598 0.967105 2.20656 1.00397 1.88608C1.03613 1.60646 1.18464 1.35335 1.41304 1.18887C1.67482 1.00035 2.12323 1.00035 3.02004 1.00035H5.25486C5.58816 1.00035 5.75481 1.00035 5.90429 1.04848C6.03656 1.09107 6.15849 1.16077 6.26233 1.25311C6.37967 1.35747 6.46426 1.50105 6.63343 1.78822L10.293 8.00035L13.9527 1.78822C14.1218 1.50105 14.2064 1.35747 14.3238 1.25311C14.4276 1.16077 14.5495 1.09107 14.6818 1.04848C14.8313 1.00035 14.9979 1.00035 15.3312 1.00035H17.566C18.4629 1.00035 18.9113 1.00035 19.173 1.18887C19.4014 1.35335 19.55 1.60646 19.5821 1.88608C19.619 2.20656 19.4002 2.598 18.9627 3.38087L15.158 10.1893M8.79304 13.0003L10.293 12.0003V17.0003M9.04304 17.0003H11.543M14.8892 9.90415C17.4276 12.4426 17.4276 16.5581 14.8892 19.0965C12.3508 21.635 8.23526 21.635 5.69684 19.0965C3.15844 16.5581 3.15844 12.4426 5.69684 9.90415C8.23525 7.36575 12.3508 7.36575 14.8892 9.90415Z" stroke="var(--stroke-0, #414651)" stroke-width="2" stroke-linecap="round" stroke-linejoin="round"/>
</svg>
