<svg preserveAspectRatio="none" width="100%" height="100%" overflow="visible" style="display: block;" viewBox="0 0 20.01 20" fill="none" xmlns="http://www.w3.org/2000/svg">
<path id="Icon" d="M1 10H1.01M5.5 10H5.51M14.5 10H14.51M10 10H10.01M19 10H19.01M19 19V18.2C19 17.0799 19 16.5198 18.782 16.092C18.5903 15.7157 18.2843 15.4097 17.908 15.218C17.4802 15 16.9201 15 15.8 15H4.2C3.0799 15 2.51984 15 2.09202 15.218C1.7157 15.4097 1.40974 15.7157 1.21799 16.092C1 16.5198 1 17.0799 1 18.2V19M19 1V1.8C19 2.9201 19 3.48016 18.782 3.90798C18.5903 4.28431 18.2843 4.59027 17.908 4.78201C17.4802 5 16.9201 5 15.8 5H4.2C3.0799 5 2.51984 5 2.09202 4.78201C1.7157 4.59027 1.40974 4.28431 1.21799 3.90798C1 3.48016 1 2.92011 1 1.8V1" stroke="var(--stroke-0, #414651)" stroke-width="2" stroke-linecap="round" stroke-linejoin="round"/>
</svg>
