<svg preserveAspectRatio="none" width="100%" height="100%" overflow="visible" style="display: block;" viewBox="0 0 38.0006 34.0762" fill="none" xmlns="http://www.w3.org/2000/svg">
<path id="Icon" d="M1.50031 4.30001C1.50031 3.31991 1.50031 2.82987 1.69104 2.45552C1.85882 2.12624 2.12654 1.85852 2.45582 1.69074C2.83017 1.50001 3.32021 1.50001 4.30031 1.50001H33.7003C34.6804 1.50001 35.1704 1.50001 35.5448 1.69074C35.8741 1.85852 36.1418 2.12624 36.3096 2.45552C36.5003 2.82987 36.5003 3.31991 36.5003 4.30001V5.47145C36.5003 5.94184 36.5003 6.17704 36.4428 6.39574C36.3919 6.58955 36.308 6.77317 36.1949 6.93859C36.0673 7.12526 35.8896 7.2793 35.5341 7.58737L24.3415 17.2876C23.986 17.5957 23.8083 17.7498 23.6807 17.9364C23.5676 18.1018 23.4837 18.2855 23.4328 18.4793C23.3753 18.698 23.3753 18.9332 23.3753 19.4036V28.5522C23.3753 28.8944 23.3753 29.0655 23.3201 29.2135C23.2713 29.3442 23.192 29.4613 23.0888 29.5552C22.9719 29.6614 22.813 29.7249 22.4953 29.852L16.5453 32.232C15.9021 32.4893 15.5805 32.6179 15.3223 32.5643C15.0965 32.5174 14.8984 32.3833 14.771 32.1911C14.6253 31.9713 14.6253 31.6249 14.6253 30.9322V19.4036C14.6253 18.9332 14.6253 18.698 14.5678 18.4793C14.5169 18.2855 14.433 18.1018 14.3199 17.9364C14.1923 17.7498 14.0146 17.5957 13.6591 17.2876L2.4665 7.58738C2.11103 7.2793 1.93329 7.12526 1.80567 6.93859C1.69257 6.77317 1.60872 6.58955 1.55779 6.39574C1.50031 6.17704 1.50031 5.94184 1.50031 5.47145V4.30001Z" stroke="var(--stroke-0, white)" stroke-width="3" stroke-linecap="round" stroke-linejoin="round"/>
</svg>
