<svg preserveAspectRatio="none" width="100%" height="100%" overflow="visible" style="display: block;" viewBox="0 0 29.3339 26.3438" fill="none" xmlns="http://www.w3.org/2000/svg">
<path id="Icon" d="M1.33364 3.46667C1.33364 2.71994 1.33364 2.34657 1.47896 2.06135C1.6068 1.81047 1.81077 1.6065 2.06165 1.47866C2.34687 1.33334 2.72024 1.33334 3.46697 1.33334H25.867C26.6137 1.33334 26.9871 1.33334 27.2723 1.47866C27.5232 1.6065 27.7272 1.81047 27.855 2.06135C28.0003 2.34657 28.0003 2.71994 28.0003 3.46667V4.3592C28.0003 4.71759 28.0003 4.89679 27.9565 5.06342C27.9177 5.21109 27.8538 5.35099 27.7677 5.47702C27.6704 5.61925 27.535 5.73661 27.2642 5.97134L18.7365 13.362C18.4656 13.5967 18.3302 13.7141 18.233 13.8563C18.1468 13.9824 18.0829 14.1223 18.0441 14.2699C18.0003 14.4366 18.0003 14.6158 18.0003 14.9741V21.9445C18.0003 22.2053 18.0003 22.3356 17.9583 22.4484C17.9211 22.548 17.8607 22.6372 17.782 22.7087C17.6929 22.7896 17.5719 22.838 17.3298 22.9349L12.7965 24.7482C12.3064 24.9442 12.0614 25.0422 11.8647 25.0014C11.6927 24.9656 11.5417 24.8634 11.4446 24.717C11.3336 24.5496 11.3336 24.2856 11.3336 23.7578V14.9741C11.3336 14.6158 11.3336 14.4366 11.2898 14.2699C11.251 14.1223 11.1872 13.9824 11.101 13.8563C11.0037 13.7141 10.8683 13.5967 10.5975 13.362L2.06979 5.97134C1.79895 5.73661 1.66353 5.61925 1.5663 5.47702C1.48013 5.35099 1.41624 5.21109 1.37743 5.06342C1.33364 4.89679 1.33364 4.71759 1.33364 4.3592V3.46667Z" stroke="var(--stroke-0, black)" stroke-width="2.66667" stroke-linecap="round" stroke-linejoin="round"/>
</svg>
