<svg preserveAspectRatio="none" width="100%" height="100%" overflow="visible" style="display: block;" viewBox="0 0 34.5 38" fill="none" xmlns="http://www.w3.org/2000/svg">
<path id="Icon" d="M19 14.625V8.675C19 7.69491 19 7.20486 18.8093 6.83052C18.6415 6.50123 18.3738 6.23352 18.0445 6.06574C17.6701 5.875 17.1801 5.875 16.2 5.875H1.5M26 23.375V17.425C26 16.4449 26 15.9549 25.8093 15.5805C25.6415 15.2512 25.3738 14.9835 25.0445 14.8157C24.6701 14.625 24.1801 14.625 23.2 14.625H1.5M1.5 1.5L1.5 36.5M1.5 32.125H30.2C31.1801 32.125 31.6701 32.125 32.0445 31.9343C32.3738 31.7665 32.6415 31.4988 32.8093 31.1695C33 30.7951 33 30.3051 33 29.325V26.175C33 25.1949 33 24.7049 32.8093 24.3305C32.6415 24.0012 32.3738 23.7335 32.0445 23.5657C31.6701 23.375 31.1801 23.375 30.2 23.375L1.5 23.375L1.5 32.125Z" stroke="var(--stroke-0, white)" stroke-width="3" stroke-linecap="round" stroke-linejoin="round"/>
</svg>
