<svg preserveAspectRatio="none" width="100%" height="100%" overflow="visible" style="display: block;" viewBox="0 0 64 63.9993" fill="none" xmlns="http://www.w3.org/2000/svg">
<g id="Group 390">
<path id="path359" d="M46.5195 9.37121C48.8233 7.06741 52.6017 7.1342 54.8192 9.57433C56.7085 11.65 56.7947 14.8859 55.0112 17.0533C54.2405 17.9882 53.25 18.6114 52.1899 18.9231C47.3041 20.3532 42.805 22.8768 39.2046 26.4772L32.8414 32.8432L31.9983 32.0002L31.1553 31.1571L37.5213 24.7911C41.1412 21.1712 43.5868 16.6193 45.0977 11.7251C45.3648 10.8653 45.8378 10.0529 46.5195 9.37121Z" fill="var(--fill-0, #2EA3E3)"/>
<path id="path360" d="M9.37239 46.5195C7.06859 48.8233 7.13539 52.6017 9.57552 54.8193C11.6512 56.7085 14.8871 56.7948 17.0545 55.0113C17.9894 54.2405 18.6126 53.25 18.9243 52.1899C20.3544 47.3041 22.878 42.8078 26.4784 39.2047L32.8416 32.8414L32.0014 31.9983L31.1583 31.1553L24.7923 37.5213C21.1724 41.1412 16.6205 43.5869 11.7263 45.0977C10.8666 45.3648 10.0541 45.8378 9.37239 46.5195Z" fill="var(--fill-0, #2EA3E3)"/>
<path id="path361" d="M58.2673 26.2672C61.5254 26.2672 64.1492 28.9855 63.9934 32.2799C63.8598 35.0845 61.6339 37.4328 58.8404 37.7027C57.6329 37.8195 56.4921 37.5608 55.5211 37.0321C51.0554 34.5892 46.0917 33.1925 40.9999 33.1925H31.999V31.9988V30.808H40.9999C46.1195 30.808 51.0693 29.3194 55.5962 26.9266C56.3947 26.5065 57.3018 26.2672 58.2673 26.2672Z" fill="var(--fill-0, #2EA3E3)"/>
<path id="path362" d="M5.73018 26.2672C2.47204 26.2672 -0.151764 28.9855 0.00683041 32.2799C0.140384 35.0845 2.36631 37.4328 5.1598 37.7027C6.36735 37.8195 7.50531 37.5608 8.47635 37.0321C12.942 34.5892 17.9058 33.1925 22.9975 33.1925H32.0012V31.9988V30.808H22.9975C17.878 30.808 12.9309 29.3194 8.40125 26.9266C7.6055 26.5065 6.69566 26.2672 5.73018 26.2672Z" fill="var(--fill-0, #2EA3E3)"/>
<path id="path363" d="M54.6245 46.5195C56.9311 48.8233 56.8615 52.6017 54.4214 54.8193C52.3458 56.7085 49.1098 56.7948 46.9452 55.0113C46.0075 54.2405 45.3843 53.25 45.0727 52.1899C43.6425 47.3041 41.1217 42.8078 37.5185 39.2047L31.1553 32.8414L31.9983 31.9983L32.8414 31.1553L39.2046 37.5213C42.8273 41.1412 47.3792 43.5869 52.2706 45.0977C53.1331 45.3648 53.9428 45.8378 54.6245 46.5195Z" fill="var(--fill-0, #2EA3E3)"/>
<path id="path364" d="M17.4776 9.37121C15.1738 7.06741 11.3953 7.1342 9.17779 9.57433C7.29135 11.65 7.20234 14.8859 8.98862 17.0533C9.75934 17.9882 10.747 18.6114 11.8071 18.9231C16.693 20.3532 21.1921 22.8768 24.7924 26.4772L31.1585 32.8432L32.0015 32.0002L32.8446 31.1571L26.4785 24.7911C22.8559 21.1712 20.4102 16.6193 18.8994 11.7251C18.6351 10.8653 18.1593 10.0529 17.4776 9.37121Z" fill="var(--fill-0, #2EA3E3)"/>
<path id="path365" d="M37.7304 58.2666C37.7304 61.5248 35.0121 64.1486 31.7178 63.9927C28.9131 63.8592 26.5648 61.6333 26.2949 58.8398C26.1781 57.6323 26.4368 56.4915 26.9655 55.5232C29.4112 51.0548 30.8079 46.091 30.8079 40.9993V31.9984H31.9988H33.1924V40.9993C33.1924 46.1188 34.6809 51.0687 37.071 55.5956C37.4911 56.3941 37.7304 57.3012 37.7304 58.2666Z" fill="var(--fill-0, #2EA3E3)"/>
<path id="path366" d="M37.7304 5.73014C37.7304 2.472 35.0121 -0.151764 31.7178 0.0068305C28.9131 0.140384 26.5648 2.36627 26.2949 5.15976C26.1781 6.3673 26.4368 7.5053 26.9655 8.47634C29.4112 12.942 30.8079 17.9058 30.8079 22.9975V32.0012H31.9988H33.1924V22.9975C33.1924 17.8779 34.6809 12.9309 37.071 8.40121C37.4911 7.60545 37.7304 6.69562 37.7304 5.73014Z" fill="var(--fill-0, #2EA3E3)"/>
</g>
</svg>
