<svg preserveAspectRatio="none" width="100%" height="100%" overflow="visible" style="display: block;" viewBox="0 0 32 31.9972" fill="none" xmlns="http://www.w3.org/2000/svg">
<path id="path12" d="M32 22.3967C32 24.1635 30.5671 25.595 28.8003 25.595C30.5671 25.595 32 27.0293 32 28.7961C32 30.5643 30.5671 31.9972 28.8003 31.9972C27.0321 31.9972 25.5992 30.5643 25.5992 28.7961C25.5992 30.5643 24.1676 31.9972 22.3994 31.9972C20.6326 31.9972 19.1997 30.5643 19.1997 28.7961C19.1997 29.4778 18.9855 30.108 18.6238 30.6269C18.045 31.4546 17.0865 31.9972 16.0014 31.9972C16.0014 31.9972 16.0014 31.9972 16 31.9972C14.2388 31.9972 12.81 30.574 12.8003 28.8142C12.7905 30.574 11.3618 31.9972 9.60056 31.9972C7.83376 31.9972 6.40084 30.5643 6.40084 28.7961C6.40084 30.5643 4.9693 31.9972 3.20111 31.9972C1.4343 31.9972 0 30.5643 0 28.7961C0 27.0293 1.4343 25.595 3.20111 25.595C1.4343 25.595 0 24.1635 0 22.3967C0 20.6452 1.40648 19.2261 3.14963 19.1983C1.40648 19.1705 0 17.7515 0 16V15.9986C0 15.9972 0 15.9958 0 15.9958C0 14.2401 1.41622 12.8156 3.16911 12.7975C1.41622 12.7808 0 11.3562 0 9.60056C0 7.83237 1.4343 6.40084 3.20111 6.40084C1.4343 6.40084 0 4.96792 0 3.19972C0 1.43292 1.4343 0 3.20111 0C4.9693 0 6.40084 1.43292 6.40084 3.19972C6.40084 1.43292 7.83376 0 9.60056 0C11.3618 0 12.7905 1.42318 12.8003 3.18164C12.81 1.42318 14.2388 0 16 0V0.00138575C16.0014 0.00138575 16.0014 0 16.0014 0C17.0865 0 18.045 0.542561 18.6238 1.37032C18.9855 1.88923 19.1997 2.51804 19.1997 3.19972C19.1997 1.43292 20.6326 0 22.3994 0C24.1676 0 25.5992 1.43292 25.5992 3.19972C25.5992 1.43292 27.0321 0 28.8003 0C30.5671 0 32 1.43292 32 3.19972C32 4.96792 30.5671 6.40084 28.8003 6.40084C30.5671 6.40084 32 7.83237 32 9.60056C32 11.3562 30.5838 12.7808 28.8323 12.7975C30.5838 12.8156 32 14.2401 32 15.9958C32 15.9958 31.9986 15.9972 31.9986 15.9986L32 16C32 17.7515 30.5935 19.1705 28.8517 19.1983C30.5935 19.2261 32 20.6452 32 22.3967Z" fill="var(--fill-0, #09BA31)"/>
</svg>
