<svg preserveAspectRatio="none" width="100%" height="100%" overflow="visible" style="display: block;" viewBox="0 0 32.0002 32.0001" fill="none" xmlns="http://www.w3.org/2000/svg">
<g id="Group 397">
<path id="path8" d="M29.6573 2.34345C26.5327 -0.78115 21.4674 -0.78115 18.3428 2.34345C15.2182 5.46805 15.2182 10.5334 18.3428 13.6566C19.9051 15.2189 21.9529 16.0007 23.9993 16.0007V8.00001H32C32 5.95218 31.2182 3.90575 29.6573 2.34345Z" fill="var(--fill-0, #2EA3E3)"/>
<path id="path9" d="M13.6572 13.6566C10.5326 16.7812 5.46731 16.7812 2.34271 13.6566C-0.780497 10.5334 -0.780497 5.46813 2.34271 2.34353C3.90501 0.781233 5.95283 0.000781027 7.99926 0.000781027V8.00009H16C16 10.0479 15.2181 12.0943 13.6572 13.6566Z" fill="var(--fill-0, #2EA3E3)"/>
<path id="path10" d="M2.34276 29.6566C5.46736 32.7812 10.5326 32.7812 13.6572 29.6566C16.7805 26.532 16.7805 21.4667 13.6572 18.3434C12.0949 16.7811 10.0471 16.0007 7.99931 16.0007V24H0C0 26.0478 0.78046 28.0943 2.34276 29.6566Z" fill="var(--fill-0, #2EA3E3)"/>
<path id="path11" d="M18.3428 18.3435C21.4674 15.2189 26.5327 15.2189 29.6573 18.3435C32.7805 21.4667 32.7805 26.532 29.6573 29.6566C28.095 31.2189 26.0472 31.9994 23.9993 31.9994V24.0001H16C16 21.9523 16.7805 19.9058 18.3428 18.3435Z" fill="var(--fill-0, #2EA3E3)"/>
</g>
</svg>
