<svg preserveAspectRatio="none" width="100%" height="100%" overflow="visible" style="display: block;" viewBox="0 0 32 32" fill="none" xmlns="http://www.w3.org/2000/svg">
<g id="Frame 473">
<path id="Ellipse 9" d="M16 1.90735e-06C13.8989 1.90735e-06 11.8183 0.413854 9.87707 1.21793C7.93586 2.022 6.17203 3.20056 4.68629 4.68629C3.20056 6.17203 2.02201 7.93586 1.21793 9.87707C0.413856 11.8183 3.72285e-06 13.8989 3.8147e-06 16C3.90654e-06 18.1012 0.413856 20.1817 1.21793 22.1229C2.02201 24.0641 3.20056 25.828 4.6863 27.3137C6.17203 28.7994 7.93586 29.978 9.87707 30.7821C11.8183 31.5861 13.8989 32 16 32L16 16V1.90735e-06Z" fill="var(--fill-0, #D9850A)"/>
<path id="Ellipse 10" d="M16 32C18.1012 32 20.1817 31.5861 22.1229 30.7821C24.0641 29.978 25.828 28.7994 27.3137 27.3137C28.7994 25.828 29.978 24.0641 30.7821 22.1229C31.5861 20.1817 32 18.1011 32 16C32 13.8988 31.5861 11.8183 30.7821 9.87707C29.978 7.93586 28.7994 6.17203 27.3137 4.68629C25.828 3.20055 24.0641 2.022 22.1229 1.21793C20.1817 0.413854 18.1011 1.72366e-06 16 1.90735e-06L16 16V32Z" fill="var(--fill-0, #FDEED8)"/>
</g>
</svg>
