<svg preserveAspectRatio="none" width="100%" height="100%" overflow="visible" style="display: block;" viewBox="0 0 32.0002 32.0003" fill="none" xmlns="http://www.w3.org/2000/svg">
<g id="Group 402">
<path id="path182" d="M16.0006 24.0004H24.0003V26.1388C21.5712 27.5467 19.5455 29.5724 18.1404 32.0001H16.0006V24.0004Z" fill="var(--fill-0, #09BA31)"/>
<path id="path183" d="M21.8633 16.0008H24.0003V24.0005H16.0006V21.8594C18.4297 20.4542 20.454 18.4286 21.8633 16.0008Z" fill="var(--fill-0, #09BA31)"/>
<path id="path184" d="M16.0006 7.99967H24.0003V5.86272C21.5712 4.45478 19.5455 2.42912 18.1404 0H16.0006V7.99967Z" fill="var(--fill-0, #09BA31)"/>
<path id="path185" d="M21.8633 16.0007H24.0003V7.99963H16.0006V10.1408C18.4297 11.5459 20.454 13.5716 21.8633 16.0007Z" fill="var(--fill-0, #09BA31)"/>
<path id="path186" d="M32 24.0004H24.0003V26.1388C26.4294 27.5467 28.4551 29.5724 29.8603 32.0001H32V24.0004Z" fill="var(--fill-0, #09BA31)"/>
<path id="path187" d="M26.1387 16.0008H24.0003V24.0005H32V21.8594C29.5723 20.4542 27.5466 18.4286 26.1387 16.0008Z" fill="var(--fill-0, #09BA31)"/>
<path id="path188" d="M32 7.99967H24.0003V5.86272C26.4294 4.45478 28.4551 2.42912 29.8603 0H32V7.99967Z" fill="var(--fill-0, #09BA31)"/>
<path id="path189" d="M26.1387 16.0007H24.0003V7.99963H32V10.1408C29.5723 11.5459 27.5466 13.5716 26.1387 16.0007Z" fill="var(--fill-0, #09BA31)"/>
<path id="path190" d="M0 24.0004H7.99967V26.1388C5.57055 27.5467 3.5449 29.5724 2.14113 32.0001H0V24.0004Z" fill="var(--fill-0, #09BA31)"/>
<path id="path191" d="M5.86272 16.0008H7.99967V24.0005H0V21.8594C2.42912 20.4542 4.45478 18.4286 5.86272 16.0008Z" fill="var(--fill-0, #09BA31)"/>
<path id="path192" d="M0 7.99967H7.99967V5.86272C5.57055 4.45478 3.5449 2.42912 2.14113 0H0V7.99967Z" fill="var(--fill-0, #09BA31)"/>
<path id="path193" d="M5.86272 16.0007H7.99967V7.99963H0V10.1408C2.42912 11.5459 4.45478 13.5716 5.86272 16.0007Z" fill="var(--fill-0, #09BA31)"/>
<path id="path194" d="M16.0007 24.0004H7.9996V26.1388C10.4287 27.5467 12.4544 29.5724 13.8595 32.0001H16.0007V24.0004Z" fill="var(--fill-0, #09BA31)"/>
<path id="path195" d="M10.1379 16.0008H7.9996V24.0005H16.0007V21.8594C13.5715 20.4542 11.5459 18.4286 10.1379 16.0008Z" fill="var(--fill-0, #09BA31)"/>
<path id="path196" d="M16.0007 7.99967H7.9996V5.86272C10.4287 4.45478 12.4544 2.42912 13.8595 0H16.0007V7.99967Z" fill="var(--fill-0, #09BA31)"/>
<path id="path197" d="M10.1379 16.0007H7.9996V7.99963H16.0007V10.1408C13.5715 11.5459 11.5459 13.5716 10.1379 16.0007Z" fill="var(--fill-0, #09BA31)"/>
</g>
</svg>
