<svg preserveAspectRatio="none" width="100%" height="100%" overflow="visible" style="display: block;" viewBox="0 0 32.0001 31.9994" fill="none" xmlns="http://www.w3.org/2000/svg">
<g id="Group 401">
<path id="path86" d="M8.0001 13.9999H4.00011L0.00012207 16.0005V17.9996H8.0001H12.0002L16.0002 16.0005V13.9999H8.0001Z" fill="var(--fill-0, #09BA31)"/>
<path id="path87" d="M24.0001 13.9999H20.0002L16.0002 16.0005V17.9996H24.0001H28.0001L32.0001 16.0005V13.9999H24.0001Z" fill="var(--fill-0, #09BA31)"/>
<path id="path88" d="M11.7575 8.92895L8.92894 6.10063L4.68633 4.68578L3.27217 6.10063L8.92894 11.7573L11.7575 14.5856L16.0002 16.0005L17.4143 14.5856L11.7575 8.92895Z" fill="var(--fill-0, #09BA31)"/>
<path id="path89" d="M23.0712 20.2423L20.2428 17.414L16.0002 16.0006L14.5859 17.414L20.2428 23.0707L23.0712 25.899L27.3139 27.3138L28.728 25.899L23.0712 20.2423Z" fill="var(--fill-0, #09BA31)"/>
<path id="path90" d="M14.0002 23.9999V27.9997L16.0002 31.9994H18.0002V23.9999V20.0002L16.0002 16.0005H14.0002V23.9999Z" fill="var(--fill-0, #09BA31)"/>
<path id="path91" d="M14.0002 7.99963V11.9993L16.0002 16.0005H18.0002V7.99963V3.99991L16.0002 0.000201785H14.0002V7.99963Z" fill="var(--fill-0, #09BA31)"/>
<path id="path92" d="M8.92898 20.2424L6.10067 23.0707L4.68637 27.3138L6.10067 28.7273L11.7576 23.0707L14.5859 20.2424L16.0002 16.0006L14.5859 14.5857L8.92898 20.2424Z" fill="var(--fill-0, #09BA31)"/>
<path id="path93" d="M20.2428 8.92897L17.4143 11.7573L16.0002 16.0005L17.4143 17.4139L23.0712 11.7573L25.8995 8.92897L27.3139 4.6858L25.8995 3.27234L20.2428 8.92897Z" fill="var(--fill-0, #09BA31)"/>
</g>
</svg>
