<svg preserveAspectRatio="none" width="100%" height="100%" overflow="visible" style="display: block;" viewBox="0 0 64 64.0001" fill="none" xmlns="http://www.w3.org/2000/svg">
<g id="Group 394">
<path id="path98" d="M64 7.99967C42.6667 7.99967 21.3333 15.9993 0 15.9993C0 13.3337 0 10.6653 0 7.99967C21.3333 7.99967 42.6667 1.93156e-05 64 1.93156e-05C64 2.66564 64 5.33405 64 7.99967Z" fill="var(--fill-0, #D9850A)"/>
<path id="path99" d="M64 15.9995C42.6667 15.9995 21.3333 7.99981 0 7.99981C0 10.6654 0 13.3338 0 15.9995C21.3333 15.9995 42.6667 23.9991 64 23.9991C64 21.3335 64 18.6679 64 15.9995Z" fill="var(--fill-0, #D9850A)"/>
<path id="path100" d="M64 23.9989C42.6667 23.9989 21.3333 32.0014 0 32.0014C0 29.3329 0 26.6673 0 23.9989C21.3333 23.9989 42.6667 15.9992 64 15.9992C64 18.6677 64 21.3333 64 23.9989Z" fill="var(--fill-0, #D9850A)"/>
<path id="path101" d="M64 32.0015C42.6667 32.0015 21.3333 23.999 0 23.999C0 26.6674 0 29.3331 0 32.0015C21.3333 32.0015 42.6667 40.0011 64 40.0011C64 37.3327 64 34.6671 64 32.0015Z" fill="var(--fill-0, #D9850A)"/>
<path id="path102" d="M64 40.0013C42.6667 40.0013 21.3333 48.0009 0 48.0009C0 45.3353 0 42.6669 0 40.0013C21.3333 40.0013 42.6667 32.0016 64 32.0016C64 34.6672 64 37.3329 64 40.0013Z" fill="var(--fill-0, #D9850A)"/>
<path id="path103" d="M64 48.0007C42.6667 48.0007 21.3333 40.001 0 40.001C0 42.6666 0 45.335 0 48.0007C21.3333 48.0007 42.6667 56.0003 64 56.0003C64 53.3347 64 50.6663 64 48.0007Z" fill="var(--fill-0, #D9850A)"/>
<path id="path104" d="M64 56.0004C42.6667 56.0004 21.3333 64.0001 0 64.0001C0 61.3345 0 58.6689 0 56.0004C21.3333 56.0004 42.6667 48.0008 64 48.0008C64 50.6664 64 53.3348 64 56.0004Z" fill="var(--fill-0, #D9850A)"/>
</g>
</svg>
