<svg preserveAspectRatio="none" width="100%" height="100%" overflow="visible" style="display: block;" viewBox="0 0 48.0001 48" fill="none" xmlns="http://www.w3.org/2000/svg">
<g id="Group 394">
<path id="path98" d="M48.0001 5.99987C32.0001 5.99987 16.0001 11.9996 9.15527e-05 11.9996C9.15527e-05 10.0004 9.15527e-05 7.99909 9.15527e-05 5.99987C16.0001 5.99987 32.0001 0.000126962 48.0001 0.000126962C48.0001 1.99934 48.0001 4.00065 48.0001 5.99987Z" fill="var(--fill-0, #05052C)"/>
<path id="path99" d="M48.0001 11.9995C32.0001 11.9995 16.0001 5.99976 9.15527e-05 5.99976C9.15527e-05 7.99898 9.15527e-05 10.0003 9.15527e-05 11.9995C16.0001 11.9995 32.0001 17.9992 48.0001 17.9992C48.0001 16 48.0001 14.0008 48.0001 11.9995Z" fill="var(--fill-0, #05052C)"/>
<path id="path100" d="M48.0001 17.9992C32.0001 17.9992 16.0001 24.0011 9.15527e-05 24.0011C9.15527e-05 21.9998 9.15527e-05 20.0005 9.15527e-05 17.9992C16.0001 17.9992 32.0001 11.9995 48.0001 11.9995C48.0001 14.0008 48.0001 16 48.0001 17.9992Z" fill="var(--fill-0, #05052C)"/>
<path id="path101" d="M48.0001 24.001C32.0001 24.001 16.0001 17.9991 9.15527e-05 17.9991C9.15527e-05 20.0004 9.15527e-05 21.9997 9.15527e-05 24.001C16.0001 24.001 32.0001 30.0007 48.0001 30.0007C48.0001 27.9994 48.0001 26.0002 48.0001 24.001Z" fill="var(--fill-0, #05052C)"/>
<path id="path102" d="M48.0001 30.001C32.0001 30.001 16.0001 36.0007 9.15527e-05 36.0007C9.15527e-05 34.0015 9.15527e-05 32.0002 9.15527e-05 30.001C16.0001 30.001 32.0001 24.0012 48.0001 24.0012C48.0001 26.0004 48.0001 27.9997 48.0001 30.001Z" fill="var(--fill-0, #05052C)"/>
<path id="path103" d="M48.0001 36.0006C32.0001 36.0006 16.0001 30.0009 9.15527e-05 30.0009C9.15527e-05 32.0001 9.15527e-05 34.0014 9.15527e-05 36.0006C16.0001 36.0006 32.0001 42.0003 48.0001 42.0003C48.0001 40.0011 48.0001 37.9998 48.0001 36.0006Z" fill="var(--fill-0, #05052C)"/>
<path id="path104" d="M48.0001 42.0002C32.0001 42.0002 16.0001 48 9.15527e-05 48C9.15527e-05 46.0008 9.15527e-05 44.0015 9.15527e-05 42.0002C16.0001 42.0002 32.0001 36.0005 48.0001 36.0005C48.0001 37.9997 48.0001 40.001 48.0001 42.0002Z" fill="var(--fill-0, #05052C)"/>
</g>
</svg>
