<svg preserveAspectRatio="none" width="100%" height="100%" overflow="visible" style="display: block;" viewBox="0 0 38.5 38.5" fill="none" xmlns="http://www.w3.org/2000/svg">
<path id="Icon" d="M15.75 29.1525V33.25C15.75 35.183 17.317 36.75 19.25 36.75C21.183 36.75 22.75 35.183 22.75 33.25V29.1525M19.25 1.75V3.5M3.5 19.25H1.75M7.875 7.875L6.82483 6.82483M30.625 7.875L31.6754 6.82483M36.75 19.25H35M29.75 19.25C29.75 25.049 25.049 29.75 19.25 29.75C13.451 29.75 8.75 25.049 8.75 19.25C8.75 13.451 13.451 8.75 19.25 8.75C25.049 8.75 29.75 13.451 29.75 19.25Z" stroke="var(--stroke-0, white)" stroke-width="3.5" stroke-linecap="round" stroke-linejoin="round"/>
</svg>
