<svg preserveAspectRatio="none" width="100%" height="100%" overflow="visible" style="display: block;" viewBox="0 0 48 48.0001" fill="none" xmlns="http://www.w3.org/2000/svg">
<g id="Group 394">
<path id="path98" d="M48 5.99974C32 5.99974 16 11.9995 0 11.9995C0 10.0003 0 7.99896 0 5.99974C16 5.99974 32 0 48 0C48 1.99922 48 4.00052 48 5.99974Z" fill="var(--fill-0, #1E9199)"/>
<path id="path99" d="M48 11.9996C32 11.9996 16 5.99982 0 5.99982C0 7.99903 0 10.0003 0 11.9996C16 11.9996 32 17.9993 48 17.9993C48 16.0001 48 14.0009 48 11.9996Z" fill="var(--fill-0, #1E9199)"/>
<path id="path100" d="M48 17.9993C32 17.9993 16 24.0011 0 24.0011C0 21.9998 0 20.0006 0 17.9993C16 17.9993 32 11.9995 48 11.9995C48 14.0009 48 16.0001 48 17.9993Z" fill="var(--fill-0, #1E9199)"/>
<path id="path101" d="M48 24.0012C32 24.0012 16 17.9994 0 17.9994C0 20.0007 0 21.9999 0 24.0012C16 24.0012 32 30.0009 48 30.0009C48 27.9996 48 26.0004 48 24.0012Z" fill="var(--fill-0, #1E9199)"/>
<path id="path102" d="M48 30.001C32 30.001 16 36.0008 0 36.0008C0 34.0015 0 32.0002 0 30.001C16 30.001 32 24.0013 48 24.0013C48 26.0005 48 27.9997 48 30.001Z" fill="var(--fill-0, #1E9199)"/>
<path id="path103" d="M48 36.0005C32 36.0005 16 30.0007 0 30.0007C0 32 0 34.0013 0 36.0005C16 36.0005 32 42.0002 48 42.0002C48 40.001 48 37.9997 48 36.0005Z" fill="var(--fill-0, #1E9199)"/>
<path id="path104" d="M48 42.0003C32 42.0003 16 48 0 48C0 46.0008 0 44.0016 0 42.0003C16 42.0003 32 36.0005 48 36.0005C48 37.9998 48 40.0011 48 42.0003Z" fill="var(--fill-0, #1E9199)"/>
</g>
</svg>
