<svg preserveAspectRatio="none" width="100%" height="100%" overflow="visible" style="display: block;" viewBox="0 0 29.3334 29.3333" fill="none" xmlns="http://www.w3.org/2000/svg">
<path id="Icon" d="M12 18.6667L7.8997 22.8183C7.32775 23.3974 7.04178 23.6869 6.79598 23.7073C6.58272 23.725 6.37393 23.6393 6.23465 23.4769C6.07411 23.2896 6.07411 22.8826 6.07411 22.0687V19.9888C6.07411 19.2586 5.47614 18.7303 4.75364 18.6244C3.00503 18.3683 1.63174 16.995 1.37561 15.2464C1.33337 14.9581 1.33337 14.614 1.33337 13.9259V7.73334C1.33337 5.49312 1.33337 4.37302 1.76935 3.51737C2.15284 2.76472 2.76476 2.1528 3.51741 1.76931C4.37306 1.33333 5.49316 1.33333 7.73337 1.33333H17.6C19.8403 1.33333 20.9604 1.33333 21.816 1.76931C22.5687 2.1528 23.1806 2.76472 23.5641 3.51737C24 4.37302 24 5.49312 24 7.73334V13.3333M24 28L21.0982 25.9825C20.6902 25.6989 20.4863 25.5571 20.2643 25.4566C20.0673 25.3673 19.8602 25.3024 19.6475 25.2632C19.4078 25.219 19.1594 25.219 18.6626 25.219H16.2667C14.7732 25.219 14.0265 25.219 13.4561 24.9284C12.9543 24.6727 12.5464 24.2648 12.2907 23.763C12 23.1926 12 22.4459 12 20.9524V17.6C12 16.1065 12 15.3598 12.2907 14.7894C12.5464 14.2876 12.9543 13.8796 13.4561 13.624C14.0265 13.3333 14.7732 13.3333 16.2667 13.3333H23.7334C25.2268 13.3333 25.9736 13.3333 26.544 13.624C27.0458 13.8796 27.4537 14.2876 27.7094 14.7894C28 15.3598 28 16.1065 28 17.6V21.219C28 22.4616 28 23.0828 27.7971 23.5729C27.5264 24.2263 27.0073 24.7454 26.3539 25.0161C25.8638 25.219 25.2426 25.219 24 25.219V28Z" stroke="var(--stroke-0, black)" stroke-width="2.66667" stroke-linecap="round" stroke-linejoin="round"/>
</svg>
