<svg preserveAspectRatio="none" width="100%" height="100%" overflow="visible" style="display: block;" viewBox="0 0 324.388 331.031" fill="none" xmlns="http://www.w3.org/2000/svg">
<g id="Group 406">
<path id="path165" d="M238.881 222.029C258.627 200.971 278.014 167.166 265.867 137.777C265.494 136.863 265.067 135.978 264.641 135.107C260.987 147.226 255.921 158.955 249.694 169.939C233.574 198.411 209.214 222.599 180.161 237.781C175.041 240.455 169.747 242.894 164.307 244.942C164.214 251.427 164.121 257.913 164.027 264.398C192.547 258.222 218.907 243.329 238.881 222.029Z" fill="var(--fill-0, #FF8E78)"/>
<path id="path166" d="M276.588 0H167.801C167.481 22.5227 167.161 45.044 166.841 67.568C168.748 66.1986 170.681 64.86 172.628 63.5613C179.414 59.0533 186.494 54.9893 193.814 51.4253C202.588 47.1533 211.761 43.048 221.494 41.66C240.041 39.0133 256.934 49.3253 265.001 65.9947C272.641 81.764 272.121 99.8627 269.028 116.851C278.001 127.244 282.934 140.615 283.388 154.503C284.001 173.308 277.001 192.025 267.268 207.841C258.441 222.173 247.121 235.043 234.054 245.647C213.654 262.209 189.481 273.696 163.828 278.651C163.574 296.109 163.334 313.571 163.081 331.031H165.094H170.094H242.388H251.108H252.548H260.721H324.388V249.505V248.099V236.625V135.124V124.896V92.6546V9.31999V0.290625V0H284.868H276.588Z" fill="var(--fill-0, #FF8E78)"/>
<path id="path167" d="M246.682 144.104C249.602 136.76 252.068 129.125 253.868 121.349C240.108 109.413 219.441 104.956 201.868 107.445C188.935 109.278 177.015 114.349 166.068 121.274C166.068 121.542 166.068 121.81 166.055 122.078C166.015 124.894 165.975 127.709 165.935 130.525C165.895 133.57 165.855 136.616 165.815 139.661C165.375 169.732 164.948 199.802 164.521 229.874C175.175 225.33 185.241 219.097 194.428 212.246C217.495 195.057 236.068 170.836 246.682 144.104Z" fill="var(--fill-0, #FF8E78)"/>
<path id="path168" d="M220.681 93.3322C233.507 94.8055 245.841 98.8562 256.507 105.968C256.734 103.882 256.907 101.792 257.014 99.7015C257.787 84.5948 254.441 67.2069 240.521 58.7029C226.427 50.0989 209.121 59.1202 196.147 65.9229C185.681 71.4109 175.774 77.9122 166.587 85.3255C166.507 90.4029 166.441 95.4802 166.361 100.558C166.347 102.12 166.321 103.682 166.294 105.244C182.947 96.2442 201.321 91.1082 220.681 93.3322Z" fill="var(--fill-0, #FF8E78)"/>
<path id="path169" d="M164.308 244.941C169.748 242.893 175.041 240.455 180.161 237.78C209.215 222.599 233.575 198.411 249.695 169.939C255.921 158.955 260.988 147.225 264.641 135.107C265.068 135.977 265.495 136.863 265.868 137.776C278.015 167.165 258.628 200.971 238.881 222.028C218.908 243.328 192.548 258.221 164.028 264.397C164.121 257.912 164.215 251.427 164.308 244.941ZM165.815 139.661C165.855 136.616 165.895 133.571 165.935 130.525C165.975 127.709 166.015 124.895 166.055 122.079C166.068 121.811 166.068 121.543 166.068 121.275C177.015 114.349 188.935 109.279 201.868 107.445C219.441 104.956 240.108 109.413 253.868 121.349C252.068 129.125 249.601 136.76 246.681 144.104C236.068 170.836 217.495 195.057 194.428 212.247C185.241 219.097 175.175 225.331 164.521 229.875C164.948 199.803 165.375 169.732 165.815 139.661ZM166.361 100.557C166.441 95.48 166.508 90.4027 166.588 85.3253C175.775 77.912 185.681 71.4107 196.148 65.9227C209.121 59.12 226.428 50.0987 240.521 58.7027C254.441 67.2067 257.788 84.5946 257.015 99.7013C256.908 101.792 256.735 103.881 256.508 105.968C245.841 98.856 233.508 94.8053 220.681 93.332C201.321 91.108 182.948 96.244 166.295 105.244C166.321 103.681 166.348 102.12 166.361 100.557ZM25.768 212.283C21.904 252.732 13.316 292.668 0 331.031H48.268H163.081C163.335 313.571 163.575 296.109 163.828 278.651C189.481 273.696 213.655 262.209 234.055 245.647C247.121 235.043 258.441 222.173 267.268 207.841C277.001 192.025 284.001 173.308 283.388 154.503C282.935 140.615 278.001 127.244 269.028 116.851C272.121 99.8627 272.641 81.764 265.001 65.9947C256.935 49.3253 240.041 39.0133 221.495 41.66C211.761 43.048 202.588 47.1533 193.815 51.4253C186.495 54.9893 179.415 59.0533 172.628 63.5613C170.681 64.86 168.748 66.1986 166.841 67.568C167.161 45.044 167.481 22.5227 167.801 0H1.48268C8.76535 21.5333 14.576 43.5533 18.8573 65.8867C28.084 114.033 30.4293 163.483 25.768 212.283Z" fill="var(--fill-0, #000039)"/>
</g>
</svg>
