<svg preserveAspectRatio="none" width="100%" height="100%" overflow="visible" style="display: block;" viewBox="0 0 37.9689 37.9689" fill="none" xmlns="http://www.w3.org/2000/svg">
<g id="Icon">
<path d="M28.1 22.4689C28.5848 22.4689 28.8271 22.4689 29.0236 22.5765C29.1856 22.6653 29.3365 22.832 29.4086 23.0021C29.4961 23.2083 29.4741 23.4278 29.4301 23.8666C29.2018 26.1417 28.4188 28.3339 27.1406 30.2468C25.6022 32.5491 23.4157 34.3436 20.8576 35.4032C18.2994 36.4628 15.4845 36.7401 12.7687 36.1999C10.053 35.6597 7.55845 34.3263 5.60051 32.3684C3.64258 30.4104 2.30921 27.9159 1.76901 25.2001C1.22882 22.4844 1.50607 19.6695 2.56569 17.1113C3.62532 14.5531 5.41974 12.3666 7.72202 10.8283C9.63499 9.55009 11.8272 8.76707 14.1023 8.5388C14.5411 8.49477 14.7605 8.47276 14.9667 8.56024C15.1369 8.63241 15.3036 8.78325 15.3924 8.9453C15.5 9.14175 15.5 9.38412 15.5 9.86886V21.0689C15.5 21.5589 15.5 21.8039 15.5954 21.9911C15.6793 22.1557 15.8131 22.2896 15.9778 22.3735C16.1649 22.4689 16.41 22.4689 16.9 22.4689H28.1Z" stroke="var(--stroke-0, white)" stroke-width="3" stroke-linecap="round" stroke-linejoin="round"/>
<path d="M22.5 2.86886C22.5 2.38411 22.5 2.14173 22.6076 1.94528C22.6964 1.78323 22.8631 1.6324 23.0333 1.56023C23.2395 1.47274 23.4589 1.49475 23.8977 1.53877C27.0974 1.85971 30.1055 3.27539 32.3995 5.56937C34.6935 7.86334 36.1092 10.8714 36.4301 14.0711C36.4741 14.51 36.4961 14.7294 36.4086 14.9356C36.3365 15.1057 36.1856 15.2724 36.0236 15.3612C35.8271 15.4689 35.5848 15.4689 35.1 15.4689L23.9 15.4689C23.41 15.4689 23.1649 15.4689 22.9778 15.3735C22.8131 15.2896 22.6793 15.1557 22.5954 14.9911C22.5 14.8039 22.5 14.5589 22.5 14.0689V2.86886Z" stroke="var(--stroke-0, white)" stroke-width="3" stroke-linecap="round" stroke-linejoin="round"/>
</g>
</svg>
