<svg preserveAspectRatio="none" width="100%" height="100%" overflow="visible" style="display: block;" viewBox="0 0 48.0001 47.9996" fill="none" xmlns="http://www.w3.org/2000/svg">
<g id="Group 390">
<path id="path359" d="M34.8897 7.02843C36.6176 5.30058 39.4514 5.35067 41.1145 7.18077C42.5315 8.7375 42.5962 11.1644 41.2585 12.79C40.6805 13.4912 39.9376 13.9586 39.1425 14.1923C35.4782 15.2649 32.1039 17.1576 29.4036 19.8579L24.6311 24.6324L23.9989 24.0002L23.3665 23.3679L28.1411 18.5933C30.856 15.8784 32.6902 12.4645 33.8234 8.79384C34.0237 8.14903 34.3785 7.53969 34.8897 7.02843Z" fill="var(--fill-0, #155ED5)"/>
<path id="path360" d="M7.02941 34.8895C5.30156 36.6174 5.35166 39.4512 7.18176 41.1144C8.73849 42.5313 11.1654 42.596 12.791 41.2584C13.4922 40.6803 13.9596 39.9375 14.1933 39.1424C15.2659 35.478 17.1586 32.1058 19.8589 29.4034L24.6313 24.631L24.0011 23.9987L23.3688 23.3664L18.5943 28.1409C15.8794 30.8558 12.4655 32.6901 8.79485 33.8232C8.15004 34.0235 7.54067 34.3783 7.02941 34.8895Z" fill="var(--fill-0, #155ED5)"/>
<path id="path361" d="M43.7006 19.7005C46.1442 19.7005 48.112 21.7392 47.9952 24.21C47.895 26.3134 46.2256 28.0747 44.1304 28.2771C43.2248 28.3647 42.3692 28.1707 41.6409 27.7742C38.2917 25.942 34.5689 24.8944 30.7501 24.8944H23.9994V23.9992V23.1061H30.7501C34.5897 23.1061 38.3021 21.9896 41.6973 20.195C42.2962 19.8799 42.9765 19.7005 43.7006 19.7005Z" fill="var(--fill-0, #155ED5)"/>
<path id="path362" d="M4.29775 19.7005C1.85414 19.7005 -0.113709 21.7392 0.00523725 24.21C0.105402 26.3134 1.77484 28.0747 3.86996 28.2771C4.77562 28.3647 5.6291 28.1707 6.35738 27.7742C9.70665 25.942 13.4295 24.8944 17.2483 24.8944H24.001V23.9992V23.1061H17.2483C13.4086 23.1061 9.69832 21.9896 6.30105 20.195C5.70424 19.8799 5.02186 19.7005 4.29775 19.7005Z" fill="var(--fill-0, #155ED5)"/>
<path id="path363" d="M40.9685 34.8895C42.6984 36.6174 42.6463 39.4512 40.8162 41.1144C39.2594 42.5313 36.8325 42.596 35.209 41.2584C34.5057 40.6803 34.0383 39.9375 33.8046 39.1424C32.732 35.478 30.8414 32.1058 28.139 29.4034L23.3665 24.631L23.9989 23.9987L24.6311 23.3664L29.4036 28.1409C32.1206 30.8558 35.5345 32.6901 39.2031 33.8232C39.85 34.0235 40.4572 34.3783 40.9685 34.8895Z" fill="var(--fill-0, #155ED5)"/>
<path id="path364" d="M13.1083 7.02843C11.3805 5.30058 8.5466 5.35067 6.88345 7.18077C5.46862 8.7375 5.40186 11.1644 6.74157 12.79C7.31961 13.4912 8.06039 13.9586 8.85545 14.1923C12.5198 15.2649 15.8942 17.1576 18.5944 19.8579L23.3689 24.6324L24.0013 24.0002L24.6336 23.3679L19.859 18.5933C17.142 15.8784 15.3078 12.4645 14.1746 8.79384C13.9764 8.14903 13.6196 7.53969 13.1083 7.02843Z" fill="var(--fill-0, #155ED5)"/>
<path id="path365" d="M28.2979 43.6999C28.2979 46.1435 26.2592 48.1114 23.7884 47.9945C21.685 47.8943 19.9237 46.2249 19.7213 44.1298C19.6337 43.2241 19.8277 42.3686 20.2242 41.6424C22.0585 38.291 23.106 34.5682 23.106 30.7494V23.9987H23.9992H24.8944V30.7494C24.8944 34.5891 26.0108 38.3014 27.8034 41.6966C28.1185 42.2955 28.2979 42.9758 28.2979 43.6999Z" fill="var(--fill-0, #155ED5)"/>
<path id="path366" d="M28.2979 4.29761C28.2979 1.854 26.2592 -0.113823 23.7884 0.00512288C21.685 0.105288 19.9237 1.7747 19.7213 3.86982C19.6337 4.77548 19.8277 5.62897 20.2242 6.35725C22.0585 9.70652 23.106 13.4293 23.106 17.2481V24.0009H23.9992H24.8944V17.2481C24.8944 13.4085 26.0108 9.69817 27.8034 6.30091C28.1185 5.70409 28.2979 5.02172 28.2979 4.29761Z" fill="var(--fill-0, #155ED5)"/>
</g>
</svg>
