<svg preserveAspectRatio="none" width="100%" height="100%" overflow="visible" style="display: block;" viewBox="0 0 38.5 35" fill="none" xmlns="http://www.w3.org/2000/svg">
<path id="Icon" d="M19.25 24.5V33.25M19.25 24.5L29.75 33.25M19.25 24.5L8.75 33.25M35 1.75V16.1C35 19.0403 35 20.5104 34.4278 21.6335C33.9244 22.6213 33.1213 23.4244 32.1334 23.9278C31.0104 24.5 29.5403 24.5 26.6 24.5H11.9C8.95972 24.5 7.48959 24.5 6.36655 23.9278C5.3787 23.4244 4.57555 22.6213 4.07222 21.6335C3.5 20.5104 3.5 19.0403 3.5 16.1V1.75M12.25 12.25V17.5M19.25 8.75V17.5M26.25 15.75V17.5M36.75 1.75H1.75" stroke="var(--stroke-0, white)" stroke-width="3.5" stroke-linecap="round" stroke-linejoin="round"/>
</svg>
