<svg preserveAspectRatio="xMidYMid meet" width="34" height="32" viewBox="0 0 34 32" fill="none" xmlns="http://www.w3.org/2000/svg" style="transform: scaleY(-1);">
<g id="Group">
<path d="M10.6721 27.4273L10.6909 22.8383L11.8083 22.1854L12.932 21.5325L16.1086 23.3719L19.2914 25.205L19.3102 28.6138L19.3228 32.0163H14.9911H10.6595L10.6721 27.4273Z" fill="#2970FF"/>
<path d="M23.717 27.227L19.7934 24.9545L19.7746 23.6362L19.762 22.3178L21.6579 21.2255C22.7063 20.6229 24.1376 19.7942 24.847 19.3862L26.1402 18.6391L29.0216 20.309C30.6036 21.2255 31.9282 21.9977 31.9533 22.0228C32.0036 22.073 27.7787 29.4619 27.6845 29.487C27.6594 29.4933 25.8765 28.4763 23.717 27.227Z" fill="#2970FF"/>
<path d="M2.12818 22.2171C0.947967 20.1706 -0.00624693 18.4944 3.07988e-05 18.4881C0.0565303 18.4442 7.79696 13.987 7.86602 13.9619C7.90996 13.9431 8.44357 14.213 9.03995 14.5583L10.1386 15.1923L10.1762 17.2765C10.2013 18.4191 10.2202 20.0701 10.2202 20.9427V22.5373L9.98789 22.6879C9.52334 22.983 4.38188 25.9272 4.32538 25.9272C4.29399 25.9272 3.30839 24.2574 2.12818 22.2171Z" fill="#2970FF"/>
<path d="M15.9328 17.9984C14.7087 17.2828 14.74 17.3393 14.74 16.0021C14.74 15.0228 14.7463 14.9475 14.8844 14.7528C15.0665 14.4766 16.7364 13.4973 17.0189 13.4973C17.1444 13.4973 17.5211 13.6731 18.1112 14.0058C19.3479 14.7026 19.3228 14.6712 19.3228 15.9958C19.3228 17.333 19.3416 17.3016 18.1175 18.0047C17.5399 18.3312 17.1444 18.5195 17.0251 18.5195C16.9059 18.5195 16.5166 18.3312 15.9328 17.9984Z" fill="#2970FF"/>
<path d="M24.9725 17.4269L23.8739 16.7866L23.8613 13.1141L23.8425 9.44795L26.7553 7.7718C28.3562 6.8427 29.6933 6.08937 29.7247 6.08937C29.8063 6.08937 34.0312 13.4155 33.9998 13.5034C33.9873 13.541 33.0456 14.106 31.9093 14.7652C30.7668 15.4243 29.0153 16.4351 28.0046 17.0189C26.9939 17.6027 26.1464 18.0798 26.1213 18.0735C26.0962 18.0735 25.5751 17.7848 24.9725 17.4269Z" fill="#2970FF"/>
<path d="M5.03454 11.7017C3.45255 10.7852 2.12795 10.013 2.10284 9.98793C2.0589 9.94399 6.15825 2.73088 6.32775 2.5551C6.35286 2.52372 8.14829 3.52815 10.3204 4.7837L14.2691 7.06251L14.2879 8.35572C14.3005 9.34132 14.2816 9.66777 14.2251 9.71171C14.1812 9.74938 12.8566 10.5215 11.2872 11.4255C9.71772 12.3358 8.31779 13.1393 8.1734 13.221L7.92229 13.3716L5.03454 11.7017Z" fill="#2970FF"/>
<path d="M17.9416 8.63824L14.7714 6.81142L14.7525 3.40262L14.74 9.16026e-05H19.0716H23.4032V4.57655V9.15301L22.5118 9.67407C22.0159 9.95656 21.5011 10.2516 21.363 10.3332L21.1119 10.4713L17.9416 8.63824Z" fill="#2970FF"/>
</g>
</svg>
