<svg preserveAspectRatio="none" width="100%" height="100%" overflow="visible" style="display: block;" viewBox="0 0 83.9999 83.9972" fill="none" xmlns="http://www.w3.org/2000/svg">
<g id="Group 389">
<path id="path112" d="M41.9996 62.9989H0C0 74.5936 9.39958 83.9972 20.9998 83.9972H41.9996V62.9989Z" fill="var(--fill-0, #2939A3)"/>
<path id="path113" d="M83.9999 62.9989H63.0002C51.3996 62.9989 42 72.4025 42 83.9972H63.0002H83.9999V62.9989Z" fill="var(--fill-0, #2939A3)"/>
<path id="path114" d="M42 62.9991H63.0002C74.6004 62.9991 83.9999 53.5955 83.9999 42.0007H63.0002H42V62.9991Z" fill="var(--fill-0, #2939A3)"/>
<path id="path115" d="M0 62.9991H41.9996C41.9996 51.4043 32.6 42.0007 20.9998 42.0007H0V62.9991Z" fill="var(--fill-0, #2939A3)"/>
<path id="path116" d="M41.9996 20.9984H0C0 32.5968 9.39958 42.0004 20.9998 42.0004H41.9996V20.9984Z" fill="var(--fill-0, #2939A3)"/>
<path id="path117" d="M83.9999 20.9984H63.0002C51.3996 20.9984 42 30.402 42 42.0004H63.0002H83.9999V20.9984Z" fill="var(--fill-0, #2939A3)"/>
<path id="path118" d="M42 20.9985H63.0002C74.6004 20.9985 83.9999 11.5949 83.9999 0.000168826H63.0002H42V20.9985Z" fill="var(--fill-0, #2939A3)"/>
<path id="path119" d="M0 20.9985H41.9996C41.9996 9.40377 32.6 0.000168826 20.9998 0.000168826H0V20.9985Z" fill="var(--fill-0, #2939A3)"/>
</g>
</svg>
