<svg preserveAspectRatio="none" width="100%" height="100%" overflow="visible" style="display: block;" viewBox="0 0 84 84.0005" fill="none" xmlns="http://www.w3.org/2000/svg">
<g id="Group 402">
<path id="path182" d="M42.0017 63.0011H63.0008V68.6143C56.6244 72.3101 51.307 77.6275 47.6185 84.0003H42.0017V63.0011Z" fill="var(--fill-0, #2939A3)"/>
<path id="path183" d="M57.3913 42.0022H63.0008V63.0013H42.0017V57.3808C48.3781 53.6923 53.6918 48.375 57.3913 42.0022Z" fill="var(--fill-0, #2939A3)"/>
<path id="path184" d="M42.0017 20.9991H63.0008V15.3896C56.6244 11.6938 51.307 6.37643 47.6185 0H42.0017V20.9991Z" fill="var(--fill-0, #2939A3)"/>
<path id="path185" d="M57.3913 42.0018H63.0008V20.999H42.0017V26.6195C48.3781 30.308 53.6918 35.6254 57.3913 42.0018Z" fill="var(--fill-0, #2939A3)"/>
<path id="path186" d="M84 63.0011H63.0009V68.6143C69.3773 72.3101 74.6947 77.6275 78.3832 84.0003H84V63.0011Z" fill="var(--fill-0, #2939A3)"/>
<path id="path187" d="M68.6141 42.0022H63.0009V63.0013H84V57.3808C77.6272 53.6923 72.3099 48.375 68.6141 42.0022Z" fill="var(--fill-0, #2939A3)"/>
<path id="path188" d="M84 20.9991H63.0009V15.3896C69.3773 11.6938 74.6947 6.37643 78.3832 0H84V20.9991Z" fill="var(--fill-0, #2939A3)"/>
<path id="path189" d="M68.6141 42.0018H63.0009V20.999H84V26.6195C77.6272 30.308 72.3099 35.6254 68.6141 42.0018Z" fill="var(--fill-0, #2939A3)"/>
<path id="path190" d="M1.52588e-05 63.0011H20.9991V68.6143C14.6227 72.3101 9.30538 77.6275 5.62049 84.0003H1.52588e-05V63.0011Z" fill="var(--fill-0, #2939A3)"/>
<path id="path191" d="M15.3897 42.0022H20.9991V63.0013H1.52588e-05V57.3808C6.37645 53.6923 11.6938 48.375 15.3897 42.0022Z" fill="var(--fill-0, #2939A3)"/>
<path id="path192" d="M1.52588e-05 20.9991H20.9991V15.3896C14.6227 11.6938 9.30538 6.37643 5.62049 0H1.52588e-05V20.9991Z" fill="var(--fill-0, #2939A3)"/>
<path id="path193" d="M15.3897 42.0018H20.9991V20.999H1.52588e-05V26.6195C6.37645 30.308 11.6938 35.6254 15.3897 42.0018Z" fill="var(--fill-0, #2939A3)"/>
<path id="path194" d="M42.0017 63.0011H20.999V68.6143C27.3754 72.3101 32.6927 77.6275 36.3813 84.0003H42.0017V63.0011Z" fill="var(--fill-0, #2939A3)"/>
<path id="path195" d="M26.6121 42.0022H20.999V63.0013H42.0017V57.3808C35.6253 53.6923 30.3079 48.375 26.6121 42.0022Z" fill="var(--fill-0, #2939A3)"/>
<path id="path196" d="M42.0017 20.9991H20.999V15.3896C27.3754 11.6938 32.6927 6.37643 36.3813 0H42.0017V20.9991Z" fill="var(--fill-0, #2939A3)"/>
<path id="path197" d="M26.6121 42.0018H20.999V20.999H42.0017V26.6195C35.6253 30.308 30.3079 35.6254 26.6121 42.0018Z" fill="var(--fill-0, #2939A3)"/>
</g>
</svg>
