<svg preserveAspectRatio="none" width="100%" height="100%" overflow="visible" style="display: block;" viewBox="0 0 29.667 29.667" fill="none" xmlns="http://www.w3.org/2000/svg">
<path id="Icon" d="M17.5002 28.1668H7.90017M7.90017 28.1668C5.65996 28.1668 4.53985 28.1668 3.68421 27.7309C2.93156 27.3474 2.31963 26.7354 1.93614 25.9828C1.50017 25.1271 1.50017 24.007 1.50017 21.7668M7.90017 28.1668H8.4335C10.6737 28.1668 11.7938 28.1668 12.6495 27.7309C13.4021 27.3474 14.014 26.7354 14.3975 25.9828C14.8335 25.1271 14.8335 24.007 14.8335 21.7668V21.2335C14.8335 18.9933 14.8335 17.8732 14.3975 17.0175C14.014 16.2649 13.4021 15.653 12.6495 15.2695C11.7938 14.8335 10.6737 14.8335 8.4335 14.8335H7.90017C5.65996 14.8335 4.53985 14.8335 3.68421 15.2695C2.93156 15.653 2.31963 16.2649 1.93614 17.0175C1.50017 17.8732 1.50017 18.9933 1.50017 21.2335V21.7668M1.50017 21.7668V12.1668M12.1668 1.50017H17.5002M28.1668 12.1668V17.5002M22.8335 28.1668C24.0735 28.1668 24.6934 28.1668 25.2021 28.0305C26.5825 27.6607 27.6607 26.5825 28.0305 25.2021C28.1668 24.6934 28.1668 24.0735 28.1668 22.8335M28.1668 6.8335C28.1668 5.59354 28.1668 4.97356 28.0305 4.46489C27.6607 3.08452 26.5825 2.00633 25.2021 1.63646C24.6934 1.50017 24.0735 1.50017 22.8335 1.50017M6.8335 1.50017C5.59354 1.50017 4.97356 1.50017 4.46489 1.63646C3.08452 2.00633 2.00633 3.08452 1.63646 4.46489C1.50017 4.97356 1.50017 5.59354 1.50017 6.8335" stroke="var(--stroke-0, white)" stroke-width="3" stroke-linecap="round" stroke-linejoin="round"/>
</svg>
