<svg preserveAspectRatio="none" width="100%" height="100%" overflow="visible" style="display: block;" viewBox="0 0 26.6667 29.3333" fill="none" xmlns="http://www.w3.org/2000/svg">
<path id="Icon" d="M8.78667 16.68L17.8933 21.9867M17.88 7.34667L8.78667 12.6533M25.3333 5.33333C25.3333 7.54247 23.5425 9.33333 21.3333 9.33333C19.1242 9.33333 17.3333 7.54247 17.3333 5.33333C17.3333 3.12419 19.1242 1.33333 21.3333 1.33333C23.5425 1.33333 25.3333 3.12419 25.3333 5.33333ZM9.33333 14.6667C9.33333 16.8758 7.54247 18.6667 5.33333 18.6667C3.12419 18.6667 1.33333 16.8758 1.33333 14.6667C1.33333 12.4575 3.12419 10.6667 5.33333 10.6667C7.54247 10.6667 9.33333 12.4575 9.33333 14.6667ZM25.3333 24C25.3333 26.2091 23.5425 28 21.3333 28C19.1242 28 17.3333 26.2091 17.3333 24C17.3333 21.7909 19.1242 20 21.3333 20C23.5425 20 25.3333 21.7909 25.3333 24Z" stroke="var(--stroke-0, black)" stroke-width="2.66667" stroke-linecap="round" stroke-linejoin="round"/>
</svg>
