<svg preserveAspectRatio="none" width="100%" height="100%" overflow="visible" style="display: block;" viewBox="0 0 38 38" fill="none" xmlns="http://www.w3.org/2000/svg">
<path id="Icon" d="M6.75 19C6.75 12.2345 12.2345 6.75 19 6.75M26.8748 11.125L18.9998 19M36.5 19C36.5 28.665 28.665 36.5 19 36.5C9.33502 36.5 1.5 28.665 1.5 19C1.5 9.33502 9.33502 1.5 19 1.5C28.665 1.5 36.5 9.33502 36.5 19ZM20.75 19C20.75 19.9665 19.9665 20.75 19 20.75C18.0335 20.75 17.25 19.9665 17.25 19C17.25 18.0335 18.0335 17.25 19 17.25C19.9665 17.25 20.75 18.0335 20.75 19Z" stroke="var(--stroke-0, white)" stroke-width="3" stroke-linecap="round" stroke-linejoin="round"/>
</svg>
