<svg preserveAspectRatio="none" width="100%" height="100%" overflow="visible" style="display: block;" viewBox="0 0 29.3333 29.3333" fill="none" xmlns="http://www.w3.org/2000/svg">
<path id="Icon" d="M14.6667 1.33333V4.66667M14.6667 1.33333C7.30287 1.33333 1.33333 7.30287 1.33333 14.6667M14.6667 1.33333C22.0305 1.33333 28 7.30287 28 14.6667M14.6667 24.6667V28M14.6667 28C22.0305 28 28 22.0305 28 14.6667M14.6667 28C7.30287 28 1.33333 22.0305 1.33333 14.6667M4.66667 14.6667H1.33333M28 14.6667H24.6667M24.1046 24.1046L21.7396 21.7396M5.22884 24.1046L7.5962 21.7372M5.22884 5.33333L7.54411 7.6486M24.1046 5.33333L16.6665 12.6667M17.3333 14.6667C17.3333 16.1394 16.1394 17.3333 14.6667 17.3333C13.1939 17.3333 12 16.1394 12 14.6667C12 13.1939 13.1939 12 14.6667 12C16.1394 12 17.3333 13.1939 17.3333 14.6667Z" stroke="var(--stroke-0, black)" stroke-width="2.66667" stroke-linecap="round" stroke-linejoin="round"/>
</svg>
