<svg preserveAspectRatio="none" width="100%" height="100%" overflow="visible" style="display: block;" viewBox="0 0 38.5 38.5" fill="none" xmlns="http://www.w3.org/2000/svg">
<path id="Icon" d="M36.75 19.25C36.75 28.915 28.915 36.75 19.25 36.75C9.58502 36.75 1.75 28.915 1.75 19.25M36.75 19.25C36.75 9.58502 28.915 1.75 19.25 1.75M36.75 19.25H32.375M1.75 19.25C1.75 9.58502 9.58502 1.75 19.25 1.75M1.75 19.25H6.125M19.25 1.75V6.125M31.6372 7L21.8748 16.625M31.6372 31.6372L31.2804 31.2804C30.0698 30.0698 29.4644 29.4644 28.758 29.0315C28.1317 28.6477 27.4489 28.3649 26.7346 28.1934C25.929 28 25.0729 28 23.3608 28L15.1392 28.0001C13.427 28.0001 12.571 28.0001 11.7654 28.1935C11.0511 28.365 10.3683 28.6478 9.74201 29.0316C9.0356 29.4645 8.43027 30.0698 7.21962 31.2805L6.86285 31.6372M6.86285 7L9.90164 10.0388M22.75 19.25C22.75 21.183 21.183 22.75 19.25 22.75C17.317 22.75 15.75 21.183 15.75 19.25C15.75 17.317 17.317 15.75 19.25 15.75C21.183 15.75 22.75 17.317 22.75 19.25Z" stroke="var(--stroke-0, white)" stroke-width="3.5" stroke-linecap="round" stroke-linejoin="round"/>
</svg>
