<svg preserveAspectRatio="none" width="100%" height="100%" overflow="visible" style="display: block;" viewBox="0 0 29.1667 29.1667" fill="none" xmlns="http://www.w3.org/2000/svg">
<path id="Icon" d="M4.58333 27.9167V21.25M4.58333 7.91667V1.25M1.25 4.58333H7.91667M1.25 24.5833H7.91667M15.9167 2.58333L13.6044 8.59515C13.2284 9.57279 13.0404 10.0616 12.748 10.4728C12.4889 10.8372 12.1705 11.1556 11.8061 11.4147C11.3949 11.7071 10.9061 11.8951 9.92848 12.2711L3.91667 14.5833L9.92848 16.8956C10.9061 17.2716 11.3949 17.4596 11.8061 17.752C12.1705 18.0111 12.4889 18.3295 12.748 18.6939C13.0404 19.1051 13.2284 19.5939 13.6044 20.5715L15.9167 26.5833L18.2289 20.5715C18.6049 19.5939 18.7929 19.1051 19.0853 18.6939C19.3444 18.3295 19.6628 18.0111 20.0272 17.752C20.4384 17.4596 20.9272 17.2716 21.9049 16.8956L27.9167 14.5833L21.9048 12.2711C20.9272 11.8951 20.4384 11.7071 20.0272 11.4147C19.6628 11.1556 19.3444 10.8372 19.0853 10.4728C18.7929 10.0616 18.6049 9.57279 18.2289 8.59515L15.9167 2.58333Z" stroke="var(--stroke-0, white)" stroke-width="2.5" stroke-linecap="round" stroke-linejoin="round"/>
</svg>
