<svg preserveAspectRatio="none" width="100%" height="100%" overflow="visible" style="display: block;" viewBox="0 0 37.667 37.667" fill="none" xmlns="http://www.w3.org/2000/svg">
<g id="Icon" filter="url(#filter0_d_1058_3402)">
<path d="M21.5002 32.1668H11.9002M11.9002 32.1668C9.65996 32.1668 8.53985 32.1668 7.68421 31.7309C6.93156 31.3474 6.31963 30.7354 5.93614 29.9828C5.50017 29.1271 5.50017 28.007 5.50017 25.7668M11.9002 32.1668H12.4335C14.6737 32.1668 15.7938 32.1668 16.6495 31.7309C17.4021 31.3474 18.014 30.7354 18.3975 29.9828C18.8335 29.1271 18.8335 28.007 18.8335 25.7668V25.2335C18.8335 22.9933 18.8335 21.8732 18.3975 21.0175C18.014 20.2649 17.4021 19.653 16.6495 19.2695C15.7938 18.8335 14.6737 18.8335 12.4335 18.8335H11.9002C9.65996 18.8335 8.53985 18.8335 7.68421 19.2695C6.93156 19.653 6.31963 20.2649 5.93614 21.0175C5.50017 21.8732 5.50017 22.9933 5.50017 25.2335V25.7668M5.50017 25.7668V16.1668M16.1668 5.50017H21.5002M32.1668 16.1668V21.5002M26.8335 32.1668C28.0735 32.1668 28.6934 32.1668 29.2021 32.0305C30.5825 31.6607 31.6607 30.5825 32.0305 29.2021C32.1668 28.6934 32.1668 28.0735 32.1668 26.8335M32.1668 10.8335C32.1668 9.59354 32.1668 8.97356 32.0305 8.46489C31.6607 7.08452 30.5825 6.00633 29.2021 5.63646C28.6934 5.50017 28.0735 5.50017 26.8335 5.50017M10.8335 5.50017C9.59354 5.50017 8.97356 5.50017 8.46489 5.63646C7.08452 6.00633 6.00633 7.08452 5.63646 8.46489C5.50017 8.97356 5.50017 9.59354 5.50017 10.8335" stroke="url(#paint0_linear_1058_3402)" stroke-width="3" stroke-linecap="round" stroke-linejoin="round" shape-rendering="crispEdges"/>
</g>
<defs>
<filter id="filter0_d_1058_3402" x="0" y="0" width="37.667" height="37.667" filterUnits="userSpaceOnUse" color-interpolation-filters="sRGB">
<feFlood flood-opacity="0" result="BackgroundImageFix"/>
<feColorMatrix in="SourceAlpha" type="matrix" values="0 0 0 0 0 0 0 0 0 0 0 0 0 0 0 0 0 0 127 0" result="hardAlpha"/>
<feOffset/>
<feGaussianBlur stdDeviation="2"/>
<feComposite in2="hardAlpha" operator="out"/>
<feColorMatrix type="matrix" values="0 0 0 0 0 0 0 0 0 0 0 0 0 0 0 0 0 0 0.05 0"/>
<feBlend mode="normal" in2="BackgroundImageFix" result="effect1_dropShadow_1058_3402"/>
<feBlend mode="normal" in="SourceGraphic" in2="effect1_dropShadow_1058_3402" result="shape"/>
</filter>
<linearGradient id="paint0_linear_1058_3402" x1="18.8335" y1="5.50017" x2="18.8335" y2="32.1668" gradientUnits="userSpaceOnUse">
<stop stop-color="white"/>
<stop offset="1" stop-color="white" stop-opacity="0.5"/>
</linearGradient>
</defs>
</svg>
