<svg preserveAspectRatio="none" width="100%" height="100%" overflow="visible" style="display: block;" viewBox="0 0 26.8106 24.6667" fill="none" xmlns="http://www.w3.org/2000/svg">
<g id="Icon">
<path d="M25.8106 12.3333C25.8106 18.5926 20.7365 23.6667 14.4773 23.6667C13.0416 23.6667 11.6682 23.3997 10.4042 22.9127C10.1731 22.8237 10.0575 22.7792 9.96561 22.758C9.87522 22.7371 9.8098 22.7284 9.71711 22.7249C9.62288 22.7213 9.51949 22.732 9.31272 22.7534L2.48469 23.4592C1.8337 23.5265 1.5082 23.5601 1.3162 23.443C1.14896 23.341 1.03506 23.1706 1.00473 22.977C0.969924 22.7548 1.12546 22.4669 1.43655 21.8911L3.61742 17.8544C3.79703 17.522 3.88683 17.3558 3.9275 17.1959C3.96767 17.0381 3.97738 16.9243 3.96453 16.7619C3.95152 16.5975 3.87939 16.3835 3.73512 15.9555C3.35176 14.8181 3.14396 13.6 3.14396 12.3333C3.14396 6.07411 8.21807 1 14.4773 1C20.7365 1 25.8106 6.07411 25.8106 12.3333Z" stroke="url(#paint0_linear_1058_3398)" stroke-width="2" stroke-linecap="round" stroke-linejoin="round"/>
<path fill-rule="evenodd" clip-rule="evenodd" d="M14.4732 8.93233C13.2736 7.5472 11.2731 7.1746 9.77011 8.44297C8.26708 9.71134 8.05548 11.832 9.23582 13.3321C9.96708 14.2615 11.8025 15.9589 13.0932 17.1159C13.5674 17.541 13.8044 17.7535 14.0889 17.8391C14.333 17.9126 14.6134 17.9126 14.8574 17.8391C15.142 17.7535 15.379 17.541 15.8531 17.1159C17.1439 15.9589 18.9793 14.2615 19.7106 13.3321C20.8909 11.832 20.7051 9.698 19.1763 8.44297C17.6474 7.18794 15.6728 7.5472 14.4732 8.93233Z" stroke="url(#paint1_linear_1058_3398)" stroke-width="2" stroke-linecap="round" stroke-linejoin="round"/>
</g>
<defs>
<linearGradient id="paint0_linear_1058_3398" x1="13.4053" y1="1" x2="13.4053" y2="23.6667" gradientUnits="userSpaceOnUse">
<stop stop-color="white"/>
<stop offset="1" stop-color="white" stop-opacity="0.5"/>
</linearGradient>
<linearGradient id="paint1_linear_1058_3398" x1="13.4053" y1="1" x2="13.4053" y2="23.6667" gradientUnits="userSpaceOnUse">
<stop stop-color="white"/>
<stop offset="1" stop-color="white" stop-opacity="0.5"/>
</linearGradient>
</defs>
</svg>
