<svg preserveAspectRatio="none" width="100%" height="100%" overflow="visible" style="display: block;" viewBox="0 0 35 29.6667" fill="none" xmlns="http://www.w3.org/2000/svg">
<g id="Icon" filter="url(#filter0_d_1058_3396)">
<path d="M5.5 9.5L21.5 9.5M21.5 9.5C21.5 11.7091 23.2909 13.5 25.5 13.5C27.7091 13.5 29.5 11.7091 29.5 9.5C29.5 7.29086 27.7091 5.5 25.5 5.5C23.2909 5.5 21.5 7.29086 21.5 9.5ZM13.5 20.1667L29.5 20.1667M13.5 20.1667C13.5 22.3758 11.7091 24.1667 9.5 24.1667C7.29086 24.1667 5.5 22.3758 5.5 20.1667C5.5 17.9575 7.29086 16.1667 9.5 16.1667C11.7091 16.1667 13.5 17.9575 13.5 20.1667Z" stroke="url(#paint0_linear_1058_3396)" stroke-width="3" stroke-linecap="round" stroke-linejoin="round" shape-rendering="crispEdges"/>
</g>
<defs>
<filter id="filter0_d_1058_3396" x="0" y="0" width="35" height="29.6667" filterUnits="userSpaceOnUse" color-interpolation-filters="sRGB">
<feFlood flood-opacity="0" result="BackgroundImageFix"/>
<feColorMatrix in="SourceAlpha" type="matrix" values="0 0 0 0 0 0 0 0 0 0 0 0 0 0 0 0 0 0 127 0" result="hardAlpha"/>
<feOffset/>
<feGaussianBlur stdDeviation="2"/>
<feComposite in2="hardAlpha" operator="out"/>
<feColorMatrix type="matrix" values="0 0 0 0 0 0 0 0 0 0 0 0 0 0 0 0 0 0 0.05 0"/>
<feBlend mode="normal" in2="BackgroundImageFix" result="effect1_dropShadow_1058_3396"/>
<feBlend mode="normal" in="SourceGraphic" in2="effect1_dropShadow_1058_3396" result="shape"/>
</filter>
<linearGradient id="paint0_linear_1058_3396" x1="17.5" y1="5.5" x2="17.5" y2="24.1667" gradientUnits="userSpaceOnUse">
<stop stop-color="white"/>
<stop offset="1" stop-color="white" stop-opacity="0.5"/>
</linearGradient>
</defs>
</svg>
