<svg preserveAspectRatio="none" width="100%" height="100%" overflow="visible" style="display: block;" viewBox="0 0 37 37.0003" fill="none" xmlns="http://www.w3.org/2000/svg">
<g id="Icon" filter="url(#filter0_d_1028_6721)">
<path d="M18.1667 22.8337L14.1667 18.8337M18.1667 22.8337C20.0291 22.1253 21.8159 21.232 23.5 20.167M18.1667 22.8337V29.5003C18.1667 29.5003 22.2067 28.767 23.5 26.8337C24.94 24.6737 23.5 20.167 23.5 20.167M14.1667 18.8337C14.8762 16.9929 15.7696 15.2284 16.8333 13.567C18.3869 11.083 20.5502 9.03773 23.1173 7.62579C25.6845 6.21384 28.5702 5.48216 31.5 5.50033C31.5 9.127 30.46 15.5003 23.5 20.167M14.1667 18.8337H7.50001C7.50001 18.8337 8.23335 14.7937 10.1667 13.5003C12.3267 12.0603 16.8333 13.5003 16.8333 13.5003M8.16668 24.8337C6.16668 26.5137 5.50001 31.5003 5.50001 31.5003C5.50001 31.5003 10.4867 30.8337 12.1667 28.8337C13.1133 27.7137 13.1 25.9937 12.0467 24.9537C11.5284 24.459 10.8457 24.1732 10.1296 24.151C9.41356 24.1289 8.71452 24.372 8.16668 24.8337Z" stroke="url(#paint0_linear_1028_6721)" stroke-width="3" stroke-linecap="round" stroke-linejoin="round" shape-rendering="crispEdges"/>
</g>
<defs>
<filter id="filter0_d_1028_6721" x="-1.19209e-07" y="0" width="37" height="37.0003" filterUnits="userSpaceOnUse" color-interpolation-filters="sRGB">
<feFlood flood-opacity="0" result="BackgroundImageFix"/>
<feColorMatrix in="SourceAlpha" type="matrix" values="0 0 0 0 0 0 0 0 0 0 0 0 0 0 0 0 0 0 127 0" result="hardAlpha"/>
<feOffset/>
<feGaussianBlur stdDeviation="2"/>
<feComposite in2="hardAlpha" operator="out"/>
<feColorMatrix type="matrix" values="0 0 0 0 0 0 0 0 0 0 0 0 0 0 0 0 0 0 0.05 0"/>
<feBlend mode="normal" in2="BackgroundImageFix" result="effect1_dropShadow_1028_6721"/>
<feBlend mode="normal" in="SourceGraphic" in2="effect1_dropShadow_1028_6721" result="shape"/>
</filter>
<linearGradient id="paint0_linear_1028_6721" x1="18.5" y1="5.5" x2="18.5" y2="31.5003" gradientUnits="userSpaceOnUse">
<stop stop-color="white"/>
<stop offset="1" stop-color="white" stop-opacity="0.5"/>
</linearGradient>
</defs>
</svg>
