<svg preserveAspectRatio="none" width="100%" height="100%" overflow="visible" style="display: block;" viewBox="0 0 29.3334 28.1618" fill="none" xmlns="http://www.w3.org/2000/svg">
<path id="Icon" d="M6.6667 6.6667L12.6667 12.6667M6.6667 6.6667H2.6667L1.33337 2.6667L2.6667 1.33337L6.6667 2.6667V6.6667ZM24.3454 2.32139L20.8419 5.82488C20.3138 6.3529 20.0498 6.61691 19.9509 6.92135C19.8639 7.18914 19.8639 7.4776 19.9509 7.74539C20.0498 8.04983 20.3138 8.31384 20.8419 8.84186L21.1582 9.15821C21.6862 9.68623 21.9502 9.95024 22.2547 10.0492C22.5225 10.1362 22.8109 10.1362 23.0787 10.0492C23.3832 9.95024 23.6472 9.68623 24.1752 9.15821L27.4524 5.88099C27.8054 6.73988 28 7.68056 28 8.6667C28 12.7168 24.7168 16 20.6667 16C20.1784 16 19.7013 15.9523 19.2397 15.8613C18.5915 15.7334 18.2674 15.6695 18.071 15.6891C17.8621 15.7099 17.7591 15.7412 17.5741 15.8403C17.4 15.9334 17.2253 16.1081 16.8761 16.4573L7.33337 26C6.2288 27.1046 4.43794 27.1046 3.33337 26C2.2288 24.8954 2.2288 23.1046 3.33337 22L12.8761 12.4573C13.2253 12.1081 13.4 11.9334 13.4931 11.7594C13.5922 11.5743 13.6235 11.4713 13.6443 11.2625C13.6639 11.066 13.6 10.7419 13.4721 10.0937C13.3811 9.63211 13.3334 9.15498 13.3334 8.6667C13.3334 4.61661 16.6166 1.33337 20.6667 1.33337C22.0074 1.33337 23.264 1.69313 24.3454 2.32139ZM14.6668 18.6666L22 25.9999C23.1046 27.1045 24.8955 27.1045 26 25.9999C27.1046 24.8953 27.1046 23.1045 26 21.9999L19.9671 15.9671C19.5401 15.9267 19.1236 15.8496 18.7211 15.7391C18.2023 15.5968 17.6333 15.7001 17.2529 16.0805L14.6668 18.6666Z" stroke="var(--stroke-0, black)" stroke-width="2.66667" stroke-linecap="round" stroke-linejoin="round"/>
</svg>
