<svg preserveAspectRatio="none" width="100%" height="100%" overflow="visible" style="display: block;" viewBox="0 0 48 47.9995" fill="none" xmlns="http://www.w3.org/2000/svg">
<g id="Group 390">
<path id="path359" d="M34.8896 7.02843C36.6175 5.30059 39.4513 5.35068 41.1144 7.18078C42.5314 8.73751 42.5961 11.1644 41.2584 12.79C40.6804 13.4912 39.9375 13.9586 39.1424 14.1923C35.4781 15.2649 32.1038 17.1576 29.4035 19.8579L24.631 24.6325L23.9987 24.0002L23.3664 23.3679L28.141 18.5933C30.8559 15.8784 32.6901 12.4645 33.8232 8.79385C34.0236 8.14903 34.3784 7.53969 34.8896 7.02843Z" fill="var(--fill-0, #1E9199)"/>
<path id="path360" d="M7.02929 34.8896C5.30144 36.6174 5.35154 39.4512 7.18164 41.1144C8.73838 42.5313 11.1653 42.596 12.7909 41.2584C13.4921 40.6804 13.9595 39.9375 14.1932 39.1424C15.2658 35.478 17.1585 32.1058 19.8588 29.4034L24.6312 24.631L24.001 23.9987L23.3687 23.3664L18.5942 28.1409C15.8793 30.8558 12.4654 32.6901 8.79473 33.8232C8.14992 34.0235 7.54055 34.3783 7.02929 34.8896Z" fill="var(--fill-0, #1E9199)"/>
<path id="path361" d="M43.7005 19.7005C46.1441 19.7005 48.1119 21.7392 47.9951 24.21C47.8949 26.3134 46.2254 28.0747 44.1303 28.2771C43.2247 28.3647 42.3691 28.1707 41.6408 27.7742C38.2916 25.942 34.5687 24.8944 30.75 24.8944H23.9992V23.9992V23.1061H30.75C34.5896 23.1061 38.302 21.9897 41.6972 20.195C42.2961 19.8799 42.9763 19.7005 43.7005 19.7005Z" fill="var(--fill-0, #1E9199)"/>
<path id="path362" d="M4.29764 19.7005C1.85403 19.7005 -0.113823 21.7392 0.00512281 24.21C0.105288 26.3134 1.77473 28.0747 3.86985 28.2771C4.77551 28.3647 5.62898 28.1707 6.35727 27.7742C9.70654 25.942 13.4293 24.8944 17.2481 24.8944H24.0009V23.9992V23.1061H17.2481C13.4085 23.1061 9.69821 21.9897 6.30094 20.195C5.70412 19.8799 5.02175 19.7005 4.29764 19.7005Z" fill="var(--fill-0, #1E9199)"/>
<path id="path363" d="M40.9684 34.8896C42.6983 36.6174 42.6462 39.4512 40.8161 41.1144C39.2593 42.5313 36.8324 42.596 35.2089 41.2584C34.5056 40.6804 34.0382 39.9375 33.8045 39.1424C32.7319 35.478 30.8413 32.1058 28.1389 29.4034L23.3664 24.631L23.9987 23.9987L24.631 23.3664L29.4035 28.1409C32.1205 30.8558 35.5344 32.6901 39.203 33.8232C39.8499 34.0235 40.4571 34.3783 40.9684 34.8896Z" fill="var(--fill-0, #1E9199)"/>
<path id="path364" d="M13.1082 7.02843C11.3803 5.30059 8.54649 5.35068 6.88333 7.18078C5.4685 8.73751 5.40175 11.1644 6.74146 12.79C7.31949 13.4912 8.06027 13.9586 8.85533 14.1923C12.5197 15.2649 15.894 17.1576 18.5943 19.8579L23.3688 24.6325L24.0011 24.0002L24.6335 23.3679L19.8589 18.5933C17.1419 15.8784 15.3076 12.4645 14.1745 8.79385C13.9763 8.14903 13.6195 7.53969 13.1082 7.02843Z" fill="var(--fill-0, #1E9199)"/>
<path id="path365" d="M28.2978 43.6999C28.2978 46.1435 26.2591 48.1114 23.7883 47.9945C21.6849 47.8943 19.9236 46.2249 19.7212 44.1298C19.6335 43.2241 19.8276 42.3686 20.2241 41.6424C22.0584 38.291 23.1059 34.5682 23.1059 30.7494V23.9987H23.9991H24.8943V30.7494C24.8943 34.5891 26.0107 38.3015 27.8032 41.6966C28.1183 42.2955 28.2978 42.9758 28.2978 43.6999Z" fill="var(--fill-0, #1E9199)"/>
<path id="path366" d="M28.2978 4.29761C28.2978 1.854 26.2591 -0.11382 23.7883 0.00512558C21.6849 0.105291 19.9236 1.7747 19.7212 3.86982C19.6335 4.77548 19.8276 5.62898 20.2241 6.35726C22.0584 9.70653 23.1059 13.4293 23.1059 17.2481V24.0009H23.9991H24.8943V17.2481C24.8943 13.4085 26.0107 9.69818 27.8032 6.30091C28.1183 5.70409 28.2978 5.02172 28.2978 4.29761Z" fill="var(--fill-0, #1E9199)"/>
</g>
</svg>
