<svg preserveAspectRatio="none" width="100%" height="100%" overflow="visible" style="display: block;" viewBox="0 0 38 34.5" fill="none" xmlns="http://www.w3.org/2000/svg">
<path id="Icon" d="M36.5 33V29.5C36.5 26.2383 34.2691 23.4976 31.25 22.7205M25.125 2.00883C27.6904 3.04726 29.5 5.56229 29.5 8.5C29.5 11.4377 27.6904 13.9527 25.125 14.9912M27.75 33C27.75 29.7384 27.75 28.1076 27.2172 26.8212C26.5067 25.106 25.144 23.7433 23.4288 23.0328C22.1424 22.5 20.5116 22.5 17.25 22.5H12C8.73841 22.5 7.10761 22.5 5.82122 23.0328C4.10602 23.7433 2.7433 25.106 2.03284 26.8212C1.5 28.1076 1.5 29.7384 1.5 33M21.625 8.5C21.625 12.366 18.491 15.5 14.625 15.5C10.759 15.5 7.625 12.366 7.625 8.5C7.625 4.63401 10.759 1.5 14.625 1.5C18.491 1.5 21.625 4.63401 21.625 8.5Z" stroke="var(--stroke-0, white)" stroke-width="3" stroke-linecap="round" stroke-linejoin="round"/>
</svg>
