<svg preserveAspectRatio="none" width="100%" height="100%" overflow="visible" style="display: block;" viewBox="0 0 100 100" fill="none" xmlns="http://www.w3.org/2000/svg">
<g id="Frame 2018779121">
<rect width="100" height="100" rx="8" fill="var(--fill-0, #060632)"/>
<path id="Vector" d="M64.13 46.3014C64.0899 46.2866 64.0519 46.2718 64.0118 46.2571C66.657 45.3416 69.281 43.7891 71.4201 41.1461C74.9258 37.1805 72.0402 30.3548 66.6128 30.8441L64.8094 30.901L64.9465 29.2578C65.4295 23.6894 58.338 20.9619 54.4884 24.7649C52.0267 27.005 50.5397 29.5869 49.6389 32.1369C48.7361 29.5973 47.2532 27.026 44.7958 24.7919C40.9462 20.9866 33.8544 23.7182 34.3377 29.2848L34.4748 30.928L32.6734 30.8732C27.2481 30.3838 24.3602 37.2117 27.8662 41.1752C29.9967 43.8077 32.6102 45.3539 35.2404 46.2672C32.2578 47.3557 29.7562 49.1085 27.8662 51.4457C24.3605 55.4113 27.2482 62.2391 32.6734 61.7477L34.4769 61.6908L34.3398 63.334C33.8568 68.9024 40.9483 71.63 44.7979 67.8269C46.4137 66.3567 47.7257 64.5996 48.7129 62.5852C49.3246 67.2068 50.5143 71.7376 52.2756 76.1294C52.5604 76.8465 53.3852 77.1819 54.077 76.8993C54.7879 76.6145 55.1317 75.8088 54.8469 75.0979C53.5033 71.7462 52.5098 68.3102 51.8685 64.8105C52.6258 65.9179 53.499 66.9262 54.4884 67.8268C58.3633 71.6005 65.3898 68.9659 64.9465 63.3339L64.8094 61.6907L66.6128 61.7476C72.0425 62.2412 74.9261 55.407 71.4201 51.4456C69.5469 49.1338 67.0936 47.4024 64.13 46.3014ZM66.7203 58.9827L63.3411 58.8751C62.5374 58.8308 61.8308 59.5754 61.9173 60.3748L62.1831 63.5431C62.2991 66.5848 58.8418 67.9938 56.3527 65.7811C51.9273 61.7543 51.1932 56.1119 51.0266 52.218C50.9949 51.4776 50.3853 50.8912 49.6428 50.8912C48.9003 50.8912 48.2907 51.4755 48.2591 52.218C48.0925 56.1119 47.3584 61.7543 42.933 65.7811C40.4439 67.9938 36.9865 66.5869 37.1026 63.5431L37.3684 60.3748C37.4549 59.5732 36.7462 58.8328 35.9446 58.8751L32.5654 58.9827C29.5363 59.1767 27.9607 55.8039 30.0194 53.1901C32.8354 49.7097 37.0097 47.923 43.1543 47.5644C43.8926 47.5222 44.4663 46.9063 44.4579 46.166C44.4495 45.4256 43.863 44.8244 43.1248 44.797C39.2477 44.6535 33.6705 43.9427 30.019 39.4328C27.9582 36.8236 29.5381 33.4378 32.565 33.6403L35.9442 33.7479C36.75 33.7922 37.4524 33.0476 37.368 32.2482L37.1022 29.0799C36.9862 26.0382 40.4435 24.627 42.9326 26.8419C47.3601 30.8707 48.0921 36.3593 48.2587 40.1371C48.2904 40.8775 48.9 41.4618 49.6425 41.4618C50.385 41.4618 50.9946 40.8775 51.0262 40.1371C51.1907 36.3487 51.9248 30.8454 56.3523 26.8143C58.8414 24.6016 62.2988 26.0085 62.1827 29.0523L61.9169 32.2206C61.8325 33.0201 62.5391 33.7647 63.3407 33.7203L66.7199 33.6128C69.7511 33.4187 71.3246 36.7916 69.2659 39.4053C65.5977 43.9362 59.9844 44.6492 56.0802 44.7926C55.3399 44.8201 54.7535 45.4233 54.745 46.1637C54.7387 46.9041 55.3124 47.5179 56.0507 47.5601C62.2396 47.9103 66.437 49.699 69.2639 53.1901C70.4451 54.6477 71.3482 58.7294 66.7203 58.9827Z" fill="url(#paint0_linear_1052_3386)" stroke="url(#paint1_linear_1052_3386)"/>
</g>
<defs>
<linearGradient id="paint0_linear_1052_3386" x1="87.7473" y1="-1.10464" x2="33.9538" y2="76.9993" gradientUnits="userSpaceOnUse">
<stop stop-color="#4EC8F4"/>
<stop offset="1" stop-color="#3984F2"/>
</linearGradient>
<linearGradient id="paint1_linear_1052_3386" x1="87.7473" y1="-1.10464" x2="33.9538" y2="76.9993" gradientUnits="userSpaceOnUse">
<stop stop-color="#4EC8F4"/>
<stop offset="1" stop-color="#3984F2"/>
</linearGradient>
</defs>
</svg>
