<svg preserveAspectRatio="none" width="100%" height="100%" overflow="visible" style="display: block;" viewBox="0 0 48 48" fill="none" xmlns="http://www.w3.org/2000/svg">
<g id="Group 390">
<path id="path359" d="M34.8896 7.02883C36.6175 5.30098 39.4513 5.35107 41.1144 7.18117C42.5314 8.7379 42.5961 11.1648 41.2584 12.7904C40.6804 13.4916 39.9375 13.959 39.1424 14.1927C35.4781 15.2653 32.1038 17.158 29.4035 19.8583L24.631 24.6328L23.9987 24.0006L23.3664 23.3683L28.141 18.5937C30.8559 15.8788 32.6901 12.4649 33.8232 8.79424C34.0236 8.14943 34.3784 7.54009 34.8896 7.02883Z" fill="var(--fill-0, #05052C)"/>
<path id="path360" d="M7.02929 34.8899C5.30144 36.6178 5.35154 39.4516 7.18164 41.1148C8.73838 42.5317 11.1653 42.5964 12.7909 41.2588C13.4921 40.6807 13.9595 39.9379 14.1932 39.1428C15.2658 35.4784 17.1585 32.1062 19.8588 29.4038L24.6312 24.6314L24.001 23.9991L23.3687 23.3668L18.5942 28.1413C15.8793 30.8562 12.4654 32.6905 8.79473 33.8236C8.14992 34.0239 7.54055 34.3787 7.02929 34.8899Z" fill="var(--fill-0, #05052C)"/>
<path id="path361" d="M43.7005 19.7009C46.1441 19.7009 48.1119 21.7396 47.9951 24.2104C47.8949 26.3138 46.2254 28.0751 44.1303 28.2775C43.2247 28.3651 42.3691 28.1711 41.6408 27.7746C38.2916 25.9424 34.5687 24.8948 30.75 24.8948H23.9992V23.9996V23.1065H30.75C34.5896 23.1065 38.302 21.99 41.6972 20.1954C42.2961 19.8803 42.9763 19.7009 43.7005 19.7009Z" fill="var(--fill-0, #05052C)"/>
<path id="path362" d="M4.29764 19.7009C1.85403 19.7009 -0.113823 21.7396 0.00512281 24.2104C0.105288 26.3138 1.77473 28.0751 3.86985 28.2775C4.77551 28.3651 5.62898 28.1711 6.35727 27.7746C9.70654 25.9424 13.4293 24.8948 17.2481 24.8948H24.0009V23.9996V23.1065H17.2481C13.4085 23.1065 9.69821 21.99 6.30094 20.1954C5.70412 19.8803 5.02175 19.7009 4.29764 19.7009Z" fill="var(--fill-0, #05052C)"/>
<path id="path363" d="M40.9684 34.8899C42.6983 36.6178 42.6462 39.4516 40.8161 41.1148C39.2593 42.5317 36.8324 42.5964 35.2089 41.2588C34.5056 40.6807 34.0382 39.9379 33.8045 39.1428C32.7319 35.4784 30.8413 32.1062 28.1389 29.4038L23.3664 24.6314L23.9987 23.9991L24.631 23.3668L29.4035 28.1413C32.1205 30.8562 35.5344 32.6905 39.203 33.8236C39.8499 34.0239 40.4571 34.3787 40.9684 34.8899Z" fill="var(--fill-0, #05052C)"/>
<path id="path364" d="M13.1082 7.02883C11.3803 5.30098 8.54649 5.35107 6.88333 7.18117C5.4685 8.7379 5.40175 11.1648 6.74146 12.7904C7.31949 13.4916 8.06027 13.959 8.85533 14.1927C12.5197 15.2653 15.894 17.158 18.5943 19.8583L23.3688 24.6328L24.0011 24.0006L24.6335 23.3683L19.8589 18.5937C17.1419 15.8788 15.3076 12.4649 14.1745 8.79424C13.9763 8.14943 13.6195 7.54009 13.1082 7.02883Z" fill="var(--fill-0, #05052C)"/>
<path id="path365" d="M28.2978 43.7005C28.2978 46.1441 26.2591 48.1119 23.7883 47.9951C21.6849 47.8949 19.9236 46.2255 19.7212 44.1304C19.6335 43.2247 19.8276 42.3691 20.2241 41.643C22.0584 38.2916 23.1059 34.5688 23.1059 30.75V23.9993H23.9991H24.8943V30.75C24.8943 34.5897 26.0107 38.302 27.8032 41.6972C28.1183 42.2961 28.2978 42.9764 28.2978 43.7005Z" fill="var(--fill-0, #05052C)"/>
<path id="path366" d="M28.2978 4.29782C28.2978 1.85421 26.2591 -0.113611 23.7883 0.00533539C21.6849 0.1055 19.9236 1.77491 19.7212 3.87003C19.6335 4.77569 19.8276 5.62918 20.2241 6.35747C22.0584 9.70674 23.1059 13.4295 23.1059 17.2483V24.0011H23.9991H24.8943V17.2483C24.8943 13.4087 26.0107 9.69839 27.8032 6.30112C28.1183 5.7043 28.2978 5.02193 28.2978 4.29782Z" fill="var(--fill-0, #060632)"/>
</g>
</svg>
